G04*
G04 #@! TF.GenerationSoftware,Altium Limited,Altium Designer,21.0.5 (76)*
G04*
G04 Layer_Physical_Order=1*
G04 Layer_Color=255*
%FSLAX24Y24*%
%MOIN*%
G70*
G04*
G04 #@! TF.SameCoordinates,1F1A31E2-E608-47EA-9DE2-FAD69E6EB028*
G04*
G04*
G04 #@! TF.FilePolarity,Positive*
G04*
G01*
G75*
%ADD17R,0.0579X0.0457*%
%ADD18R,0.0457X0.0579*%
%ADD19R,0.0984X0.0591*%
%ADD35C,0.0157*%
%ADD36C,0.0394*%
%ADD37C,0.0315*%
%ADD38C,0.0669*%
%ADD39R,0.0669X0.0669*%
%ADD40C,0.1181*%
%ADD41R,0.1181X0.1181*%
%ADD42R,0.0669X0.0669*%
%ADD43C,0.0800*%
%ADD44R,0.1181X0.1181*%
%ADD45C,0.0591*%
%ADD46R,0.0591X0.0591*%
%ADD47R,0.0591X0.0591*%
%ADD48C,0.1220*%
%ADD49C,0.0500*%
G36*
X-0Y38036D02*
X37008D01*
X37018Y38038D01*
X37209Y38019D01*
X37402Y37960D01*
X37581Y37865D01*
X37737Y37737D01*
X37865Y37581D01*
X37960Y37402D01*
X38019Y37209D01*
X38034Y37057D01*
X38036Y37008D01*
X38036Y37008D01*
X38036Y36959D01*
Y50D01*
X38036Y49D01*
X38036Y0D01*
X38034Y-49D01*
X38019Y-201D01*
X37960Y-395D01*
X37865Y-573D01*
X37737Y-729D01*
X37581Y-857D01*
X37402Y-953D01*
X37209Y-1011D01*
X37057Y-1026D01*
X37008Y-1028D01*
X37008Y-1028D01*
X36959Y-1028D01*
X50D01*
X49Y-1028D01*
X0Y-1028D01*
X-49Y-1026D01*
X-201Y-1011D01*
X-395Y-953D01*
X-573Y-857D01*
X-729Y-729D01*
X-857Y-573D01*
X-953Y-395D01*
X-1011Y-201D01*
X-1030Y-10D01*
X-1028Y0D01*
Y37008D01*
X-1030Y37018D01*
X-1011Y37209D01*
X-953Y37402D01*
X-857Y37581D01*
X-729Y37737D01*
X-573Y37865D01*
X-395Y37960D01*
X-201Y38019D01*
X-10Y38038D01*
X-0Y38036D01*
D02*
G37*
%LPC*%
G36*
X24000Y37448D02*
Y37000D01*
X24448D01*
X24437Y37081D01*
X24387Y37202D01*
X24307Y37307D01*
X24202Y37387D01*
X24081Y37437D01*
X24000Y37448D01*
D02*
G37*
G36*
X23900Y37448D02*
X23819Y37437D01*
X23698Y37387D01*
X23593Y37307D01*
X23513Y37202D01*
X23463Y37081D01*
X23452Y37000D01*
X23900D01*
Y37448D01*
D02*
G37*
G36*
X24448Y36900D02*
X24000D01*
Y36452D01*
X24081Y36463D01*
X24202Y36513D01*
X24307Y36593D01*
X24387Y36698D01*
X24437Y36819D01*
X24448Y36900D01*
D02*
G37*
G36*
X23900D02*
X23452D01*
X23463Y36819D01*
X23513Y36698D01*
X23593Y36593D01*
X23698Y36513D01*
X23819Y36463D01*
X23900Y36452D01*
Y36900D01*
D02*
G37*
G36*
X-0Y37722D02*
X-139Y37708D01*
X-273Y37667D01*
X-397Y37601D01*
X-505Y37513D01*
X-593Y37404D01*
X-659Y37281D01*
X-700Y37147D01*
X-714Y37008D01*
X-700Y36869D01*
X-659Y36735D01*
X-593Y36611D01*
X-505Y36503D01*
X-397Y36414D01*
X-273Y36349D01*
X-139Y36308D01*
X-0Y36294D01*
X139Y36308D01*
X273Y36349D01*
X396Y36414D01*
X505Y36503D01*
X593Y36611D01*
X659Y36735D01*
X700Y36869D01*
X714Y37008D01*
X700Y37147D01*
X659Y37281D01*
X593Y37404D01*
X505Y37513D01*
X396Y37601D01*
X273Y37667D01*
X139Y37708D01*
X-0Y37722D01*
D02*
G37*
G36*
X26950Y36938D02*
X26837Y36923D01*
X26731Y36880D01*
X26640Y36810D01*
X26570Y36719D01*
X26527Y36613D01*
X26512Y36500D01*
X26527Y36387D01*
X26570Y36281D01*
X26640Y36190D01*
X26731Y36120D01*
X26837Y36077D01*
X26950Y36062D01*
X27063Y36077D01*
X27169Y36120D01*
X27260Y36190D01*
X27330Y36281D01*
X27373Y36387D01*
X27388Y36500D01*
X27373Y36613D01*
X27330Y36719D01*
X27260Y36810D01*
X27169Y36880D01*
X27063Y36923D01*
X26950Y36938D01*
D02*
G37*
G36*
X30800Y36332D02*
Y35950D01*
X31182D01*
X31173Y36013D01*
X31130Y36119D01*
X31060Y36210D01*
X30969Y36280D01*
X30863Y36323D01*
X30800Y36332D01*
D02*
G37*
G36*
X30700Y36332D02*
X30637Y36323D01*
X30531Y36280D01*
X30440Y36210D01*
X30370Y36119D01*
X30327Y36013D01*
X30318Y35950D01*
X30700D01*
Y36332D01*
D02*
G37*
G36*
X14200Y36232D02*
Y35850D01*
X14582D01*
X14573Y35913D01*
X14530Y36019D01*
X14460Y36110D01*
X14369Y36180D01*
X14263Y36223D01*
X14200Y36232D01*
D02*
G37*
G36*
X14100Y36232D02*
X14037Y36223D01*
X13931Y36180D01*
X13840Y36110D01*
X13770Y36019D01*
X13727Y35913D01*
X13718Y35850D01*
X14100D01*
Y36232D01*
D02*
G37*
G36*
X31182Y35850D02*
X30800D01*
Y35468D01*
X30863Y35477D01*
X30969Y35520D01*
X31060Y35590D01*
X31130Y35681D01*
X31173Y35787D01*
X31182Y35850D01*
D02*
G37*
G36*
X30700D02*
X30318D01*
X30327Y35787D01*
X30370Y35681D01*
X30440Y35590D01*
X30531Y35520D01*
X30637Y35477D01*
X30700Y35468D01*
Y35850D01*
D02*
G37*
G36*
X32185Y36335D02*
X31315D01*
Y35465D01*
X32185D01*
Y36335D01*
D02*
G37*
G36*
X29750Y36338D02*
X29637Y36323D01*
X29531Y36280D01*
X29440Y36210D01*
X29370Y36119D01*
X29327Y36013D01*
X29312Y35900D01*
X29313Y35887D01*
X29313Y35858D01*
X29311Y35824D01*
X29307Y35792D01*
X29302Y35764D01*
X29295Y35739D01*
X29288Y35717D01*
X29279Y35698D01*
X29270Y35681D01*
X29262Y35670D01*
X28522Y34930D01*
X28483Y34871D01*
X28469Y34801D01*
X28469Y34801D01*
Y31868D01*
X28419Y31850D01*
X28349Y31903D01*
X28253Y31943D01*
X28150Y31957D01*
X28047Y31943D01*
X27951Y31903D01*
X27868Y31840D01*
X27805Y31757D01*
X27765Y31661D01*
X27751Y31558D01*
X27765Y31455D01*
X27805Y31359D01*
X27868Y31276D01*
X27951Y31213D01*
X28047Y31173D01*
X28150Y31159D01*
X28253Y31173D01*
X28349Y31213D01*
X28419Y31266D01*
X28469Y31248D01*
Y31169D01*
X28311Y31011D01*
X28302Y31005D01*
X28288Y30996D01*
X28271Y30987D01*
X28252Y30980D01*
X28231Y30973D01*
X28208Y30967D01*
X28151Y30957D01*
X28119Y30954D01*
X28111Y30951D01*
X28047Y30943D01*
X27951Y30903D01*
X27868Y30840D01*
X27805Y30757D01*
X27765Y30661D01*
X27751Y30558D01*
X27765Y30455D01*
X27805Y30359D01*
X27868Y30276D01*
X27951Y30213D01*
X28047Y30173D01*
X28150Y30159D01*
X28253Y30173D01*
X28349Y30213D01*
X28432Y30276D01*
X28495Y30359D01*
X28535Y30455D01*
X28549Y30558D01*
X28545Y30586D01*
X28546Y30592D01*
X28544Y30622D01*
X28544Y30648D01*
X28545Y30671D01*
X28548Y30692D01*
X28553Y30710D01*
X28558Y30727D01*
X28565Y30742D01*
X28572Y30755D01*
X28579Y30763D01*
X28780Y30965D01*
X28780Y30965D01*
X28819Y31024D01*
X28833Y31093D01*
Y31244D01*
X28883Y31264D01*
X28951Y31213D01*
X29047Y31173D01*
X29150Y31159D01*
X29253Y31173D01*
X29349Y31213D01*
X29432Y31276D01*
X29495Y31359D01*
X29535Y31455D01*
X29549Y31558D01*
X29535Y31661D01*
X29495Y31757D01*
X29432Y31840D01*
X29349Y31903D01*
X29253Y31943D01*
X29150Y31957D01*
X29047Y31943D01*
X28951Y31903D01*
X28883Y31851D01*
X28833Y31872D01*
Y34726D01*
X29520Y35412D01*
X29531Y35420D01*
X29548Y35429D01*
X29567Y35438D01*
X29589Y35445D01*
X29614Y35452D01*
X29641Y35457D01*
X29710Y35463D01*
X29737Y35463D01*
X29750Y35462D01*
X29863Y35477D01*
X29969Y35520D01*
X30060Y35590D01*
X30130Y35681D01*
X30173Y35787D01*
X30188Y35900D01*
X30173Y36013D01*
X30130Y36119D01*
X30060Y36210D01*
X29969Y36280D01*
X29863Y36323D01*
X29750Y36338D01*
D02*
G37*
G36*
X20591Y36816D02*
X20487Y36802D01*
X20391Y36763D01*
X20309Y36699D01*
X20245Y36617D01*
X20205Y36521D01*
X20192Y36417D01*
X20205Y36314D01*
X20245Y36218D01*
X20309Y36135D01*
X20317Y36129D01*
X20333Y36112D01*
X20351Y36092D01*
X20366Y36072D01*
X20379Y36053D01*
X20389Y36035D01*
X20397Y36017D01*
X20403Y36001D01*
X20407Y35985D01*
X20408Y35975D01*
Y35835D01*
X20407Y35825D01*
X20405Y35813D01*
X20195D01*
Y35022D01*
X20986D01*
Y35813D01*
X20776D01*
X20774Y35825D01*
X20773Y35835D01*
Y35975D01*
X20774Y35985D01*
X20778Y36001D01*
X20784Y36017D01*
X20792Y36035D01*
X20802Y36053D01*
X20815Y36072D01*
X20830Y36092D01*
X20848Y36112D01*
X20864Y36129D01*
X20872Y36135D01*
X20879Y36144D01*
X20895Y36160D01*
X20916Y36178D01*
X20936Y36193D01*
X20955Y36205D01*
X20973Y36216D01*
X20990Y36224D01*
X21007Y36229D01*
X21022Y36233D01*
X21033Y36235D01*
X21400D01*
X21408Y36219D01*
X21418Y36195D01*
X21427Y36165D01*
X21435Y36132D01*
X21441Y36095D01*
X21448Y36004D01*
X21448Y35967D01*
X21446Y35950D01*
X21463Y35819D01*
X21513Y35698D01*
X21593Y35593D01*
X21698Y35513D01*
X21819Y35463D01*
X21950Y35446D01*
X22081Y35463D01*
X22202Y35513D01*
X22307Y35593D01*
X22387Y35698D01*
X22437Y35819D01*
X22454Y35950D01*
X22437Y36081D01*
X22387Y36202D01*
X22307Y36307D01*
X22202Y36387D01*
X22081Y36437D01*
X21950Y36454D01*
X21935Y36452D01*
X21847Y36455D01*
X21806Y36459D01*
X21768Y36465D01*
X21735Y36473D01*
X21705Y36482D01*
X21681Y36492D01*
X21660Y36502D01*
X21645Y36513D01*
X21612Y36546D01*
X21552Y36586D01*
X21483Y36600D01*
X21483Y36600D01*
X21033D01*
X21022Y36601D01*
X21007Y36605D01*
X20990Y36611D01*
X20973Y36619D01*
X20955Y36629D01*
X20936Y36642D01*
X20916Y36657D01*
X20895Y36675D01*
X20879Y36691D01*
X20872Y36699D01*
X20790Y36763D01*
X20694Y36802D01*
X20591Y36816D01*
D02*
G37*
G36*
X14100Y35750D02*
X13718D01*
X13727Y35687D01*
X13770Y35581D01*
X13840Y35490D01*
X13931Y35420D01*
X14037Y35377D01*
X14100Y35368D01*
Y35750D01*
D02*
G37*
G36*
X36061Y36835D02*
X34679D01*
Y35454D01*
X34924D01*
X34924Y35453D01*
X34942Y35452D01*
X34946Y35450D01*
X34949Y35448D01*
X34954Y35443D01*
X34962Y35430D01*
X34971Y35409D01*
X34979Y35379D01*
X34985Y35340D01*
X34989Y35294D01*
X34990Y35249D01*
Y35016D01*
X34989Y34982D01*
X34983Y34942D01*
X34974Y34899D01*
X34962Y34855D01*
X34922Y34754D01*
X34898Y34703D01*
X34833Y34589D01*
X34801Y34539D01*
X34793Y34530D01*
X34729Y34410D01*
X34689Y34280D01*
X34676Y34144D01*
X34689Y34009D01*
X34729Y33879D01*
X34793Y33759D01*
X34879Y33654D01*
X34913Y33626D01*
X34899Y33594D01*
X34890Y33527D01*
Y32157D01*
X34889Y32112D01*
X34886Y32065D01*
X34880Y32025D01*
X34873Y31994D01*
X34865Y31972D01*
X34858Y31959D01*
X34854Y31954D01*
X34844Y31953D01*
X34844Y31953D01*
X34755D01*
Y31856D01*
X34754Y31852D01*
X34755Y31848D01*
Y31840D01*
X34755Y31840D01*
X34755Y31840D01*
Y31163D01*
X34995D01*
X34999Y31162D01*
X35002Y31163D01*
X35137D01*
X35158Y31151D01*
X35201Y31121D01*
X35311Y31028D01*
X35362Y30979D01*
X35457Y30883D01*
X35424Y30846D01*
X35402Y30863D01*
X35349Y30903D01*
X35253Y30943D01*
X35150Y30957D01*
X35047Y30943D01*
X34951Y30903D01*
X34868Y30840D01*
X34805Y30757D01*
X34765Y30661D01*
X34751Y30558D01*
X34765Y30455D01*
X34805Y30359D01*
X34868Y30276D01*
X34872Y30273D01*
X34874Y30268D01*
X34877Y30259D01*
X34881Y30246D01*
X34884Y30229D01*
X34887Y30210D01*
X34890Y30159D01*
X34890Y30147D01*
Y28296D01*
X34889Y28250D01*
X34885Y28203D01*
X34879Y28165D01*
X34871Y28135D01*
X34862Y28113D01*
X34854Y28100D01*
X34849Y28095D01*
X34846Y28093D01*
X34842Y28091D01*
X34834Y28091D01*
X34459D01*
Y27716D01*
X34459Y27708D01*
X34457Y27704D01*
X34455Y27701D01*
X34450Y27696D01*
X34437Y27688D01*
X34415Y27680D01*
X34385Y27671D01*
X34347Y27665D01*
X34300Y27661D01*
X34254Y27660D01*
X33620D01*
X33553Y27651D01*
X33491Y27625D01*
X33437Y27584D01*
X23863Y18010D01*
X15885D01*
X15865Y18010D01*
X15837Y18012D01*
X15812Y18015D01*
X15790Y18019D01*
X15770Y18024D01*
X15754Y18030D01*
X15740Y18036D01*
X15728Y18043D01*
X15719Y18049D01*
X15716Y18052D01*
X15710Y18060D01*
X15619Y18130D01*
X15513Y18173D01*
X15400Y18188D01*
X15390Y18187D01*
X15386Y18187D01*
X15375Y18189D01*
X15362Y18193D01*
X15348Y18198D01*
X15332Y18206D01*
X15315Y18216D01*
X15297Y18228D01*
X15254Y18264D01*
X15241Y18277D01*
X15215Y18302D01*
X15244Y18344D01*
X15287Y18327D01*
X15350Y18318D01*
Y18700D01*
X14968D01*
X14977Y18637D01*
X14994Y18594D01*
X14952Y18565D01*
X14610Y18908D01*
Y34892D01*
X14893Y35175D01*
X15008Y35282D01*
X15058Y35322D01*
X15103Y35354D01*
X15123Y35365D01*
X15258D01*
X15262Y35365D01*
X15266Y35365D01*
X15585D01*
Y36235D01*
X14715D01*
Y35916D01*
X14715Y35912D01*
X14715Y35908D01*
Y35773D01*
X14704Y35753D01*
X14673Y35709D01*
X14602Y35625D01*
X14559Y35651D01*
X14573Y35687D01*
X14582Y35750D01*
X14200D01*
Y35368D01*
X14263Y35377D01*
X14306Y35394D01*
X14335Y35352D01*
X14166Y35184D01*
X14125Y35130D01*
X14099Y35067D01*
X14090Y35000D01*
Y18800D01*
X14099Y18733D01*
X14125Y18670D01*
X14166Y18616D01*
X14873Y17909D01*
X14887Y17895D01*
X14905Y17874D01*
X14921Y17854D01*
X14934Y17835D01*
X14944Y17818D01*
X14952Y17802D01*
X14957Y17788D01*
X14961Y17775D01*
X14963Y17764D01*
X14963Y17760D01*
X14962Y17750D01*
X14977Y17637D01*
X15020Y17531D01*
X15090Y17440D01*
X15181Y17370D01*
X15287Y17327D01*
X15400Y17312D01*
X15513Y17327D01*
X15619Y17370D01*
X15710Y17440D01*
X15716Y17448D01*
X15719Y17451D01*
X15728Y17457D01*
X15740Y17464D01*
X15754Y17470D01*
X15770Y17476D01*
X15790Y17481D01*
X15811Y17485D01*
X15867Y17490D01*
X15885Y17490D01*
X23970D01*
X24038Y17499D01*
X24100Y17525D01*
X24154Y17566D01*
X33728Y27140D01*
X34254D01*
X34300Y27139D01*
X34347Y27135D01*
X34385Y27129D01*
X34415Y27120D01*
X34437Y27112D01*
X34450Y27104D01*
X34455Y27099D01*
X34457Y27096D01*
X34459Y27092D01*
X34459Y27084D01*
Y26709D01*
X34824D01*
X34824Y26709D01*
X34842Y26707D01*
X34846Y26706D01*
X34849Y26704D01*
X34854Y26698D01*
X34862Y26686D01*
X34871Y26665D01*
X34879Y26635D01*
X34885Y26596D01*
X34889Y26550D01*
X34890Y26504D01*
Y26321D01*
X34888Y26284D01*
X34882Y26243D01*
X34872Y26203D01*
X34857Y26161D01*
X34838Y26119D01*
X34813Y26076D01*
X34784Y26031D01*
X34750Y25987D01*
X34710Y25941D01*
X34669Y25899D01*
X34659Y25891D01*
X34573Y25786D01*
X34509Y25666D01*
X34469Y25535D01*
X34456Y25400D01*
X34469Y25265D01*
X34509Y25134D01*
X34573Y25014D01*
X34659Y24909D01*
X34764Y24823D01*
X34884Y24759D01*
X35015Y24719D01*
X35150Y24706D01*
X35285Y24719D01*
X35416Y24759D01*
X35536Y24823D01*
X35641Y24909D01*
X35727Y25014D01*
X35791Y25134D01*
X35831Y25265D01*
X35844Y25400D01*
X35831Y25535D01*
X35791Y25666D01*
X35727Y25786D01*
X35641Y25891D01*
X35631Y25899D01*
X35590Y25941D01*
X35550Y25987D01*
X35516Y26031D01*
X35487Y26076D01*
X35462Y26119D01*
X35443Y26161D01*
X35428Y26203D01*
X35418Y26243D01*
X35412Y26284D01*
X35410Y26321D01*
Y26504D01*
X35411Y26550D01*
X35415Y26596D01*
X35421Y26635D01*
X35429Y26665D01*
X35438Y26686D01*
X35446Y26698D01*
X35451Y26704D01*
X35454Y26706D01*
X35458Y26707D01*
X35476Y26709D01*
X35476Y26709D01*
X35841D01*
Y28091D01*
X35466D01*
X35458Y28091D01*
X35454Y28093D01*
X35451Y28095D01*
X35446Y28100D01*
X35438Y28113D01*
X35429Y28135D01*
X35421Y28165D01*
X35415Y28203D01*
X35411Y28250D01*
X35410Y28296D01*
Y30147D01*
X35410Y30159D01*
X35413Y30210D01*
X35416Y30229D01*
X35419Y30246D01*
X35423Y30259D01*
X35426Y30268D01*
X35428Y30273D01*
X35432Y30276D01*
X35495Y30359D01*
X35535Y30455D01*
X35549Y30558D01*
X35535Y30661D01*
X35495Y30757D01*
X35455Y30810D01*
X35438Y30832D01*
X35476Y30865D01*
X36630Y29711D01*
Y21989D01*
X36628Y21940D01*
X36622Y21887D01*
X36613Y21837D01*
X36599Y21788D01*
X36582Y21742D01*
X36561Y21696D01*
X36537Y21653D01*
X36508Y21610D01*
X36475Y21569D01*
X36441Y21533D01*
X34595Y19687D01*
X34553Y19648D01*
X34534Y19633D01*
X34515Y19619D01*
X34497Y19609D01*
X34481Y19600D01*
X34466Y19594D01*
X34453Y19590D01*
X34442Y19587D01*
X34426Y19586D01*
X34423Y19585D01*
X34337Y19573D01*
X34231Y19530D01*
X34140Y19460D01*
X34070Y19369D01*
X34027Y19263D01*
X34012Y19150D01*
X34027Y19037D01*
X34070Y18931D01*
X34140Y18840D01*
X34231Y18770D01*
X34337Y18727D01*
X34450Y18712D01*
X34563Y18727D01*
X34669Y18770D01*
X34760Y18840D01*
X34830Y18931D01*
X34873Y19037D01*
X34888Y19150D01*
X34886Y19170D01*
X34886Y19171D01*
X34886Y19186D01*
X34887Y19197D01*
X34890Y19209D01*
X34895Y19222D01*
X34902Y19238D01*
X34912Y19254D01*
X34923Y19272D01*
X34958Y19315D01*
X34971Y19328D01*
X36580Y20937D01*
X36607Y20933D01*
X36630Y20916D01*
Y6958D01*
X35282Y5610D01*
X34081D01*
X34047Y5610D01*
X33951Y5616D01*
X33917Y5620D01*
X33889Y5625D01*
Y5679D01*
X33792D01*
X33788Y5680D01*
X33784Y5679D01*
X33216D01*
X33212Y5680D01*
X33208Y5679D01*
X33111D01*
Y5622D01*
X33102Y5620D01*
X32994Y5610D01*
X32967Y5610D01*
X32949D01*
X32946Y5610D01*
X32885D01*
X32865Y5610D01*
X32837Y5612D01*
X32812Y5615D01*
X32790Y5619D01*
X32770Y5624D01*
X32754Y5630D01*
X32740Y5636D01*
X32728Y5643D01*
X32719Y5649D01*
X32716Y5652D01*
X32710Y5660D01*
X32619Y5730D01*
X32513Y5773D01*
X32400Y5788D01*
X32287Y5773D01*
X32181Y5730D01*
X32090Y5660D01*
X32020Y5569D01*
X31977Y5463D01*
X31962Y5350D01*
X31977Y5237D01*
X32020Y5131D01*
X32090Y5040D01*
X32181Y4970D01*
X32287Y4927D01*
X32400Y4912D01*
X32513Y4927D01*
X32619Y4970D01*
X32710Y5040D01*
X32716Y5048D01*
X32719Y5051D01*
X32728Y5057D01*
X32740Y5064D01*
X32754Y5070D01*
X32770Y5076D01*
X32790Y5081D01*
X32811Y5085D01*
X32867Y5090D01*
X32885Y5090D01*
X32949D01*
X32952Y5091D01*
X32957D01*
X33038Y5088D01*
X33071Y5085D01*
X33099Y5081D01*
X33111Y5079D01*
Y5028D01*
X33111Y5022D01*
Y4978D01*
X33111Y4972D01*
Y4700D01*
X33500D01*
X33788D01*
Y4877D01*
X33792Y4871D01*
X33804Y4865D01*
X33824Y4860D01*
X33851Y4856D01*
X33889Y4853D01*
Y4972D01*
X33889Y4978D01*
Y5022D01*
X33889Y5028D01*
Y5076D01*
X33914Y5080D01*
X34048Y5090D01*
X34081Y5091D01*
X35390D01*
X35457Y5100D01*
X35520Y5125D01*
X35573Y5167D01*
X37073Y6667D01*
X37115Y6721D01*
X37141Y6783D01*
X37149Y6850D01*
Y21614D01*
Y29818D01*
X37141Y29885D01*
X37115Y29948D01*
X37073Y30002D01*
X35735Y31340D01*
X35628Y31455D01*
X35588Y31505D01*
X35557Y31550D01*
X35545Y31571D01*
Y31705D01*
X35546Y31709D01*
X35545Y31713D01*
Y31840D01*
X35545Y31840D01*
X35545Y31840D01*
Y31848D01*
X35546Y31852D01*
X35545Y31856D01*
Y31953D01*
X35456D01*
X35456Y31953D01*
X35446Y31954D01*
X35442Y31959D01*
X35435Y31972D01*
X35427Y31994D01*
X35420Y32025D01*
X35414Y32065D01*
X35411Y32112D01*
X35410Y32157D01*
Y33426D01*
X35429Y33451D01*
X35431Y33456D01*
X35505Y33464D01*
X35635Y33503D01*
X35755Y33567D01*
X35861Y33654D01*
X35947Y33759D01*
X36011Y33879D01*
X36051Y34009D01*
X36064Y34144D01*
X36051Y34280D01*
X36011Y34410D01*
X35947Y34530D01*
X35861Y34635D01*
X35755Y34721D01*
X35743Y34728D01*
X35697Y34760D01*
X35655Y34793D01*
X35619Y34828D01*
X35589Y34862D01*
X35564Y34898D01*
X35544Y34933D01*
X35529Y34970D01*
X35518Y35007D01*
X35512Y35047D01*
X35510Y35086D01*
Y35249D01*
X35511Y35294D01*
X35515Y35340D01*
X35521Y35379D01*
X35529Y35409D01*
X35538Y35430D01*
X35546Y35443D01*
X35551Y35448D01*
X35554Y35450D01*
X35558Y35452D01*
X35576Y35453D01*
X35576Y35454D01*
X36061D01*
Y36835D01*
D02*
G37*
G36*
X26385Y36935D02*
X25515D01*
Y36065D01*
X25765D01*
X25767Y36053D01*
X25768Y36043D01*
Y35719D01*
X25768Y35719D01*
X25768Y35717D01*
Y35388D01*
X25727Y35339D01*
X25628D01*
X25622Y35339D01*
X25578D01*
X25572Y35339D01*
X24921D01*
Y35135D01*
X24909Y35133D01*
X24899Y35132D01*
X24564D01*
X24545Y35136D01*
X24523Y35143D01*
X24499Y35153D01*
X24472Y35167D01*
X24443Y35186D01*
X24413Y35207D01*
X24344Y35267D01*
X24317Y35293D01*
X24307Y35307D01*
X24202Y35387D01*
X24081Y35437D01*
X23950Y35454D01*
X23819Y35437D01*
X23698Y35387D01*
X23593Y35307D01*
X23513Y35202D01*
X23463Y35081D01*
X23446Y34950D01*
X23463Y34819D01*
X23513Y34698D01*
X23593Y34593D01*
X23698Y34513D01*
X23819Y34463D01*
X23950Y34446D01*
X24081Y34463D01*
X24202Y34513D01*
X24307Y34593D01*
X24316Y34606D01*
X24380Y34666D01*
X24412Y34692D01*
X24443Y34714D01*
X24472Y34733D01*
X24499Y34747D01*
X24523Y34757D01*
X24545Y34764D01*
X24564Y34768D01*
X24899D01*
X24909Y34767D01*
X24921Y34765D01*
Y34561D01*
X25572D01*
X25578Y34561D01*
X25622D01*
X25628Y34561D01*
X26279D01*
Y35339D01*
X26136D01*
X26134Y35352D01*
X26133Y35362D01*
Y35719D01*
X26133Y35719D01*
X26132Y35721D01*
Y36043D01*
X26133Y36053D01*
X26135Y36065D01*
X26385D01*
Y36935D01*
D02*
G37*
G36*
X34150Y31957D02*
X34047Y31943D01*
X33951Y31903D01*
X33868Y31840D01*
X33805Y31757D01*
X33765Y31661D01*
X33751Y31558D01*
X33765Y31455D01*
X33805Y31359D01*
X33868Y31276D01*
X33951Y31213D01*
X34047Y31173D01*
X34150Y31159D01*
X34253Y31173D01*
X34349Y31213D01*
X34432Y31276D01*
X34495Y31359D01*
X34535Y31455D01*
X34549Y31558D01*
X34535Y31661D01*
X34495Y31757D01*
X34432Y31840D01*
X34349Y31903D01*
X34253Y31943D01*
X34150Y31957D01*
D02*
G37*
G36*
X33150D02*
X33047Y31943D01*
X32951Y31903D01*
X32868Y31840D01*
X32805Y31757D01*
X32765Y31661D01*
X32751Y31558D01*
X32765Y31455D01*
X32805Y31359D01*
X32868Y31276D01*
X32951Y31213D01*
X33047Y31173D01*
X33150Y31159D01*
X33253Y31173D01*
X33349Y31213D01*
X33432Y31276D01*
X33495Y31359D01*
X33535Y31455D01*
X33549Y31558D01*
X33535Y31661D01*
X33495Y31757D01*
X33432Y31840D01*
X33349Y31903D01*
X33253Y31943D01*
X33150Y31957D01*
D02*
G37*
G36*
X32150D02*
X32047Y31943D01*
X31951Y31903D01*
X31868Y31840D01*
X31805Y31757D01*
X31765Y31661D01*
X31751Y31558D01*
X31765Y31455D01*
X31805Y31359D01*
X31868Y31276D01*
X31951Y31213D01*
X32047Y31173D01*
X32150Y31159D01*
X32253Y31173D01*
X32349Y31213D01*
X32432Y31276D01*
X32495Y31359D01*
X32535Y31455D01*
X32549Y31558D01*
X32535Y31661D01*
X32495Y31757D01*
X32432Y31840D01*
X32349Y31903D01*
X32253Y31943D01*
X32150Y31957D01*
D02*
G37*
G36*
X31150D02*
X31047Y31943D01*
X30951Y31903D01*
X30868Y31840D01*
X30805Y31757D01*
X30765Y31661D01*
X30751Y31558D01*
X30765Y31455D01*
X30805Y31359D01*
X30868Y31276D01*
X30951Y31213D01*
X31047Y31173D01*
X31150Y31159D01*
X31253Y31173D01*
X31349Y31213D01*
X31432Y31276D01*
X31495Y31359D01*
X31535Y31455D01*
X31549Y31558D01*
X31535Y31661D01*
X31495Y31757D01*
X31432Y31840D01*
X31349Y31903D01*
X31253Y31943D01*
X31150Y31957D01*
D02*
G37*
G36*
X30150D02*
X30047Y31943D01*
X29951Y31903D01*
X29868Y31840D01*
X29805Y31757D01*
X29765Y31661D01*
X29751Y31558D01*
X29765Y31455D01*
X29805Y31359D01*
X29868Y31276D01*
X29951Y31213D01*
X30047Y31173D01*
X30150Y31159D01*
X30253Y31173D01*
X30349Y31213D01*
X30432Y31276D01*
X30495Y31359D01*
X30535Y31455D01*
X30549Y31558D01*
X30535Y31661D01*
X30495Y31757D01*
X30432Y31840D01*
X30349Y31903D01*
X30253Y31943D01*
X30150Y31957D01*
D02*
G37*
G36*
X27150D02*
X27047Y31943D01*
X26951Y31903D01*
X26868Y31840D01*
X26805Y31757D01*
X26765Y31661D01*
X26751Y31558D01*
X26765Y31455D01*
X26805Y31359D01*
X26868Y31276D01*
X26951Y31213D01*
X27047Y31173D01*
X27150Y31159D01*
X27253Y31173D01*
X27349Y31213D01*
X27432Y31276D01*
X27495Y31359D01*
X27535Y31455D01*
X27549Y31558D01*
X27535Y31661D01*
X27495Y31757D01*
X27432Y31840D01*
X27349Y31903D01*
X27253Y31943D01*
X27150Y31957D01*
D02*
G37*
G36*
X26150D02*
X26047Y31943D01*
X25951Y31903D01*
X25868Y31840D01*
X25805Y31757D01*
X25765Y31661D01*
X25751Y31558D01*
X25765Y31455D01*
X25805Y31359D01*
X25868Y31276D01*
X25951Y31213D01*
X26047Y31173D01*
X26150Y31159D01*
X26253Y31173D01*
X26349Y31213D01*
X26432Y31276D01*
X26495Y31359D01*
X26535Y31455D01*
X26549Y31558D01*
X26535Y31661D01*
X26495Y31757D01*
X26432Y31840D01*
X26349Y31903D01*
X26253Y31943D01*
X26150Y31957D01*
D02*
G37*
G36*
X34200Y30950D02*
Y30608D01*
X34542D01*
X34535Y30661D01*
X34495Y30757D01*
X34432Y30840D01*
X34349Y30903D01*
X34253Y30943D01*
X34200Y30950D01*
D02*
G37*
G36*
X34100Y30950D02*
X34047Y30943D01*
X33951Y30903D01*
X33868Y30840D01*
X33805Y30757D01*
X33765Y30661D01*
X33758Y30608D01*
X34100D01*
Y30950D01*
D02*
G37*
G36*
X15835Y31185D02*
X14965D01*
Y30315D01*
X15835D01*
Y31185D01*
D02*
G37*
G36*
X34542Y30508D02*
X34200D01*
Y30166D01*
X34253Y30173D01*
X34349Y30213D01*
X34432Y30276D01*
X34495Y30359D01*
X34535Y30455D01*
X34542Y30508D01*
D02*
G37*
G36*
X34100D02*
X33758D01*
X33765Y30455D01*
X33805Y30359D01*
X33868Y30276D01*
X33951Y30213D01*
X34047Y30173D01*
X34100Y30166D01*
Y30508D01*
D02*
G37*
G36*
X33150Y30957D02*
X33047Y30943D01*
X32951Y30903D01*
X32868Y30840D01*
X32805Y30757D01*
X32765Y30661D01*
X32751Y30558D01*
X32753Y30548D01*
X32752Y30524D01*
X32750Y30497D01*
X32747Y30472D01*
X32743Y30450D01*
X32737Y30430D01*
X32730Y30412D01*
X32723Y30396D01*
X32715Y30382D01*
X32708Y30374D01*
X29007Y26672D01*
X28975Y26685D01*
X28961Y26698D01*
X28972Y26779D01*
X28961Y26866D01*
X28927Y26948D01*
X28878Y27011D01*
X28873Y27019D01*
X28873Y27019D01*
X28873Y27019D01*
X28809Y27083D01*
X28831Y27128D01*
X28836Y27127D01*
X28924Y27139D01*
X29006Y27173D01*
X29069Y27221D01*
X29076Y27226D01*
X29558Y27708D01*
X29558Y27708D01*
X31966Y30116D01*
X31975Y30122D01*
X31988Y30131D01*
X32004Y30138D01*
X32022Y30145D01*
X32042Y30150D01*
X32065Y30155D01*
X32089Y30158D01*
X32117Y30160D01*
X32140Y30161D01*
X32150Y30159D01*
X32253Y30173D01*
X32349Y30213D01*
X32432Y30276D01*
X32495Y30359D01*
X32535Y30455D01*
X32549Y30558D01*
X32535Y30661D01*
X32495Y30757D01*
X32432Y30840D01*
X32349Y30903D01*
X32253Y30943D01*
X32150Y30957D01*
X32047Y30943D01*
X31951Y30903D01*
X31868Y30840D01*
X31805Y30757D01*
X31765Y30661D01*
X31751Y30558D01*
X31753Y30548D01*
X31752Y30524D01*
X31750Y30497D01*
X31747Y30472D01*
X31743Y30450D01*
X31737Y30430D01*
X31730Y30412D01*
X31723Y30396D01*
X31715Y30382D01*
X31708Y30374D01*
X29300Y27966D01*
X29300Y27966D01*
X28835Y27501D01*
X28834Y27501D01*
X28834Y27501D01*
X28825Y27505D01*
X28783Y27538D01*
X28701Y27571D01*
X28613Y27583D01*
X28530Y27572D01*
X28526Y27576D01*
X28518Y27630D01*
X28827Y27939D01*
X28827Y27939D01*
X30279Y29391D01*
X30279Y29391D01*
X30318Y29450D01*
X30332Y29520D01*
Y30115D01*
X30334Y30126D01*
X30338Y30142D01*
X30344Y30158D01*
X30352Y30175D01*
X30362Y30193D01*
X30375Y30213D01*
X30390Y30232D01*
X30408Y30253D01*
X30424Y30270D01*
X30432Y30276D01*
X30495Y30359D01*
X30535Y30455D01*
X30549Y30558D01*
X30535Y30661D01*
X30495Y30757D01*
X30432Y30840D01*
X30349Y30903D01*
X30253Y30943D01*
X30150Y30957D01*
X30047Y30943D01*
X29951Y30903D01*
X29868Y30840D01*
X29805Y30757D01*
X29765Y30661D01*
X29751Y30558D01*
X29765Y30455D01*
X29805Y30359D01*
X29868Y30276D01*
X29876Y30270D01*
X29892Y30253D01*
X29910Y30232D01*
X29925Y30213D01*
X29938Y30193D01*
X29948Y30175D01*
X29956Y30158D01*
X29962Y30142D01*
X29966Y30126D01*
X29968Y30115D01*
Y29596D01*
X28569Y28197D01*
X28569Y28197D01*
X27816Y27444D01*
X27624Y27636D01*
X27624Y27636D01*
X27624Y27636D01*
X27616Y27641D01*
X27553Y27690D01*
X27471Y27724D01*
X27383Y27735D01*
X27296Y27724D01*
X27214Y27690D01*
X27151Y27641D01*
X27143Y27636D01*
X27138Y27629D01*
X27090Y27566D01*
X27056Y27484D01*
X27044Y27396D01*
X27053Y27325D01*
X27026Y27296D01*
X27023Y27293D01*
X27010Y27287D01*
X26930Y27298D01*
X26842Y27286D01*
X26760Y27252D01*
X26697Y27204D01*
X26690Y27199D01*
X26685Y27191D01*
X26636Y27128D01*
X26602Y27046D01*
X26591Y26959D01*
X26601Y26883D01*
X26587Y26863D01*
X26580Y26856D01*
X26560Y26842D01*
X26485Y26852D01*
X26397Y26841D01*
X26315Y26807D01*
X26252Y26758D01*
X26244Y26753D01*
X26239Y26746D01*
X26191Y26683D01*
X26157Y26601D01*
X26145Y26513D01*
X26157Y26425D01*
X26191Y26344D01*
X26239Y26281D01*
X26244Y26273D01*
X26244Y26273D01*
X26420Y26098D01*
Y26048D01*
X26407Y26034D01*
X22304Y21932D01*
X15908D01*
X15894Y21935D01*
X15876Y21940D01*
X15856Y21947D01*
X15835Y21957D01*
X15813Y21971D01*
X15791Y21986D01*
X15738Y22030D01*
X15718Y22050D01*
X15710Y22060D01*
X15619Y22130D01*
X15513Y22173D01*
X15400Y22188D01*
X15287Y22173D01*
X15181Y22130D01*
X15090Y22060D01*
X15020Y21969D01*
X14977Y21863D01*
X14962Y21750D01*
X14977Y21637D01*
X15020Y21531D01*
X15090Y21440D01*
X15181Y21370D01*
X15287Y21327D01*
X15400Y21312D01*
X15513Y21327D01*
X15619Y21370D01*
X15710Y21440D01*
X15718Y21450D01*
X15739Y21471D01*
X15765Y21493D01*
X15789Y21513D01*
X15813Y21529D01*
X15835Y21543D01*
X15856Y21553D01*
X15876Y21560D01*
X15894Y21565D01*
X15908Y21568D01*
X22380D01*
X22380Y21568D01*
X22450Y21582D01*
X22509Y21621D01*
X26664Y25777D01*
X26720Y25832D01*
X26720Y25832D01*
X26720Y25832D01*
X26725Y25840D01*
X26773Y25903D01*
X26807Y25985D01*
X26819Y26073D01*
X26813Y26114D01*
X26859Y26149D01*
X26893Y26135D01*
X26981Y26123D01*
X27069Y26135D01*
X27150Y26169D01*
X27213Y26217D01*
X27221Y26222D01*
X27226Y26230D01*
X27275Y26293D01*
X27308Y26375D01*
X27320Y26462D01*
X27310Y26538D01*
X27324Y26558D01*
X27330Y26565D01*
X27351Y26579D01*
X27426Y26569D01*
X27514Y26580D01*
X27596Y26614D01*
X27659Y26662D01*
X27666Y26667D01*
X27672Y26675D01*
X27720Y26738D01*
X27754Y26820D01*
X27765Y26908D01*
X27754Y26995D01*
X27740Y27029D01*
X27775Y27075D01*
X27816Y27070D01*
X27894Y27080D01*
X27910Y27059D01*
X27913Y27055D01*
X27920Y27035D01*
X27919Y27034D01*
X27871Y26971D01*
X27837Y26890D01*
X27825Y26802D01*
X27837Y26714D01*
X27871Y26632D01*
X27912Y26578D01*
X27872Y26538D01*
X27872Y26538D01*
X22267Y20932D01*
X15908D01*
X15894Y20935D01*
X15876Y20940D01*
X15856Y20947D01*
X15835Y20957D01*
X15813Y20971D01*
X15791Y20986D01*
X15738Y21030D01*
X15718Y21050D01*
X15710Y21060D01*
X15619Y21130D01*
X15513Y21173D01*
X15400Y21188D01*
X15287Y21173D01*
X15181Y21130D01*
X15090Y21060D01*
X15020Y20969D01*
X14977Y20863D01*
X14962Y20750D01*
X14977Y20637D01*
X15020Y20531D01*
X15090Y20440D01*
X15181Y20370D01*
X15287Y20327D01*
X15400Y20312D01*
X15513Y20327D01*
X15619Y20370D01*
X15710Y20440D01*
X15718Y20450D01*
X15739Y20471D01*
X15765Y20493D01*
X15789Y20513D01*
X15813Y20529D01*
X15835Y20543D01*
X15856Y20553D01*
X15876Y20560D01*
X15894Y20565D01*
X15908Y20568D01*
X22342D01*
X22342Y20568D01*
X22412Y20582D01*
X22471Y20621D01*
X28130Y26280D01*
X28130Y26280D01*
X28185Y26335D01*
X28185Y26335D01*
X28185Y26335D01*
X28190Y26343D01*
X28239Y26406D01*
X28273Y26488D01*
X28284Y26576D01*
X28284Y26581D01*
X28328Y26603D01*
X28393Y26538D01*
X28400Y26533D01*
X28463Y26485D01*
X28545Y26451D01*
X28633Y26440D01*
X28714Y26450D01*
X28727Y26436D01*
X28739Y26405D01*
X22267Y19932D01*
X15908D01*
X15894Y19935D01*
X15876Y19940D01*
X15856Y19947D01*
X15835Y19957D01*
X15813Y19971D01*
X15791Y19986D01*
X15738Y20030D01*
X15718Y20050D01*
X15710Y20060D01*
X15619Y20130D01*
X15513Y20173D01*
X15400Y20188D01*
X15287Y20173D01*
X15181Y20130D01*
X15090Y20060D01*
X15020Y19969D01*
X14977Y19863D01*
X14962Y19750D01*
X14977Y19637D01*
X15020Y19531D01*
X15090Y19440D01*
X15181Y19370D01*
X15287Y19327D01*
X15400Y19312D01*
X15513Y19327D01*
X15619Y19370D01*
X15710Y19440D01*
X15718Y19450D01*
X15739Y19471D01*
X15765Y19493D01*
X15789Y19513D01*
X15813Y19529D01*
X15835Y19543D01*
X15856Y19553D01*
X15876Y19560D01*
X15894Y19565D01*
X15908Y19568D01*
X22342D01*
X22342Y19568D01*
X22412Y19582D01*
X22471Y19621D01*
X32966Y30116D01*
X32975Y30122D01*
X32989Y30131D01*
X33004Y30138D01*
X33022Y30145D01*
X33042Y30150D01*
X33065Y30155D01*
X33089Y30158D01*
X33117Y30160D01*
X33140Y30161D01*
X33150Y30159D01*
X33253Y30173D01*
X33349Y30213D01*
X33432Y30276D01*
X33495Y30359D01*
X33535Y30455D01*
X33549Y30558D01*
X33535Y30661D01*
X33495Y30757D01*
X33432Y30840D01*
X33349Y30903D01*
X33253Y30943D01*
X33150Y30957D01*
D02*
G37*
G36*
X31150D02*
X31047Y30943D01*
X30951Y30903D01*
X30868Y30840D01*
X30805Y30757D01*
X30765Y30661D01*
X30751Y30558D01*
X30765Y30455D01*
X30805Y30359D01*
X30868Y30276D01*
X30951Y30213D01*
X31047Y30173D01*
X31150Y30159D01*
X31253Y30173D01*
X31349Y30213D01*
X31432Y30276D01*
X31495Y30359D01*
X31535Y30455D01*
X31549Y30558D01*
X31535Y30661D01*
X31495Y30757D01*
X31432Y30840D01*
X31349Y30903D01*
X31253Y30943D01*
X31150Y30957D01*
D02*
G37*
G36*
X29150D02*
X29047Y30943D01*
X28951Y30903D01*
X28868Y30840D01*
X28805Y30757D01*
X28765Y30661D01*
X28751Y30558D01*
X28765Y30455D01*
X28805Y30359D01*
X28868Y30276D01*
X28951Y30213D01*
X29047Y30173D01*
X29150Y30159D01*
X29253Y30173D01*
X29349Y30213D01*
X29432Y30276D01*
X29495Y30359D01*
X29535Y30455D01*
X29549Y30558D01*
X29535Y30661D01*
X29495Y30757D01*
X29432Y30840D01*
X29349Y30903D01*
X29253Y30943D01*
X29150Y30957D01*
D02*
G37*
G36*
X27150D02*
X27047Y30943D01*
X26951Y30903D01*
X26868Y30840D01*
X26805Y30757D01*
X26765Y30661D01*
X26751Y30558D01*
X26765Y30455D01*
X26805Y30359D01*
X26868Y30276D01*
X26951Y30213D01*
X27047Y30173D01*
X27150Y30159D01*
X27253Y30173D01*
X27349Y30213D01*
X27432Y30276D01*
X27495Y30359D01*
X27535Y30455D01*
X27549Y30558D01*
X27535Y30661D01*
X27495Y30757D01*
X27432Y30840D01*
X27349Y30903D01*
X27253Y30943D01*
X27150Y30957D01*
D02*
G37*
G36*
X26150D02*
X26047Y30943D01*
X25951Y30903D01*
X25868Y30840D01*
X25805Y30757D01*
X25765Y30661D01*
X25751Y30558D01*
X25765Y30455D01*
X25805Y30359D01*
X25868Y30276D01*
X25951Y30213D01*
X26047Y30173D01*
X26150Y30159D01*
X26253Y30173D01*
X26349Y30213D01*
X26432Y30276D01*
X26495Y30359D01*
X26535Y30455D01*
X26549Y30558D01*
X26535Y30661D01*
X26495Y30757D01*
X26432Y30840D01*
X26349Y30903D01*
X26253Y30943D01*
X26150Y30957D01*
D02*
G37*
G36*
X15400Y30188D02*
X15287Y30173D01*
X15181Y30130D01*
X15090Y30060D01*
X15020Y29969D01*
X14977Y29863D01*
X14962Y29750D01*
X14977Y29637D01*
X15020Y29531D01*
X15090Y29440D01*
X15181Y29370D01*
X15287Y29327D01*
X15400Y29312D01*
X15513Y29327D01*
X15619Y29370D01*
X15710Y29440D01*
X15780Y29531D01*
X15823Y29637D01*
X15838Y29750D01*
X15823Y29863D01*
X15780Y29969D01*
X15710Y30060D01*
X15619Y30130D01*
X15513Y30173D01*
X15400Y30188D01*
D02*
G37*
G36*
Y29188D02*
X15287Y29173D01*
X15181Y29130D01*
X15090Y29060D01*
X15020Y28969D01*
X14977Y28863D01*
X14962Y28750D01*
X14977Y28637D01*
X15020Y28531D01*
X15090Y28440D01*
X15181Y28370D01*
X15287Y28327D01*
X15400Y28312D01*
X15513Y28327D01*
X15619Y28370D01*
X15710Y28440D01*
X15780Y28531D01*
X15823Y28637D01*
X15838Y28750D01*
X15823Y28863D01*
X15780Y28969D01*
X15710Y29060D01*
X15619Y29130D01*
X15513Y29173D01*
X15400Y29188D01*
D02*
G37*
G36*
Y28188D02*
X15287Y28173D01*
X15181Y28130D01*
X15090Y28060D01*
X15020Y27969D01*
X14977Y27863D01*
X14962Y27750D01*
X14977Y27637D01*
X15020Y27531D01*
X15090Y27440D01*
X15181Y27370D01*
X15287Y27327D01*
X15400Y27312D01*
X15513Y27327D01*
X15619Y27370D01*
X15710Y27440D01*
X15780Y27531D01*
X15823Y27637D01*
X15838Y27750D01*
X15823Y27863D01*
X15780Y27969D01*
X15710Y28060D01*
X15619Y28130D01*
X15513Y28173D01*
X15400Y28188D01*
D02*
G37*
G36*
Y27188D02*
X15287Y27173D01*
X15181Y27130D01*
X15090Y27060D01*
X15020Y26969D01*
X14977Y26863D01*
X14962Y26750D01*
X14977Y26637D01*
X15020Y26531D01*
X15090Y26440D01*
X15181Y26370D01*
X15287Y26327D01*
X15400Y26312D01*
X15513Y26327D01*
X15619Y26370D01*
X15710Y26440D01*
X15780Y26531D01*
X15823Y26637D01*
X15838Y26750D01*
X15823Y26863D01*
X15780Y26969D01*
X15710Y27060D01*
X15619Y27130D01*
X15513Y27173D01*
X15400Y27188D01*
D02*
G37*
G36*
Y26188D02*
X15287Y26173D01*
X15181Y26130D01*
X15090Y26060D01*
X15020Y25969D01*
X14977Y25863D01*
X14962Y25750D01*
X14977Y25637D01*
X15020Y25531D01*
X15090Y25440D01*
X15181Y25370D01*
X15287Y25327D01*
X15400Y25312D01*
X15513Y25327D01*
X15619Y25370D01*
X15710Y25440D01*
X15780Y25531D01*
X15823Y25637D01*
X15838Y25750D01*
X15823Y25863D01*
X15780Y25969D01*
X15710Y26060D01*
X15619Y26130D01*
X15513Y26173D01*
X15400Y26188D01*
D02*
G37*
G36*
Y25188D02*
X15287Y25173D01*
X15181Y25130D01*
X15090Y25060D01*
X15020Y24969D01*
X14977Y24863D01*
X14962Y24750D01*
X14977Y24637D01*
X15020Y24531D01*
X15090Y24440D01*
X15181Y24370D01*
X15287Y24327D01*
X15400Y24312D01*
X15513Y24327D01*
X15619Y24370D01*
X15710Y24440D01*
X15780Y24531D01*
X15823Y24637D01*
X15838Y24750D01*
X15823Y24863D01*
X15780Y24969D01*
X15710Y25060D01*
X15619Y25130D01*
X15513Y25173D01*
X15400Y25188D01*
D02*
G37*
G36*
Y24188D02*
X15287Y24173D01*
X15181Y24130D01*
X15090Y24060D01*
X15020Y23969D01*
X14977Y23863D01*
X14962Y23750D01*
X14977Y23637D01*
X15020Y23531D01*
X15090Y23440D01*
X15181Y23370D01*
X15287Y23327D01*
X15400Y23312D01*
X15513Y23327D01*
X15619Y23370D01*
X15710Y23440D01*
X15780Y23531D01*
X15823Y23637D01*
X15838Y23750D01*
X15823Y23863D01*
X15780Y23969D01*
X15710Y24060D01*
X15619Y24130D01*
X15513Y24173D01*
X15400Y24188D01*
D02*
G37*
G36*
X31575Y24021D02*
X31436Y24007D01*
X31302Y23966D01*
X31178Y23900D01*
X31070Y23812D01*
X30981Y23704D01*
X30915Y23580D01*
X30875Y23446D01*
X30861Y23307D01*
X30875Y23168D01*
X30915Y23034D01*
X30981Y22911D01*
X31070Y22802D01*
X31178Y22714D01*
X31302Y22648D01*
X31436Y22607D01*
X31575Y22593D01*
X31714Y22607D01*
X31848Y22648D01*
X31971Y22714D01*
X32079Y22802D01*
X32168Y22911D01*
X32234Y23034D01*
X32275Y23168D01*
X32288Y23307D01*
X32275Y23446D01*
X32234Y23580D01*
X32168Y23704D01*
X32079Y23812D01*
X31971Y23900D01*
X31848Y23966D01*
X31714Y24007D01*
X31575Y24021D01*
D02*
G37*
G36*
X15400Y23188D02*
X15287Y23173D01*
X15181Y23130D01*
X15090Y23060D01*
X15020Y22969D01*
X14977Y22863D01*
X14962Y22750D01*
X14977Y22637D01*
X15020Y22531D01*
X15090Y22440D01*
X15181Y22370D01*
X15287Y22327D01*
X15400Y22312D01*
X15513Y22327D01*
X15619Y22370D01*
X15710Y22440D01*
X15780Y22531D01*
X15823Y22637D01*
X15838Y22750D01*
X15823Y22863D01*
X15780Y22969D01*
X15710Y23060D01*
X15619Y23130D01*
X15513Y23173D01*
X15400Y23188D01*
D02*
G37*
G36*
X33435Y21285D02*
X33050D01*
Y20900D01*
X33435D01*
Y21285D01*
D02*
G37*
G36*
X32050Y21282D02*
Y20900D01*
X32432D01*
X32423Y20963D01*
X32380Y21069D01*
X32310Y21160D01*
X32219Y21230D01*
X32113Y21273D01*
X32050Y21282D01*
D02*
G37*
G36*
X31050D02*
Y20900D01*
X31432D01*
X31423Y20963D01*
X31380Y21069D01*
X31310Y21160D01*
X31219Y21230D01*
X31113Y21273D01*
X31050Y21282D01*
D02*
G37*
G36*
X30050D02*
Y20900D01*
X30432D01*
X30423Y20963D01*
X30380Y21069D01*
X30310Y21160D01*
X30219Y21230D01*
X30113Y21273D01*
X30050Y21282D01*
D02*
G37*
G36*
X31950Y21282D02*
X31887Y21273D01*
X31781Y21230D01*
X31690Y21160D01*
X31620Y21069D01*
X31577Y20963D01*
X31568Y20900D01*
X31950D01*
Y21282D01*
D02*
G37*
G36*
X30950D02*
X30887Y21273D01*
X30781Y21230D01*
X30690Y21160D01*
X30620Y21069D01*
X30577Y20963D01*
X30568Y20900D01*
X30950D01*
Y21282D01*
D02*
G37*
G36*
X29950D02*
X29887Y21273D01*
X29781Y21230D01*
X29690Y21160D01*
X29620Y21069D01*
X29577Y20963D01*
X29568Y20900D01*
X29950D01*
Y21282D01*
D02*
G37*
G36*
X32950Y21285D02*
X32565D01*
Y20900D01*
X32950D01*
Y21285D01*
D02*
G37*
G36*
X31432Y20800D02*
X31050D01*
Y20418D01*
X31113Y20427D01*
X31219Y20470D01*
X31310Y20540D01*
X31380Y20631D01*
X31423Y20737D01*
X31432Y20800D01*
D02*
G37*
G36*
X30432D02*
X30050D01*
Y20418D01*
X30113Y20427D01*
X30219Y20470D01*
X30310Y20540D01*
X30380Y20631D01*
X30423Y20737D01*
X30432Y20800D01*
D02*
G37*
G36*
X32432D02*
X32050D01*
Y20418D01*
X32113Y20427D01*
X32219Y20470D01*
X32310Y20540D01*
X32380Y20631D01*
X32423Y20737D01*
X32432Y20800D01*
D02*
G37*
G36*
X31950D02*
X31568D01*
X31577Y20737D01*
X31620Y20631D01*
X31690Y20540D01*
X31781Y20470D01*
X31887Y20427D01*
X31950Y20418D01*
Y20800D01*
D02*
G37*
G36*
X30950D02*
X30568D01*
X30577Y20737D01*
X30620Y20631D01*
X30690Y20540D01*
X30781Y20470D01*
X30887Y20427D01*
X30950Y20418D01*
Y20800D01*
D02*
G37*
G36*
X29950D02*
X29568D01*
X29577Y20737D01*
X29620Y20631D01*
X29690Y20540D01*
X29781Y20470D01*
X29887Y20427D01*
X29950Y20418D01*
Y20800D01*
D02*
G37*
G36*
X33435D02*
X33050D01*
Y20415D01*
X33435D01*
Y20800D01*
D02*
G37*
G36*
X32950D02*
X32565D01*
Y20415D01*
X32950D01*
Y20800D01*
D02*
G37*
G36*
X32678Y19080D02*
X32678Y19080D01*
X28740D01*
X28740Y19080D01*
X28670Y19066D01*
X28611Y19026D01*
X28611Y19026D01*
X25830Y16245D01*
X14803D01*
X14803Y16245D01*
X14733Y16231D01*
X14674Y16192D01*
X6865Y8382D01*
X6814D01*
X6804Y8383D01*
X6792Y8385D01*
Y8595D01*
X5608D01*
Y7805D01*
X6792D01*
Y8015D01*
X6804Y8017D01*
X6814Y8018D01*
X6940D01*
X6940Y8018D01*
X7010Y8032D01*
X7069Y8071D01*
X14879Y15881D01*
X21800D01*
X21810Y15831D01*
X21761Y15798D01*
X21761Y15798D01*
X14345Y8382D01*
X13864D01*
X13854Y8383D01*
X13842Y8385D01*
Y8595D01*
X12658D01*
Y7805D01*
X13842D01*
Y8015D01*
X13854Y8017D01*
X13864Y8018D01*
X14420D01*
X14420Y8018D01*
X14490Y8032D01*
X14549Y8071D01*
X21965Y15487D01*
X28633D01*
X29118Y15003D01*
X29100Y14950D01*
X29047Y14943D01*
X28951Y14903D01*
X28868Y14840D01*
X28805Y14757D01*
X28765Y14661D01*
X28751Y14558D01*
X28765Y14455D01*
X28805Y14359D01*
X28868Y14276D01*
X28951Y14213D01*
X29047Y14173D01*
X29150Y14159D01*
X29253Y14173D01*
X29349Y14213D01*
X29432Y14276D01*
X29441Y14288D01*
X29503Y14286D01*
X29521Y14259D01*
X29825Y13955D01*
X29825Y13955D01*
X29884Y13915D01*
X29890Y13914D01*
X29902Y13866D01*
X29868Y13840D01*
X29805Y13757D01*
X29765Y13661D01*
X29751Y13558D01*
X29765Y13455D01*
X29805Y13359D01*
X29868Y13276D01*
X29951Y13213D01*
X30047Y13173D01*
X30150Y13159D01*
X30253Y13173D01*
X30349Y13213D01*
X30432Y13276D01*
X30495Y13359D01*
X30535Y13455D01*
X30549Y13558D01*
X30535Y13661D01*
X30495Y13757D01*
X30432Y13840D01*
X30413Y13854D01*
X30429Y13902D01*
X30871D01*
X30887Y13854D01*
X30868Y13840D01*
X30805Y13757D01*
X30765Y13661D01*
X30751Y13558D01*
X30765Y13455D01*
X30805Y13359D01*
X30868Y13276D01*
X30951Y13213D01*
X31047Y13173D01*
X31150Y13159D01*
X31253Y13173D01*
X31349Y13213D01*
X31432Y13276D01*
X31495Y13359D01*
X31535Y13455D01*
X31549Y13558D01*
X31535Y13661D01*
X31495Y13757D01*
X31432Y13840D01*
X31413Y13854D01*
X31429Y13902D01*
X31871D01*
X31887Y13854D01*
X31868Y13840D01*
X31805Y13757D01*
X31765Y13661D01*
X31751Y13558D01*
X31765Y13455D01*
X31805Y13359D01*
X31868Y13276D01*
X31951Y13213D01*
X32047Y13173D01*
X32150Y13159D01*
X32253Y13173D01*
X32349Y13213D01*
X32432Y13276D01*
X32495Y13359D01*
X32535Y13455D01*
X32549Y13558D01*
X32535Y13661D01*
X32495Y13757D01*
X32432Y13840D01*
X32413Y13854D01*
X32429Y13902D01*
X32871D01*
X32887Y13854D01*
X32868Y13840D01*
X32805Y13757D01*
X32765Y13661D01*
X32751Y13558D01*
X32765Y13455D01*
X32805Y13359D01*
X32868Y13276D01*
X32951Y13213D01*
X33047Y13173D01*
X33150Y13159D01*
X33253Y13173D01*
X33349Y13213D01*
X33432Y13276D01*
X33495Y13359D01*
X33535Y13455D01*
X33549Y13558D01*
X33535Y13661D01*
X33495Y13757D01*
X33432Y13840D01*
X33413Y13854D01*
X33429Y13902D01*
X33871D01*
X33887Y13854D01*
X33868Y13840D01*
X33805Y13757D01*
X33765Y13661D01*
X33751Y13558D01*
X33765Y13455D01*
X33805Y13359D01*
X33868Y13276D01*
X33951Y13213D01*
X34047Y13173D01*
X34150Y13159D01*
X34253Y13173D01*
X34349Y13213D01*
X34432Y13276D01*
X34495Y13359D01*
X34535Y13455D01*
X34549Y13558D01*
X34535Y13661D01*
X34495Y13757D01*
X34432Y13840D01*
X34413Y13854D01*
X34429Y13902D01*
X34676D01*
X34676Y13902D01*
X34746Y13915D01*
X34805Y13955D01*
X34957Y14107D01*
X34985Y14133D01*
X35007Y14151D01*
X35024Y14163D01*
X35075D01*
X35079Y14162D01*
X35082Y14163D01*
X35545D01*
Y14953D01*
X34951D01*
X34933Y14957D01*
X34916Y14953D01*
X34755D01*
Y14792D01*
X34751Y14774D01*
X34755Y14757D01*
Y14490D01*
X34754Y14487D01*
X34755Y14483D01*
Y14432D01*
X34744Y14416D01*
X34707Y14372D01*
X34600Y14266D01*
X34487D01*
X34463Y14316D01*
X34495Y14359D01*
X34535Y14455D01*
X34549Y14558D01*
X34535Y14661D01*
X34495Y14757D01*
X34432Y14840D01*
X34424Y14846D01*
X34409Y14862D01*
X34391Y14882D01*
X34376Y14902D01*
X34363Y14922D01*
X34353Y14940D01*
X34345Y14957D01*
X34339Y14974D01*
X34335Y14989D01*
X34333Y15000D01*
Y17425D01*
X34333Y17425D01*
X34320Y17495D01*
X34280Y17554D01*
X34165Y17669D01*
X34184Y17715D01*
X34885D01*
Y18585D01*
X34015D01*
Y17884D01*
X33969Y17865D01*
X32807Y19026D01*
X32748Y19066D01*
X32678Y19080D01*
D02*
G37*
G36*
X15450Y19182D02*
Y18800D01*
X15832D01*
X15823Y18863D01*
X15780Y18969D01*
X15710Y19060D01*
X15619Y19130D01*
X15513Y19173D01*
X15450Y19182D01*
D02*
G37*
G36*
X15350Y19182D02*
X15287Y19173D01*
X15181Y19130D01*
X15090Y19060D01*
X15020Y18969D01*
X14977Y18863D01*
X14968Y18800D01*
X15350D01*
Y19182D01*
D02*
G37*
G36*
X15832Y18700D02*
X15450D01*
Y18318D01*
X15513Y18327D01*
X15619Y18370D01*
X15710Y18440D01*
X15780Y18531D01*
X15823Y18637D01*
X15832Y18700D01*
D02*
G37*
G36*
X28150Y14957D02*
X28047Y14943D01*
X27951Y14903D01*
X27868Y14840D01*
X27805Y14757D01*
X27765Y14661D01*
X27751Y14558D01*
X27765Y14455D01*
X27805Y14359D01*
X27868Y14276D01*
X27951Y14213D01*
X28047Y14173D01*
X28150Y14159D01*
X28253Y14173D01*
X28269Y14179D01*
X28343Y14088D01*
X28419Y13946D01*
X28432Y13902D01*
X28389Y13873D01*
X28349Y13903D01*
X28253Y13943D01*
X28150Y13957D01*
X28047Y13943D01*
X27951Y13903D01*
X27868Y13840D01*
X27805Y13757D01*
X27765Y13661D01*
X27751Y13558D01*
X27765Y13455D01*
X27805Y13359D01*
X27868Y13276D01*
X27876Y13270D01*
X27892Y13253D01*
X27910Y13232D01*
X27925Y13213D01*
X27938Y13193D01*
X27948Y13175D01*
X27956Y13158D01*
X27962Y13142D01*
X27966Y13126D01*
X27968Y13115D01*
Y12119D01*
X27918Y12109D01*
X27908Y12133D01*
X27851Y12208D01*
X27776Y12265D01*
X27690Y12300D01*
X27603Y12312D01*
X27597Y12313D01*
X27539D01*
X27522Y12363D01*
X27581Y12409D01*
X27638Y12483D01*
X27674Y12569D01*
X27686Y12662D01*
X27674Y12755D01*
X27638Y12842D01*
X27581Y12916D01*
X27507Y12973D01*
X27420Y13009D01*
X27334Y13020D01*
X27333Y13021D01*
X27332Y13022D01*
Y13115D01*
X27334Y13126D01*
X27338Y13142D01*
X27344Y13158D01*
X27352Y13175D01*
X27362Y13193D01*
X27375Y13213D01*
X27390Y13232D01*
X27408Y13253D01*
X27424Y13270D01*
X27432Y13276D01*
X27495Y13359D01*
X27535Y13455D01*
X27549Y13558D01*
X27535Y13661D01*
X27495Y13757D01*
X27432Y13840D01*
X27349Y13903D01*
X27253Y13943D01*
X27150Y13957D01*
X27047Y13943D01*
X26951Y13903D01*
X26924Y13883D01*
X26881Y13913D01*
X26896Y13961D01*
X26972Y14103D01*
X26972Y14104D01*
X26974Y14105D01*
X26984Y14118D01*
X26991Y14125D01*
X27000Y14132D01*
X27012Y14138D01*
X27026Y14144D01*
X27043Y14150D01*
X27064Y14155D01*
X27088Y14158D01*
X27116Y14160D01*
X27140Y14161D01*
X27150Y14159D01*
X27253Y14173D01*
X27349Y14213D01*
X27432Y14276D01*
X27495Y14359D01*
X27535Y14455D01*
X27549Y14558D01*
X27535Y14661D01*
X27495Y14757D01*
X27432Y14840D01*
X27349Y14903D01*
X27253Y14943D01*
X27150Y14957D01*
X27047Y14943D01*
X26951Y14903D01*
X26868Y14840D01*
X26805Y14757D01*
X26765Y14661D01*
X26751Y14558D01*
X26753Y14548D01*
X26752Y14528D01*
X26750Y14502D01*
X26747Y14477D01*
X26742Y14453D01*
X26735Y14429D01*
X26727Y14405D01*
X26718Y14382D01*
X26707Y14360D01*
X26696Y14340D01*
X26691Y14332D01*
X26678Y14312D01*
X26677Y14309D01*
X26600Y14184D01*
X26529Y14013D01*
X26489Y13847D01*
X26439Y13830D01*
X26432Y13840D01*
X26349Y13903D01*
X26253Y13943D01*
X26150Y13957D01*
X26047Y13943D01*
X25951Y13903D01*
X25868Y13840D01*
X25857Y13825D01*
X25855Y13824D01*
X25833Y13800D01*
X25814Y13781D01*
X25772Y13745D01*
X25753Y13731D01*
X25734Y13718D01*
X25715Y13706D01*
X25696Y13697D01*
X25677Y13689D01*
X25670Y13686D01*
X25654Y13682D01*
X25483Y13611D01*
X25324Y13514D01*
X25183Y13394D01*
X25183Y13394D01*
X25148Y13359D01*
X24884Y13094D01*
X24884Y13094D01*
X22981Y11192D01*
X22981Y11192D01*
X21857Y10067D01*
X21857Y10068D01*
X21736Y9926D01*
X21639Y9768D01*
X21568Y9597D01*
X21525Y9416D01*
X21511Y9231D01*
X21511D01*
Y8780D01*
X21511Y8777D01*
X21502Y8710D01*
X21475Y8645D01*
X21462Y8627D01*
X21432Y8590D01*
X21397Y8555D01*
X20180Y7338D01*
X20169Y7330D01*
X20152Y7321D01*
X20133Y7312D01*
X20111Y7305D01*
X20086Y7298D01*
X20059Y7293D01*
X19990Y7287D01*
X19963Y7287D01*
X19950Y7288D01*
X19837Y7273D01*
X19731Y7230D01*
X19640Y7160D01*
X19632Y7150D01*
X19611Y7129D01*
X19585Y7107D01*
X19561Y7087D01*
X19537Y7071D01*
X19515Y7057D01*
X19494Y7047D01*
X19474Y7040D01*
X19456Y7035D01*
X19442Y7032D01*
X19251D01*
X19241Y7033D01*
X19229Y7035D01*
Y7239D01*
X18578D01*
X18572Y7239D01*
X18528D01*
X18522Y7239D01*
X18385D01*
X18383Y7252D01*
X18382Y7262D01*
Y7412D01*
X18423Y7461D01*
X18522D01*
X18528Y7461D01*
X18572D01*
X18578Y7461D01*
X19229D01*
Y7665D01*
X19241Y7667D01*
X19251Y7668D01*
X19442D01*
X19456Y7665D01*
X19474Y7660D01*
X19494Y7653D01*
X19515Y7643D01*
X19537Y7629D01*
X19559Y7614D01*
X19612Y7570D01*
X19632Y7550D01*
X19640Y7540D01*
X19731Y7470D01*
X19837Y7427D01*
X19950Y7412D01*
X20063Y7427D01*
X20169Y7470D01*
X20260Y7540D01*
X20330Y7631D01*
X20373Y7737D01*
X20388Y7850D01*
X20387Y7863D01*
X20387Y7892D01*
X20389Y7926D01*
X20393Y7958D01*
X20398Y7986D01*
X20405Y8011D01*
X20412Y8033D01*
X20421Y8052D01*
X20430Y8069D01*
X20438Y8080D01*
X20690Y8332D01*
X20692Y8336D01*
X20768Y8428D01*
X20827Y8538D01*
X20863Y8656D01*
X20874Y8775D01*
X20875Y8780D01*
Y9231D01*
X20873Y9241D01*
X20888Y9469D01*
X20935Y9703D01*
X21011Y9928D01*
X21117Y10142D01*
X21249Y10339D01*
X21400Y10512D01*
X21408Y10517D01*
X23071Y12180D01*
X23674Y12783D01*
X23772Y12881D01*
X23772Y12881D01*
X24461Y13570D01*
X24461Y13570D01*
X24734Y13843D01*
X24739Y13851D01*
X24911Y14002D01*
X25109Y14134D01*
X25323Y14239D01*
X25548Y14316D01*
X25728Y14352D01*
X25734Y14352D01*
X25748Y14350D01*
X25762Y14347D01*
X25777Y14341D01*
X25794Y14333D01*
X25812Y14323D01*
X25831Y14309D01*
X25852Y14293D01*
X25864Y14282D01*
X25868Y14276D01*
X25951Y14213D01*
X26047Y14173D01*
X26150Y14159D01*
X26253Y14173D01*
X26349Y14213D01*
X26432Y14276D01*
X26495Y14359D01*
X26535Y14455D01*
X26549Y14558D01*
X26535Y14661D01*
X26495Y14757D01*
X26432Y14840D01*
X26349Y14903D01*
X26253Y14943D01*
X26150Y14957D01*
X26047Y14943D01*
X25951Y14903D01*
X25868Y14840D01*
X25861Y14830D01*
X25817Y14788D01*
X25798Y14772D01*
X25779Y14757D01*
X25759Y14745D01*
X25741Y14734D01*
X25723Y14726D01*
X25705Y14719D01*
X25688Y14714D01*
X25667Y14710D01*
X25665Y14709D01*
X25454Y14667D01*
X25184Y14575D01*
X24928Y14449D01*
X24690Y14290D01*
X24475Y14102D01*
X24475Y14102D01*
X24441Y14066D01*
X24203Y13828D01*
X24203Y13828D01*
X23514Y13139D01*
X23514Y13139D01*
X23416Y13041D01*
X22813Y12438D01*
X21185Y10810D01*
X21149Y10775D01*
X21149Y10775D01*
X20961Y10561D01*
X20802Y10323D01*
X20676Y10067D01*
X20584Y9797D01*
X20528Y9516D01*
X20510Y9231D01*
X20511D01*
Y8780D01*
X20511Y8777D01*
X20502Y8710D01*
X20475Y8645D01*
X20462Y8627D01*
X20432Y8590D01*
X20397Y8555D01*
X20180Y8338D01*
X20169Y8330D01*
X20152Y8321D01*
X20133Y8312D01*
X20111Y8305D01*
X20086Y8298D01*
X20059Y8293D01*
X19990Y8287D01*
X19963Y8287D01*
X19950Y8288D01*
X19837Y8273D01*
X19731Y8230D01*
X19640Y8160D01*
X19632Y8150D01*
X19611Y8129D01*
X19585Y8107D01*
X19561Y8087D01*
X19537Y8071D01*
X19515Y8057D01*
X19494Y8047D01*
X19474Y8040D01*
X19456Y8035D01*
X19442Y8032D01*
X19251D01*
X19241Y8033D01*
X19229Y8035D01*
Y8239D01*
X18578D01*
X18572Y8239D01*
X18528D01*
X18522Y8239D01*
X17872D01*
Y7461D01*
X18015D01*
X18017Y7449D01*
X18018Y7439D01*
Y7262D01*
X18017Y7252D01*
X18015Y7239D01*
X17872D01*
Y6461D01*
X18015D01*
X18017Y6449D01*
X18018Y6439D01*
Y5707D01*
X18017Y5697D01*
X18015Y5685D01*
X17765D01*
Y4815D01*
X18635D01*
Y5685D01*
X18385D01*
X18383Y5697D01*
X18382Y5707D01*
Y6412D01*
X18423Y6461D01*
X18522D01*
X18528Y6461D01*
X18572D01*
X18578Y6461D01*
X19229D01*
Y6665D01*
X19241Y6667D01*
X19251Y6668D01*
X19442D01*
X19456Y6665D01*
X19474Y6660D01*
X19494Y6653D01*
X19515Y6643D01*
X19537Y6629D01*
X19559Y6614D01*
X19612Y6570D01*
X19632Y6550D01*
X19640Y6540D01*
X19731Y6470D01*
X19837Y6427D01*
X19950Y6412D01*
X20063Y6427D01*
X20169Y6470D01*
X20260Y6540D01*
X20330Y6631D01*
X20373Y6737D01*
X20388Y6850D01*
X20387Y6863D01*
X20387Y6892D01*
X20389Y6926D01*
X20393Y6958D01*
X20398Y6986D01*
X20405Y7011D01*
X20412Y7033D01*
X20421Y7052D01*
X20430Y7069D01*
X20438Y7080D01*
X21690Y8332D01*
X21692Y8336D01*
X21768Y8428D01*
X21827Y8538D01*
X21863Y8656D01*
X21874Y8775D01*
X21875Y8780D01*
Y9231D01*
X21874Y9240D01*
X21888Y9391D01*
X21935Y9545D01*
X22011Y9687D01*
X22108Y9805D01*
X22115Y9810D01*
X23239Y10934D01*
X23239Y10934D01*
X25141Y12836D01*
X25141Y12836D01*
X25406Y13101D01*
X25441Y13136D01*
X25477Y13169D01*
X25564Y13240D01*
X25705Y13316D01*
X25753Y13330D01*
X25755Y13330D01*
X25765Y13331D01*
X25776Y13329D01*
X25789Y13326D01*
X25804Y13320D01*
X25820Y13312D01*
X25838Y13300D01*
X25858Y13285D01*
X25866Y13279D01*
X25868Y13276D01*
X25877Y13269D01*
X25882Y13265D01*
X25885Y13263D01*
X25951Y13213D01*
X26047Y13173D01*
X26150Y13159D01*
X26253Y13173D01*
X26349Y13213D01*
X26421Y13268D01*
X26471Y13252D01*
Y13028D01*
Y12387D01*
X26156D01*
X26150Y12386D01*
X26063Y12374D01*
X25977Y12338D01*
X25902Y12281D01*
X25845Y12207D01*
X25809Y12120D01*
X25797Y12028D01*
X25809Y11935D01*
X25845Y11848D01*
X25902Y11774D01*
X25977Y11717D01*
X25999Y11707D01*
Y11653D01*
X25942Y11630D01*
X25868Y11573D01*
X25811Y11498D01*
X25775Y11412D01*
X25763Y11319D01*
X25775Y11226D01*
X25811Y11139D01*
X25868Y11065D01*
X25942Y11008D01*
X26029Y10972D01*
X26115Y10961D01*
X26122Y10959D01*
X26471D01*
Y10886D01*
Y9213D01*
X26471D01*
X26487Y9093D01*
X26533Y8981D01*
X26606Y8885D01*
X26607Y8885D01*
X26607Y8885D01*
X26912Y8580D01*
X26920Y8569D01*
X26929Y8552D01*
X26938Y8533D01*
X26945Y8511D01*
X26952Y8486D01*
X26957Y8459D01*
X26963Y8390D01*
X26963Y8363D01*
X26962Y8350D01*
X26977Y8237D01*
X27020Y8131D01*
X27090Y8040D01*
X27181Y7970D01*
X27287Y7927D01*
X27400Y7912D01*
X27513Y7927D01*
X27619Y7970D01*
X27710Y8040D01*
X27780Y8131D01*
X27823Y8237D01*
X27838Y8350D01*
X27823Y8463D01*
X27780Y8569D01*
X27710Y8660D01*
X27619Y8730D01*
X27513Y8773D01*
X27400Y8788D01*
X27387Y8787D01*
X27358Y8787D01*
X27324Y8789D01*
X27292Y8793D01*
X27264Y8798D01*
X27239Y8805D01*
X27217Y8812D01*
X27198Y8821D01*
X27181Y8830D01*
X27170Y8838D01*
X26900Y9108D01*
X26865Y9143D01*
X26841Y9184D01*
X26836Y9212D01*
X26836Y9213D01*
Y10584D01*
X26886Y10609D01*
X26924Y10580D01*
X27010Y10544D01*
X27097Y10533D01*
X27103Y10531D01*
X27116D01*
X27133Y10481D01*
X27073Y10436D01*
X27016Y10362D01*
X26980Y10275D01*
X26969Y10188D01*
X26968Y10182D01*
Y9954D01*
X26968Y9954D01*
X26969Y9947D01*
X26968Y9940D01*
X26978Y9814D01*
X26981Y9801D01*
X26986Y9751D01*
X26998Y9711D01*
X26998Y9711D01*
X27001Y9697D01*
X27002Y9684D01*
X27003Y9642D01*
X27001Y9620D01*
X26981Y9480D01*
X26978Y9468D01*
X26977Y9463D01*
X26975Y9450D01*
X26973Y9439D01*
Y9439D01*
X26973Y9439D01*
X26973Y9433D01*
X26962Y9350D01*
X26977Y9237D01*
X27020Y9131D01*
X27090Y9040D01*
X27181Y8970D01*
X27287Y8927D01*
X27400Y8912D01*
X27513Y8927D01*
X27619Y8970D01*
X27710Y9040D01*
X27780Y9131D01*
X27823Y9237D01*
X27838Y9350D01*
X27823Y9463D01*
X27780Y9569D01*
X27710Y9660D01*
X27619Y9730D01*
X27513Y9773D01*
X27487Y9777D01*
X27483Y9779D01*
X27447Y9786D01*
X27388Y9801D01*
X27367Y9807D01*
X27357Y9811D01*
X27340Y9855D01*
D01*
X27337Y9902D01*
X27332Y9960D01*
Y10177D01*
X27621D01*
X27628Y10178D01*
X27714Y10190D01*
X27801Y10225D01*
X27875Y10283D01*
X27918Y10338D01*
X27968Y10321D01*
Y8514D01*
X27969Y8506D01*
X27954Y8354D01*
X27908Y8200D01*
X27832Y8059D01*
X27761Y7972D01*
X27728Y7936D01*
X27728Y7936D01*
X27630Y7838D01*
X27619Y7830D01*
X27602Y7821D01*
X27583Y7812D01*
X27561Y7805D01*
X27536Y7798D01*
X27509Y7793D01*
X27440Y7787D01*
X27413Y7787D01*
X27400Y7788D01*
X27287Y7773D01*
X27181Y7730D01*
X27090Y7660D01*
X27020Y7569D01*
X26977Y7463D01*
X26962Y7350D01*
X26977Y7237D01*
X27020Y7131D01*
X27090Y7040D01*
X27181Y6970D01*
X27287Y6927D01*
X27400Y6912D01*
X27513Y6927D01*
X27619Y6970D01*
X27710Y7040D01*
X27780Y7131D01*
X27823Y7237D01*
X27838Y7350D01*
X27837Y7363D01*
X27837Y7392D01*
X27839Y7426D01*
X27843Y7458D01*
X27848Y7486D01*
X27855Y7511D01*
X27862Y7533D01*
X27871Y7552D01*
X27880Y7569D01*
X27888Y7580D01*
X27951Y7643D01*
X27986Y7678D01*
X27986Y7678D01*
X28107Y7819D01*
X28204Y7977D01*
X28275Y8149D01*
X28318Y8329D01*
X28332Y8514D01*
X28332D01*
Y13115D01*
X28334Y13126D01*
X28338Y13142D01*
X28344Y13158D01*
X28352Y13175D01*
X28362Y13193D01*
X28375Y13213D01*
X28390Y13232D01*
X28408Y13253D01*
X28424Y13270D01*
X28429Y13274D01*
X28447Y13271D01*
X28479Y13260D01*
Y8026D01*
X28481Y8017D01*
X28466Y7866D01*
X28419Y7712D01*
X28343Y7570D01*
X28273Y7484D01*
X28240Y7447D01*
X28240Y7447D01*
X27630Y6838D01*
X27619Y6830D01*
X27602Y6821D01*
X27583Y6812D01*
X27561Y6805D01*
X27536Y6798D01*
X27509Y6793D01*
X27440Y6787D01*
X27413Y6787D01*
X27400Y6788D01*
X27287Y6773D01*
X27181Y6730D01*
X27090Y6660D01*
X27020Y6569D01*
X26977Y6463D01*
X26962Y6350D01*
X26977Y6237D01*
X26994Y6194D01*
X26952Y6165D01*
X26084Y7033D01*
X26030Y7075D01*
X25968Y7100D01*
X25900Y7109D01*
X24637D01*
X24602Y7110D01*
X24507Y7115D01*
X24472Y7119D01*
X24445Y7124D01*
X24444Y7124D01*
Y7179D01*
X24347D01*
X24343Y7179D01*
X24339Y7179D01*
X23771D01*
X23767Y7179D01*
X23763Y7179D01*
X23666D01*
Y7124D01*
X23666Y7124D01*
X23641Y7120D01*
X23507Y7110D01*
X23474Y7109D01*
X23452D01*
X23449Y7110D01*
X23433D01*
X23378Y7111D01*
X23326Y7114D01*
X23307Y7117D01*
X23293Y7119D01*
X23291Y7120D01*
X23260Y7160D01*
X23169Y7230D01*
X23063Y7273D01*
X22950Y7288D01*
X22837Y7273D01*
X22731Y7230D01*
X22640Y7160D01*
X22570Y7069D01*
X22527Y6963D01*
X22512Y6850D01*
X22527Y6737D01*
X22570Y6631D01*
X22640Y6540D01*
X22648Y6534D01*
X22651Y6531D01*
X22657Y6522D01*
X22664Y6510D01*
X22670Y6496D01*
X22676Y6480D01*
X22681Y6460D01*
X22685Y6439D01*
X22687Y6417D01*
X22685Y6397D01*
X22679Y6359D01*
X22671Y6329D01*
X22662Y6307D01*
X22654Y6295D01*
X22649Y6289D01*
X22646Y6287D01*
X22642Y6286D01*
X22634Y6285D01*
X22515D01*
Y5415D01*
X23385D01*
Y6285D01*
X23266D01*
X23258Y6286D01*
X23254Y6287D01*
X23251Y6289D01*
X23246Y6295D01*
X23238Y6307D01*
X23229Y6329D01*
X23221Y6359D01*
X23215Y6397D01*
X23213Y6420D01*
X23215Y6438D01*
X23219Y6460D01*
X23224Y6480D01*
X23230Y6496D01*
X23236Y6510D01*
X23243Y6522D01*
X23249Y6531D01*
X23252Y6534D01*
X23260Y6540D01*
X23291Y6580D01*
X23293Y6581D01*
X23305Y6583D01*
X23412Y6590D01*
X23417Y6590D01*
X23446D01*
X23449Y6590D01*
X23474D01*
X23508Y6589D01*
X23604Y6584D01*
X23639Y6580D01*
X23666Y6575D01*
Y6528D01*
X23666Y6522D01*
Y6478D01*
X23666Y6472D01*
Y6200D01*
X24055D01*
X24444D01*
Y6472D01*
X24444Y6478D01*
Y6522D01*
X24444Y6528D01*
Y6575D01*
X24469Y6580D01*
X24603Y6590D01*
X24636Y6590D01*
X25793D01*
X26873Y5509D01*
X26887Y5495D01*
X26905Y5474D01*
X26921Y5454D01*
X26934Y5435D01*
X26944Y5418D01*
X26952Y5402D01*
X26957Y5388D01*
X26961Y5375D01*
X26963Y5364D01*
X26963Y5360D01*
X26962Y5350D01*
X26977Y5237D01*
X27020Y5131D01*
X27090Y5040D01*
X27181Y4970D01*
X27287Y4927D01*
X27400Y4912D01*
X27513Y4927D01*
X27619Y4970D01*
X27710Y5040D01*
X27780Y5131D01*
X27823Y5237D01*
X27838Y5350D01*
X27823Y5463D01*
X27780Y5569D01*
X27710Y5660D01*
X27619Y5730D01*
X27513Y5773D01*
X27400Y5788D01*
X27390Y5787D01*
X27386Y5787D01*
X27375Y5789D01*
X27362Y5793D01*
X27348Y5798D01*
X27332Y5806D01*
X27315Y5816D01*
X27297Y5828D01*
X27254Y5864D01*
X27241Y5877D01*
X27215Y5902D01*
X27244Y5944D01*
X27287Y5927D01*
X27400Y5912D01*
X27513Y5927D01*
X27619Y5970D01*
X27710Y6040D01*
X27780Y6131D01*
X27823Y6237D01*
X27838Y6350D01*
X27837Y6363D01*
X27837Y6392D01*
X27839Y6426D01*
X27843Y6458D01*
X27848Y6486D01*
X27855Y6511D01*
X27862Y6533D01*
X27871Y6552D01*
X27880Y6569D01*
X27888Y6580D01*
X28462Y7154D01*
X28497Y7190D01*
X28497Y7190D01*
X28618Y7331D01*
X28715Y7489D01*
X28786Y7660D01*
X28829Y7841D01*
X28844Y8026D01*
X28844D01*
Y13232D01*
X28894Y13256D01*
X28951Y13213D01*
X29047Y13173D01*
X29150Y13159D01*
X29253Y13173D01*
X29349Y13213D01*
X29432Y13276D01*
X29495Y13359D01*
X29535Y13455D01*
X29549Y13558D01*
X29535Y13661D01*
X29495Y13757D01*
X29432Y13840D01*
X29349Y13903D01*
X29253Y13943D01*
X29150Y13957D01*
X29047Y13943D01*
X28951Y13903D01*
X28874Y13844D01*
X28847Y13848D01*
X28819Y13858D01*
X28786Y13998D01*
X28715Y14169D01*
X28618Y14327D01*
X28527Y14434D01*
X28535Y14455D01*
X28549Y14558D01*
X28535Y14661D01*
X28495Y14757D01*
X28432Y14840D01*
X28349Y14903D01*
X28253Y14943D01*
X28150Y14957D01*
D02*
G37*
G36*
X35150Y13957D02*
X35047Y13943D01*
X34951Y13903D01*
X34868Y13840D01*
X34805Y13757D01*
X34765Y13661D01*
X34751Y13558D01*
X34765Y13455D01*
X34805Y13359D01*
X34868Y13276D01*
X34951Y13213D01*
X35047Y13173D01*
X35150Y13159D01*
X35253Y13173D01*
X35349Y13213D01*
X35432Y13276D01*
X35495Y13359D01*
X35535Y13455D01*
X35549Y13558D01*
X35535Y13661D01*
X35495Y13757D01*
X35432Y13840D01*
X35349Y13903D01*
X35253Y13943D01*
X35150Y13957D01*
D02*
G37*
G36*
X32047Y12322D02*
X31956Y12309D01*
X31871Y12274D01*
X31798Y12218D01*
X31742Y12145D01*
X31706Y12060D01*
X31694Y11968D01*
X31695Y11961D01*
X31695Y11945D01*
X31693Y11927D01*
X31691Y11910D01*
X31687Y11894D01*
X31682Y11880D01*
X31677Y11867D01*
X31671Y11855D01*
X31663Y11844D01*
X31659Y11838D01*
X29394Y9573D01*
X29354Y9514D01*
X29341Y9444D01*
X29341Y9444D01*
Y5822D01*
X27886Y4368D01*
X27834Y4386D01*
X27823Y4463D01*
X27780Y4569D01*
X27710Y4660D01*
X27619Y4730D01*
X27513Y4773D01*
X27450Y4782D01*
Y4350D01*
X27400D01*
Y4300D01*
X26968D01*
X26977Y4237D01*
X27020Y4131D01*
X27090Y4040D01*
X27181Y3970D01*
X27287Y3927D01*
X27364Y3916D01*
X27382Y3864D01*
X26437Y2919D01*
X22207D01*
X22182Y2969D01*
X22230Y3031D01*
X22273Y3137D01*
X22288Y3250D01*
X22273Y3363D01*
X22230Y3469D01*
X22160Y3560D01*
X22150Y3568D01*
X22129Y3589D01*
X22107Y3615D01*
X22087Y3639D01*
X22071Y3663D01*
X22057Y3685D01*
X22047Y3706D01*
X22040Y3726D01*
X22035Y3744D01*
X22032Y3758D01*
Y6675D01*
X22720Y7362D01*
X22731Y7370D01*
X22748Y7379D01*
X22767Y7388D01*
X22789Y7395D01*
X22814Y7402D01*
X22841Y7407D01*
X22910Y7413D01*
X22937Y7413D01*
X22950Y7412D01*
X23063Y7427D01*
X23169Y7470D01*
X23260Y7540D01*
X23330Y7631D01*
X23373Y7737D01*
X23388Y7850D01*
X23373Y7963D01*
X23330Y8069D01*
X23260Y8160D01*
X23250Y8168D01*
X23229Y8189D01*
X23207Y8215D01*
X23187Y8239D01*
X23171Y8263D01*
X23157Y8285D01*
X23147Y8306D01*
X23140Y8326D01*
X23135Y8344D01*
X23134Y8350D01*
X23135Y8356D01*
X23140Y8374D01*
X23147Y8394D01*
X23157Y8415D01*
X23171Y8437D01*
X23186Y8459D01*
X23230Y8512D01*
X23250Y8532D01*
X23260Y8540D01*
X23330Y8631D01*
X23373Y8737D01*
X23388Y8850D01*
X23373Y8963D01*
X23330Y9069D01*
X23260Y9160D01*
X23169Y9230D01*
X23063Y9273D01*
X22950Y9288D01*
X22837Y9273D01*
X22731Y9230D01*
X22640Y9160D01*
X22570Y9069D01*
X22527Y8963D01*
X22512Y8850D01*
X22527Y8737D01*
X22570Y8631D01*
X22640Y8540D01*
X22650Y8532D01*
X22671Y8511D01*
X22693Y8485D01*
X22713Y8461D01*
X22729Y8437D01*
X22743Y8415D01*
X22753Y8394D01*
X22760Y8374D01*
X22765Y8356D01*
X22766Y8350D01*
X22765Y8344D01*
X22760Y8326D01*
X22753Y8306D01*
X22743Y8285D01*
X22729Y8263D01*
X22714Y8241D01*
X22670Y8188D01*
X22650Y8168D01*
X22640Y8160D01*
X22570Y8069D01*
X22527Y7963D01*
X22512Y7850D01*
X22513Y7837D01*
X22513Y7808D01*
X22511Y7774D01*
X22507Y7742D01*
X22502Y7714D01*
X22495Y7689D01*
X22488Y7667D01*
X22479Y7648D01*
X22470Y7631D01*
X22462Y7620D01*
X21721Y6879D01*
X21682Y6820D01*
X21668Y6750D01*
X21668Y6750D01*
Y3758D01*
X21665Y3744D01*
X21660Y3726D01*
X21653Y3706D01*
X21643Y3685D01*
X21629Y3663D01*
X21614Y3641D01*
X21570Y3588D01*
X21550Y3568D01*
X21540Y3560D01*
X21470Y3469D01*
X21427Y3363D01*
X21412Y3250D01*
X21427Y3137D01*
X21470Y3031D01*
X21518Y2969D01*
X21493Y2919D01*
X21285D01*
Y3685D01*
X20415D01*
Y2919D01*
X13889D01*
X13842Y2966D01*
Y3002D01*
X13843Y3006D01*
X13842Y3010D01*
X13843Y3013D01*
X13842Y3015D01*
Y3695D01*
X12658D01*
Y2905D01*
X13314D01*
X13316Y2904D01*
X13334Y2903D01*
X13346Y2901D01*
X13359Y2898D01*
X13373Y2893D01*
X13387Y2887D01*
X13403Y2878D01*
X13419Y2868D01*
X13436Y2855D01*
X13446Y2847D01*
X13685Y2608D01*
X13685Y2608D01*
X13744Y2568D01*
X13813Y2554D01*
X13813Y2554D01*
X26513D01*
X26513Y2554D01*
X26582Y2568D01*
X26642Y2608D01*
X29652Y5618D01*
X29652Y5618D01*
X29691Y5677D01*
X29705Y5747D01*
X29705Y5747D01*
Y9369D01*
X31917Y11580D01*
X31922Y11585D01*
X31934Y11592D01*
X31946Y11598D01*
X31959Y11604D01*
X31973Y11608D01*
X31988Y11612D01*
X32005Y11615D01*
X32024Y11616D01*
X32040Y11616D01*
X32047Y11615D01*
X32139Y11628D01*
X32224Y11663D01*
X32297Y11719D01*
X32353Y11792D01*
X32388Y11877D01*
X32400Y11968D01*
X32388Y12060D01*
X32353Y12145D01*
X32297Y12218D01*
X32224Y12274D01*
X32139Y12309D01*
X32047Y12322D01*
D02*
G37*
G36*
X34850Y9749D02*
X34747Y9735D01*
X34651Y9695D01*
X34568Y9632D01*
X34505Y9549D01*
X34465Y9453D01*
X34451Y9350D01*
X34465Y9247D01*
X34505Y9151D01*
X34568Y9068D01*
X34651Y9005D01*
X34747Y8965D01*
X34850Y8951D01*
X34953Y8965D01*
X35049Y9005D01*
X35132Y9068D01*
X35195Y9151D01*
X35235Y9247D01*
X35249Y9350D01*
X35235Y9453D01*
X35195Y9549D01*
X35132Y9632D01*
X35049Y9695D01*
X34953Y9735D01*
X34850Y9749D01*
D02*
G37*
G36*
X32400Y9788D02*
X32287Y9773D01*
X32181Y9730D01*
X32090Y9660D01*
X32020Y9569D01*
X31977Y9463D01*
X31962Y9350D01*
X31977Y9237D01*
X32020Y9131D01*
X32090Y9040D01*
X32181Y8970D01*
X32287Y8927D01*
X32400Y8912D01*
X32513Y8927D01*
X32619Y8970D01*
X32710Y9040D01*
X32780Y9131D01*
X32823Y9237D01*
X32838Y9350D01*
X32823Y9463D01*
X32780Y9569D01*
X32710Y9660D01*
X32619Y9730D01*
X32513Y9773D01*
X32400Y9788D01*
D02*
G37*
G36*
X20000Y9282D02*
Y8900D01*
X20382D01*
X20373Y8963D01*
X20330Y9069D01*
X20260Y9160D01*
X20169Y9230D01*
X20063Y9273D01*
X20000Y9282D01*
D02*
G37*
G36*
X19900D02*
X19837Y9273D01*
X19731Y9230D01*
X19640Y9160D01*
X19570Y9069D01*
X19527Y8963D01*
X19518Y8900D01*
X19900D01*
Y9282D01*
D02*
G37*
G36*
X3392Y8595D02*
X2850D01*
Y8250D01*
X3291D01*
Y8494D01*
X3295Y8476D01*
X3307Y8459D01*
X3326Y8444D01*
X3354Y8432D01*
X3389Y8421D01*
X3392Y8421D01*
Y8595D01*
D02*
G37*
G36*
X20382Y8800D02*
X20000D01*
Y8418D01*
X20063Y8427D01*
X20169Y8470D01*
X20260Y8540D01*
X20330Y8631D01*
X20373Y8737D01*
X20382Y8800D01*
D02*
G37*
G36*
X19900D02*
X19518D01*
X19527Y8737D01*
X19570Y8631D01*
X19640Y8540D01*
X19731Y8470D01*
X19837Y8427D01*
X19900Y8418D01*
Y8800D01*
D02*
G37*
G36*
X10442Y8595D02*
X9900D01*
Y8250D01*
X10442D01*
Y8595D01*
D02*
G37*
G36*
X9800D02*
X9258D01*
Y8421D01*
X9261Y8421D01*
X9296Y8432D01*
X9324Y8444D01*
X9343Y8459D01*
X9355Y8476D01*
X9359Y8494D01*
Y8250D01*
X9800D01*
Y8595D01*
D02*
G37*
G36*
X2750D02*
X2208D01*
Y8250D01*
X2750D01*
Y8595D01*
D02*
G37*
G36*
X34850Y8749D02*
X34747Y8735D01*
X34651Y8695D01*
X34568Y8632D01*
X34505Y8549D01*
X34465Y8453D01*
X34451Y8350D01*
X34465Y8247D01*
X34505Y8151D01*
X34568Y8068D01*
X34651Y8005D01*
X34747Y7965D01*
X34850Y7951D01*
X34953Y7965D01*
X35049Y8005D01*
X35132Y8068D01*
X35195Y8151D01*
X35235Y8247D01*
X35249Y8350D01*
X35235Y8453D01*
X35195Y8549D01*
X35132Y8632D01*
X35049Y8695D01*
X34953Y8735D01*
X34850Y8749D01*
D02*
G37*
G36*
X32400Y8788D02*
X32287Y8773D01*
X32181Y8730D01*
X32090Y8660D01*
X32020Y8569D01*
X31977Y8463D01*
X31962Y8350D01*
X31977Y8237D01*
X32020Y8131D01*
X32090Y8040D01*
X32181Y7970D01*
X32287Y7927D01*
X32400Y7912D01*
X32513Y7927D01*
X32619Y7970D01*
X32710Y8040D01*
X32780Y8131D01*
X32823Y8237D01*
X32838Y8350D01*
X32823Y8463D01*
X32780Y8569D01*
X32710Y8660D01*
X32619Y8730D01*
X32513Y8773D01*
X32400Y8788D01*
D02*
G37*
G36*
X9800Y8150D02*
X9359D01*
Y7906D01*
X9355Y7924D01*
X9343Y7941D01*
X9324Y7956D01*
X9296Y7968D01*
X9261Y7979D01*
X9258Y7979D01*
Y7805D01*
X9605D01*
X9604Y7807D01*
X9582Y7843D01*
X9557Y7870D01*
X9527Y7890D01*
X9494Y7902D01*
X9456Y7906D01*
X9800D01*
Y8150D01*
D02*
G37*
G36*
X10442D02*
X9900D01*
Y7906D01*
X10244D01*
X10206Y7902D01*
X10173Y7890D01*
X10143Y7870D01*
X10118Y7843D01*
X10096Y7807D01*
X10095Y7805D01*
X10442D01*
Y8150D01*
D02*
G37*
G36*
X3291D02*
X2850D01*
Y7906D01*
X3194D01*
X3156Y7902D01*
X3123Y7890D01*
X3093Y7870D01*
X3068Y7843D01*
X3046Y7807D01*
X3045Y7805D01*
X3392D01*
Y7979D01*
X3389Y7979D01*
X3354Y7968D01*
X3326Y7956D01*
X3307Y7941D01*
X3295Y7924D01*
X3291Y7906D01*
Y8150D01*
D02*
G37*
G36*
X2750D02*
X2208D01*
Y7805D01*
X2555D01*
X2554Y7807D01*
X2532Y7843D01*
X2507Y7870D01*
X2477Y7890D01*
X2444Y7902D01*
X2406Y7906D01*
X2750D01*
Y8150D01*
D02*
G37*
G36*
X34850Y7749D02*
X34747Y7735D01*
X34651Y7695D01*
X34568Y7632D01*
X34505Y7549D01*
X34465Y7453D01*
X34451Y7350D01*
X34465Y7247D01*
X34505Y7151D01*
X34568Y7068D01*
X34651Y7005D01*
X34747Y6965D01*
X34850Y6951D01*
X34953Y6965D01*
X35049Y7005D01*
X35132Y7068D01*
X35195Y7151D01*
X35235Y7247D01*
X35249Y7350D01*
X35235Y7453D01*
X35195Y7549D01*
X35132Y7632D01*
X35049Y7695D01*
X34953Y7735D01*
X34850Y7749D01*
D02*
G37*
G36*
X32400Y7788D02*
X32287Y7773D01*
X32181Y7730D01*
X32090Y7660D01*
X32020Y7569D01*
X31977Y7463D01*
X31962Y7350D01*
X31977Y7237D01*
X32020Y7131D01*
X32090Y7040D01*
X32181Y6970D01*
X32287Y6927D01*
X32400Y6912D01*
X32513Y6927D01*
X32619Y6970D01*
X32710Y7040D01*
X32780Y7131D01*
X32823Y7237D01*
X32838Y7350D01*
X32823Y7463D01*
X32780Y7569D01*
X32710Y7660D01*
X32619Y7730D01*
X32513Y7773D01*
X32400Y7788D01*
D02*
G37*
G36*
X35245Y6745D02*
X34455D01*
Y5955D01*
X35245D01*
Y6745D01*
D02*
G37*
G36*
X32400Y6788D02*
X32287Y6773D01*
X32181Y6730D01*
X32090Y6660D01*
X32020Y6569D01*
X31977Y6463D01*
X31962Y6350D01*
X31977Y6237D01*
X32020Y6131D01*
X32090Y6040D01*
X32181Y5970D01*
X32287Y5927D01*
X32400Y5912D01*
X32513Y5927D01*
X32619Y5970D01*
X32710Y6040D01*
X32780Y6131D01*
X32823Y6237D01*
X32838Y6350D01*
X32823Y6463D01*
X32780Y6569D01*
X32710Y6660D01*
X32619Y6730D01*
X32513Y6773D01*
X32400Y6788D01*
D02*
G37*
G36*
X20000Y6282D02*
Y5900D01*
X20382D01*
X20373Y5963D01*
X20330Y6069D01*
X20260Y6160D01*
X20169Y6230D01*
X20063Y6273D01*
X20000Y6282D01*
D02*
G37*
G36*
X19900D02*
X19837Y6273D01*
X19731Y6230D01*
X19640Y6160D01*
X19570Y6069D01*
X19527Y5963D01*
X19518Y5900D01*
X19900D01*
Y6282D01*
D02*
G37*
G36*
X24444Y6100D02*
X24105D01*
Y5922D01*
X24343D01*
X24327Y5919D01*
X24313Y5907D01*
X24300Y5887D01*
X24289Y5859D01*
X24280Y5824D01*
X24279Y5821D01*
X24444D01*
Y6100D01*
D02*
G37*
G36*
X24005D02*
X23666D01*
Y5821D01*
X23841D01*
X23841Y5824D01*
X23830Y5859D01*
X23817Y5887D01*
X23802Y5907D01*
X23786Y5919D01*
X23767Y5922D01*
X24005D01*
Y6100D01*
D02*
G37*
G36*
X20382Y5800D02*
X20000D01*
Y5418D01*
X20063Y5427D01*
X20169Y5470D01*
X20260Y5540D01*
X20330Y5631D01*
X20373Y5737D01*
X20382Y5800D01*
D02*
G37*
G36*
X19900D02*
X19518D01*
X19527Y5737D01*
X19570Y5631D01*
X19640Y5540D01*
X19731Y5470D01*
X19837Y5427D01*
X19900Y5418D01*
Y5800D01*
D02*
G37*
G36*
X17200Y5688D02*
X17087Y5673D01*
X16981Y5630D01*
X16890Y5560D01*
X16820Y5469D01*
X16777Y5363D01*
X16762Y5250D01*
X16777Y5137D01*
X16820Y5031D01*
X16890Y4940D01*
X16981Y4870D01*
X17087Y4827D01*
X17200Y4812D01*
X17313Y4827D01*
X17419Y4870D01*
X17510Y4940D01*
X17580Y5031D01*
X17623Y5137D01*
X17638Y5250D01*
X17623Y5363D01*
X17580Y5469D01*
X17510Y5560D01*
X17419Y5630D01*
X17313Y5673D01*
X17200Y5688D01*
D02*
G37*
G36*
X32835Y4785D02*
X32450D01*
Y4400D01*
X32835D01*
Y4785D01*
D02*
G37*
G36*
X27350Y4782D02*
X27287Y4773D01*
X27181Y4730D01*
X27090Y4660D01*
X27020Y4569D01*
X26977Y4463D01*
X26968Y4400D01*
X27350D01*
Y4782D01*
D02*
G37*
G36*
X32350Y4785D02*
X31965D01*
Y4400D01*
X32350D01*
Y4785D01*
D02*
G37*
G36*
X33788Y4600D02*
X33550D01*
Y4321D01*
X33889D01*
Y4438D01*
X33804Y4433D01*
X33792Y4428D01*
X33788Y4422D01*
Y4600D01*
D02*
G37*
G36*
X33450D02*
X33111D01*
Y4321D01*
X33450D01*
Y4600D01*
D02*
G37*
G36*
X32835Y4300D02*
X32450D01*
Y3915D01*
X32835D01*
Y4300D01*
D02*
G37*
G36*
X32350D02*
X31965D01*
Y3915D01*
X32350D01*
Y4300D01*
D02*
G37*
G36*
X10442Y3695D02*
X10095D01*
X10096Y3692D01*
X10118Y3656D01*
X10143Y3628D01*
X10173Y3609D01*
X10206Y3597D01*
X10244Y3593D01*
X9900D01*
Y3350D01*
X10442D01*
Y3695D01*
D02*
G37*
G36*
X9605D02*
X9258D01*
Y3350D01*
X9800D01*
Y3593D01*
X9456D01*
X9494Y3597D01*
X9527Y3609D01*
X9557Y3628D01*
X9582Y3656D01*
X9604Y3692D01*
X9605Y3695D01*
D02*
G37*
G36*
X3392D02*
X3045D01*
X3046Y3692D01*
X3068Y3656D01*
X3093Y3628D01*
X3123Y3609D01*
X3156Y3597D01*
X3194Y3593D01*
X2850D01*
Y3350D01*
X3392D01*
Y3695D01*
D02*
G37*
G36*
X2555D02*
X2208D01*
Y3350D01*
X2750D01*
Y3593D01*
X2406D01*
X2444Y3597D01*
X2477Y3609D01*
X2507Y3628D01*
X2532Y3656D01*
X2554Y3692D01*
X2555Y3695D01*
D02*
G37*
G36*
X10442Y3250D02*
X9900D01*
Y2905D01*
X10442D01*
Y3250D01*
D02*
G37*
G36*
X9800D02*
X9258D01*
Y2905D01*
X9800D01*
Y3250D01*
D02*
G37*
G36*
X3392D02*
X2850D01*
Y2905D01*
X3392D01*
Y3250D01*
D02*
G37*
G36*
X2750D02*
X2208D01*
Y2905D01*
X2750D01*
Y3250D01*
D02*
G37*
G36*
X31102Y9566D02*
X31011Y9554D01*
X30926Y9518D01*
X30853Y9462D01*
X30797Y9389D01*
X30761Y9304D01*
X30749Y9213D01*
X30761Y9121D01*
X30797Y9036D01*
X30853Y8963D01*
X30859Y8959D01*
X30870Y8947D01*
X30882Y8933D01*
X30892Y8919D01*
X30900Y8905D01*
X30907Y8892D01*
X30912Y8879D01*
X30916Y8866D01*
X30919Y8853D01*
X30920Y8846D01*
Y6138D01*
X27247Y2466D01*
X7489D01*
X6847Y3107D01*
X6822Y3135D01*
X6804Y3157D01*
X6792Y3174D01*
Y3225D01*
X6793Y3229D01*
X6792Y3232D01*
Y3695D01*
X5608D01*
Y2905D01*
X6464D01*
X6468Y2904D01*
X6472Y2905D01*
X6523D01*
X6539Y2894D01*
X6583Y2857D01*
X7285Y2155D01*
X7285Y2155D01*
X7344Y2115D01*
X7413Y2101D01*
X7413Y2101D01*
X27323D01*
X27323Y2101D01*
X27393Y2115D01*
X27452Y2155D01*
X31231Y5934D01*
X31231Y5934D01*
X31271Y5993D01*
X31285Y6063D01*
Y8846D01*
X31285Y8853D01*
X31288Y8866D01*
X31292Y8879D01*
X31298Y8892D01*
X31305Y8905D01*
X31313Y8919D01*
X31323Y8933D01*
X31335Y8947D01*
X31346Y8959D01*
X31352Y8963D01*
X31408Y9036D01*
X31443Y9121D01*
X31455Y9213D01*
X31443Y9304D01*
X31408Y9389D01*
X31352Y9462D01*
X31279Y9518D01*
X31194Y9554D01*
X31102Y9566D01*
D02*
G37*
G36*
X30800Y2039D02*
Y1400D01*
X31439D01*
X31431Y1485D01*
X31391Y1616D01*
X31327Y1736D01*
X31241Y1841D01*
X31135Y1927D01*
X31016Y1991D01*
X30885Y2031D01*
X30800Y2039D01*
D02*
G37*
G36*
X33441Y2041D02*
X32800D01*
Y1400D01*
X33441D01*
Y2041D01*
D02*
G37*
G36*
X30700Y2039D02*
X30615Y2031D01*
X30484Y1991D01*
X30364Y1927D01*
X30259Y1841D01*
X30173Y1736D01*
X30109Y1616D01*
X30069Y1485D01*
X30061Y1400D01*
X30700D01*
Y2039D01*
D02*
G37*
G36*
X32700Y2041D02*
X32059D01*
Y1400D01*
X32700D01*
Y2041D01*
D02*
G37*
G36*
X31439Y1300D02*
X30800D01*
Y661D01*
X30885Y669D01*
X31016Y709D01*
X31135Y773D01*
X31241Y859D01*
X31327Y964D01*
X31391Y1084D01*
X31431Y1215D01*
X31439Y1300D01*
D02*
G37*
G36*
X30700D02*
X30061D01*
X30069Y1215D01*
X30109Y1084D01*
X30173Y964D01*
X30259Y859D01*
X30364Y773D01*
X30484Y709D01*
X30615Y669D01*
X30700Y661D01*
Y1300D01*
D02*
G37*
G36*
X33441D02*
X32800D01*
Y659D01*
X33441D01*
Y1300D01*
D02*
G37*
G36*
X32700D02*
X32059D01*
Y659D01*
X32700D01*
Y1300D01*
D02*
G37*
G36*
X37008Y714D02*
X36869Y700D01*
X36735Y659D01*
X36611Y593D01*
X36503Y505D01*
X36414Y397D01*
X36349Y273D01*
X36308Y139D01*
X36294Y0D01*
X36308Y-139D01*
X36349Y-273D01*
X36414Y-397D01*
X36503Y-505D01*
X36611Y-593D01*
X36735Y-659D01*
X36869Y-700D01*
X37008Y-714D01*
X37147Y-700D01*
X37281Y-659D01*
X37404Y-593D01*
X37513Y-505D01*
X37601Y-397D01*
X37667Y-273D01*
X37708Y-139D01*
X37722Y0D01*
X37708Y139D01*
X37667Y273D01*
X37601Y397D01*
X37513Y505D01*
X37404Y593D01*
X37281Y659D01*
X37147Y700D01*
X37008Y714D01*
D02*
G37*
G36*
X-0D02*
X-139Y700D01*
X-273Y659D01*
X-397Y593D01*
X-505Y505D01*
X-593Y397D01*
X-659Y273D01*
X-700Y139D01*
X-714Y0D01*
X-700Y-139D01*
X-659Y-273D01*
X-593Y-397D01*
X-505Y-505D01*
X-397Y-593D01*
X-273Y-659D01*
X-139Y-700D01*
X-0Y-714D01*
X139Y-700D01*
X273Y-659D01*
X396Y-593D01*
X505Y-505D01*
X593Y-397D01*
X659Y-273D01*
X700Y-139D01*
X714Y0D01*
X700Y139D01*
X659Y273D01*
X593Y397D01*
X505Y505D01*
X396Y593D01*
X273Y659D01*
X139Y700D01*
X-0Y714D01*
D02*
G37*
%LPD*%
G36*
X29747Y35565D02*
X29704Y35565D01*
X29627Y35558D01*
X29592Y35552D01*
X29560Y35543D01*
X29529Y35533D01*
X29502Y35521D01*
X29477Y35507D01*
X29454Y35490D01*
X29434Y35472D01*
X29322Y35584D01*
X29340Y35604D01*
X29357Y35627D01*
X29371Y35652D01*
X29383Y35679D01*
X29393Y35710D01*
X29402Y35742D01*
X29408Y35777D01*
X29412Y35814D01*
X29415Y35854D01*
X29415Y35897D01*
X29747Y35565D01*
D02*
G37*
G36*
X28519Y30850D02*
X28502Y30831D01*
X28487Y30810D01*
X28474Y30788D01*
X28463Y30764D01*
X28455Y30738D01*
X28448Y30711D01*
X28444Y30682D01*
X28442Y30651D01*
X28442Y30619D01*
X28444Y30585D01*
X28129Y30852D01*
X28164Y30856D01*
X28230Y30867D01*
X28260Y30875D01*
X28288Y30884D01*
X28314Y30895D01*
X28338Y30907D01*
X28360Y30920D01*
X28380Y30935D01*
X28398Y30952D01*
X28519Y30850D01*
D02*
G37*
G36*
X20826Y36600D02*
X20852Y36578D01*
X20877Y36559D01*
X20902Y36542D01*
X20927Y36528D01*
X20952Y36517D01*
X20977Y36508D01*
X21002Y36501D01*
X21027Y36497D01*
X21052Y36496D01*
Y36339D01*
X21027Y36337D01*
X21002Y36333D01*
X20977Y36327D01*
X20952Y36318D01*
X20927Y36307D01*
X20902Y36293D01*
X20877Y36276D01*
X20852Y36257D01*
X20826Y36235D01*
X20801Y36211D01*
Y36624D01*
X20826Y36600D01*
D02*
G37*
G36*
X20773Y36181D02*
X20751Y36156D01*
X20732Y36131D01*
X20715Y36106D01*
X20701Y36081D01*
X20690Y36056D01*
X20681Y36031D01*
X20674Y36006D01*
X20671Y35981D01*
X20669Y35956D01*
X20512D01*
X20511Y35981D01*
X20507Y36006D01*
X20500Y36031D01*
X20491Y36056D01*
X20480Y36081D01*
X20466Y36106D01*
X20449Y36131D01*
X20430Y36156D01*
X20408Y36181D01*
X20384Y36206D01*
X20797D01*
X20773Y36181D01*
D02*
G37*
G36*
X21582Y36433D02*
X21608Y36415D01*
X21638Y36399D01*
X21671Y36386D01*
X21708Y36374D01*
X21749Y36365D01*
X21793Y36358D01*
X21840Y36353D01*
X21946Y36350D01*
X21550Y35954D01*
X21549Y36009D01*
X21542Y36107D01*
X21535Y36151D01*
X21526Y36192D01*
X21514Y36229D01*
X21501Y36262D01*
X21485Y36292D01*
X21467Y36318D01*
X21447Y36341D01*
X21559Y36453D01*
X21582Y36433D01*
D02*
G37*
G36*
X20670Y35839D02*
X20672Y35812D01*
X20676Y35788D01*
X20682Y35767D01*
X20689Y35750D01*
X20698Y35736D01*
X20708Y35724D01*
X20720Y35717D01*
X20733Y35712D01*
X20748Y35710D01*
X20433D01*
X20448Y35712D01*
X20461Y35717D01*
X20473Y35724D01*
X20483Y35736D01*
X20492Y35750D01*
X20499Y35767D01*
X20505Y35788D01*
X20509Y35812D01*
X20511Y35839D01*
X20512Y35869D01*
X20669D01*
X20670Y35839D01*
D02*
G37*
G36*
X15262Y35467D02*
X15237Y35484D01*
X15209Y35493D01*
X15175D01*
X15137Y35484D01*
X15095Y35467D01*
X15048Y35440D01*
X14997Y35404D01*
X14941Y35360D01*
X14817Y35244D01*
X14594Y35467D01*
X14656Y35531D01*
X14754Y35647D01*
X14790Y35698D01*
X14817Y35745D01*
X14834Y35787D01*
X14843Y35825D01*
Y35859D01*
X14834Y35887D01*
X14817Y35912D01*
X15262Y35467D01*
D02*
G37*
G36*
X35535Y35552D02*
X35508Y35542D01*
X35485Y35526D01*
X35464Y35504D01*
X35447Y35476D01*
X35433Y35441D01*
X35422Y35401D01*
X35414Y35353D01*
X35409Y35300D01*
X35407Y35240D01*
X35093D01*
X35091Y35300D01*
X35086Y35353D01*
X35078Y35401D01*
X35067Y35441D01*
X35053Y35476D01*
X35036Y35504D01*
X35015Y35526D01*
X34992Y35542D01*
X34965Y35552D01*
X34935Y35555D01*
X35565D01*
X35535Y35552D01*
D02*
G37*
G36*
X35410Y35036D02*
X35419Y34985D01*
X35433Y34936D01*
X35453Y34889D01*
X35478Y34843D01*
X35509Y34799D01*
X35545Y34757D01*
X35588Y34717D01*
X35636Y34678D01*
X35689Y34641D01*
X34880Y34473D01*
X34920Y34536D01*
X34988Y34656D01*
X35016Y34713D01*
X35058Y34822D01*
X35073Y34874D01*
X35084Y34925D01*
X35090Y34973D01*
X35093Y35020D01*
X35407Y35088D01*
X35410Y35036D01*
D02*
G37*
G36*
X35309Y32107D02*
X35313Y32054D01*
X35320Y32006D01*
X35329Y31965D01*
X35342Y31931D01*
X35357Y31902D01*
X35374Y31880D01*
X35395Y31865D01*
X35418Y31855D01*
X35444Y31852D01*
X34856D01*
X34882Y31855D01*
X34905Y31865D01*
X34926Y31880D01*
X34943Y31902D01*
X34958Y31931D01*
X34971Y31965D01*
X34980Y32006D01*
X34987Y32054D01*
X34991Y32107D01*
X34993Y32167D01*
X35307D01*
X35309Y32107D01*
D02*
G37*
G36*
X35426Y31685D02*
X35417Y31656D01*
Y31622D01*
X35426Y31585D01*
X35444Y31542D01*
X35471Y31495D01*
X35506Y31444D01*
X35551Y31389D01*
X35667Y31264D01*
X35444Y31041D01*
X35379Y31103D01*
X35264Y31201D01*
X35212Y31237D01*
X35166Y31264D01*
X35123Y31282D01*
X35086Y31291D01*
X35052D01*
X35023Y31282D01*
X34999Y31264D01*
X35444Y31709D01*
X35426Y31685D01*
D02*
G37*
G36*
X35347Y30336D02*
X35339Y30323D01*
X35332Y30307D01*
X35325Y30289D01*
X35320Y30269D01*
X35315Y30246D01*
X35312Y30221D01*
X35308Y30163D01*
X35307Y30131D01*
X34993D01*
X34992Y30163D01*
X34988Y30221D01*
X34985Y30246D01*
X34980Y30269D01*
X34975Y30289D01*
X34968Y30307D01*
X34961Y30323D01*
X34953Y30336D01*
X34943Y30347D01*
X35357D01*
X35347Y30336D01*
D02*
G37*
G36*
X35309Y28244D02*
X35314Y28190D01*
X35322Y28143D01*
X35333Y28102D01*
X35347Y28067D01*
X35364Y28039D01*
X35385Y28017D01*
X35408Y28001D01*
X35435Y27991D01*
X35465Y27988D01*
X34835D01*
X34865Y27991D01*
X34892Y28001D01*
X34915Y28017D01*
X34936Y28039D01*
X34953Y28067D01*
X34967Y28102D01*
X34978Y28143D01*
X34986Y28190D01*
X34991Y28244D01*
X34993Y28304D01*
X35307D01*
X35309Y28244D01*
D02*
G37*
G36*
X34562Y27085D02*
X34559Y27115D01*
X34549Y27142D01*
X34533Y27165D01*
X34511Y27186D01*
X34483Y27203D01*
X34448Y27217D01*
X34407Y27228D01*
X34360Y27236D01*
X34306Y27241D01*
X34246Y27243D01*
Y27557D01*
X34306Y27559D01*
X34360Y27564D01*
X34407Y27572D01*
X34448Y27583D01*
X34483Y27597D01*
X34511Y27614D01*
X34533Y27635D01*
X34549Y27658D01*
X34559Y27685D01*
X34562Y27715D01*
Y27085D01*
D02*
G37*
G36*
X35435Y26807D02*
X35408Y26798D01*
X35385Y26782D01*
X35364Y26760D01*
X35347Y26732D01*
X35333Y26697D01*
X35322Y26656D01*
X35314Y26609D01*
X35309Y26556D01*
X35307Y26496D01*
X34993D01*
X34991Y26556D01*
X34986Y26609D01*
X34978Y26656D01*
X34967Y26697D01*
X34953Y26732D01*
X34936Y26760D01*
X34915Y26782D01*
X34892Y26798D01*
X34865Y26807D01*
X34835Y26811D01*
X35465D01*
X35435Y26807D01*
D02*
G37*
G36*
X35310Y26273D02*
X35318Y26223D01*
X35331Y26173D01*
X35348Y26123D01*
X35371Y26073D01*
X35400Y26022D01*
X35433Y25972D01*
X35471Y25922D01*
X35515Y25872D01*
X35563Y25822D01*
X34737D01*
X34785Y25872D01*
X34829Y25922D01*
X34867Y25972D01*
X34900Y26022D01*
X34929Y26073D01*
X34952Y26123D01*
X34969Y26173D01*
X34982Y26223D01*
X34990Y26273D01*
X34993Y26323D01*
X35307D01*
X35310Y26273D01*
D02*
G37*
G36*
X37047Y21614D02*
X36732Y20919D01*
X36730Y20977D01*
X36723Y21023D01*
X36712Y21060D01*
X36697Y21085D01*
X36677Y21100D01*
X36652Y21103D01*
X36623Y21097D01*
X36590Y21079D01*
X36552Y21050D01*
X36510Y21011D01*
Y21457D01*
X36552Y21502D01*
X36590Y21549D01*
X36623Y21599D01*
X36652Y21650D01*
X36677Y21702D01*
X36697Y21757D01*
X36712Y21814D01*
X36723Y21872D01*
X36730Y21932D01*
X36732Y21994D01*
X37047Y21614D01*
D02*
G37*
G36*
X34906Y19408D02*
X34882Y19382D01*
X34841Y19332D01*
X34825Y19308D01*
X34811Y19284D01*
X34800Y19261D01*
X34792Y19237D01*
X34787Y19215D01*
X34784Y19192D01*
X34784Y19171D01*
X34436Y19484D01*
X34457Y19486D01*
X34479Y19491D01*
X34501Y19498D01*
X34524Y19508D01*
X34547Y19520D01*
X34571Y19534D01*
X34595Y19551D01*
X34620Y19571D01*
X34670Y19617D01*
X34906Y19408D01*
D02*
G37*
G36*
X15186Y18188D02*
X15236Y18147D01*
X15260Y18130D01*
X15284Y18116D01*
X15307Y18105D01*
X15330Y18096D01*
X15353Y18089D01*
X15375Y18086D01*
X15397Y18085D01*
X15065Y17753D01*
X15064Y17775D01*
X15061Y17797D01*
X15054Y17820D01*
X15045Y17843D01*
X15034Y17866D01*
X15020Y17890D01*
X15003Y17914D01*
X14984Y17939D01*
X14962Y17964D01*
X14938Y17989D01*
X15161Y18212D01*
X15186Y18188D01*
D02*
G37*
G36*
X15655Y17970D02*
X15673Y17957D01*
X15694Y17945D01*
X15716Y17935D01*
X15741Y17927D01*
X15768Y17920D01*
X15797Y17914D01*
X15828Y17911D01*
X15861Y17908D01*
X15896Y17907D01*
Y17593D01*
X15861Y17592D01*
X15797Y17586D01*
X15768Y17580D01*
X15741Y17573D01*
X15716Y17565D01*
X15694Y17555D01*
X15673Y17543D01*
X15655Y17530D01*
X15639Y17516D01*
Y17984D01*
X15655Y17970D01*
D02*
G37*
G36*
X33791Y5564D02*
X33801Y5552D01*
X33817Y5542D01*
X33839Y5533D01*
X33867Y5525D01*
X33902Y5519D01*
X33942Y5514D01*
X34043Y5509D01*
X34103Y5508D01*
Y5193D01*
X34043Y5192D01*
X33902Y5182D01*
X33867Y5175D01*
X33839Y5168D01*
X33817Y5159D01*
X33801Y5148D01*
X33791Y5136D01*
X33788Y5123D01*
Y5578D01*
X33791Y5564D01*
D02*
G37*
G36*
X33212Y5123D02*
X33209Y5136D01*
X33201Y5148D01*
X33188Y5159D01*
X33170Y5168D01*
X33146Y5175D01*
X33117Y5182D01*
X33083Y5187D01*
X33044Y5190D01*
X32949Y5193D01*
Y5508D01*
X32999Y5509D01*
X33117Y5519D01*
X33146Y5525D01*
X33170Y5533D01*
X33188Y5542D01*
X33201Y5552D01*
X33209Y5564D01*
X33212Y5578D01*
Y5123D01*
D02*
G37*
G36*
X32655Y5570D02*
X32673Y5557D01*
X32694Y5545D01*
X32716Y5535D01*
X32741Y5527D01*
X32768Y5520D01*
X32797Y5514D01*
X32828Y5511D01*
X32861Y5508D01*
X32896Y5507D01*
Y5193D01*
X32861Y5192D01*
X32797Y5186D01*
X32768Y5180D01*
X32741Y5173D01*
X32716Y5165D01*
X32694Y5155D01*
X32673Y5143D01*
X32655Y5130D01*
X32639Y5116D01*
Y5584D01*
X32655Y5570D01*
D02*
G37*
G36*
X26093Y36165D02*
X26079Y36160D01*
X26067Y36152D01*
X26057Y36141D01*
X26048Y36127D01*
X26041Y36110D01*
X26036Y36089D01*
X26032Y36066D01*
X26030Y36039D01*
X26029Y36009D01*
X25871D01*
X25870Y36039D01*
X25868Y36066D01*
X25864Y36089D01*
X25859Y36110D01*
X25852Y36127D01*
X25843Y36141D01*
X25833Y36152D01*
X25821Y36160D01*
X25807Y36165D01*
X25793Y36167D01*
X26107D01*
X26093Y36165D01*
D02*
G37*
G36*
X26030Y35366D02*
X26032Y35339D01*
X26036Y35315D01*
X26042Y35295D01*
X26049Y35278D01*
X26057Y35263D01*
X26068Y35252D01*
X26080Y35244D01*
X26093Y35240D01*
X26108Y35238D01*
X25793D01*
X25808Y35240D01*
X25821Y35244D01*
X25833Y35252D01*
X25843Y35263D01*
X25852Y35278D01*
X25859Y35295D01*
X25865Y35315D01*
X25869Y35339D01*
X25871Y35366D01*
X25872Y35396D01*
X26029D01*
X26030Y35366D01*
D02*
G37*
G36*
X25024Y34793D02*
X25022Y34807D01*
X25017Y34821D01*
X25009Y34833D01*
X24998Y34843D01*
X24984Y34852D01*
X24967Y34859D01*
X24946Y34864D01*
X24922Y34868D01*
X24895Y34870D01*
X24865Y34871D01*
Y35029D01*
X24895Y35030D01*
X24922Y35032D01*
X24946Y35036D01*
X24967Y35041D01*
X24984Y35048D01*
X24998Y35057D01*
X25009Y35067D01*
X25017Y35079D01*
X25022Y35093D01*
X25024Y35107D01*
Y34793D01*
D02*
G37*
G36*
X24275Y35192D02*
X24350Y35127D01*
X24386Y35101D01*
X24421Y35079D01*
X24455Y35061D01*
X24488Y35047D01*
X24521Y35037D01*
X24552Y35031D01*
X24582Y35029D01*
Y34871D01*
X24552Y34869D01*
X24521Y34863D01*
X24488Y34853D01*
X24455Y34839D01*
X24421Y34821D01*
X24386Y34799D01*
X24350Y34773D01*
X24313Y34742D01*
X24236Y34670D01*
Y35230D01*
X24275Y35192D01*
D02*
G37*
G36*
X33147Y30263D02*
X33112Y30262D01*
X33079Y30260D01*
X33048Y30256D01*
X33018Y30250D01*
X32991Y30242D01*
X32965Y30232D01*
X32941Y30221D01*
X32918Y30208D01*
X32898Y30193D01*
X32879Y30176D01*
X32768Y30287D01*
X32785Y30306D01*
X32800Y30326D01*
X32813Y30348D01*
X32824Y30372D01*
X32834Y30398D01*
X32842Y30426D01*
X32848Y30456D01*
X32852Y30487D01*
X32854Y30520D01*
X32855Y30555D01*
X33147Y30263D01*
D02*
G37*
G36*
X32147D02*
X32112Y30262D01*
X32079Y30260D01*
X32048Y30256D01*
X32018Y30250D01*
X31990Y30242D01*
X31965Y30232D01*
X31941Y30221D01*
X31918Y30208D01*
X31898Y30193D01*
X31879Y30176D01*
X31768Y30287D01*
X31785Y30306D01*
X31800Y30326D01*
X31813Y30348D01*
X31824Y30372D01*
X31834Y30398D01*
X31842Y30426D01*
X31848Y30456D01*
X31852Y30487D01*
X31854Y30520D01*
X31855Y30555D01*
X32147Y30263D01*
D02*
G37*
G36*
X30332Y30322D02*
X30311Y30297D01*
X30291Y30272D01*
X30275Y30247D01*
X30261Y30222D01*
X30249Y30196D01*
X30240Y30171D01*
X30234Y30146D01*
X30230Y30121D01*
X30229Y30096D01*
X30071D01*
X30070Y30121D01*
X30066Y30146D01*
X30060Y30171D01*
X30051Y30196D01*
X30039Y30222D01*
X30025Y30247D01*
X30009Y30272D01*
X29989Y30297D01*
X29968Y30322D01*
X29943Y30347D01*
X30357D01*
X30332Y30322D01*
D02*
G37*
G36*
X15669Y21955D02*
X15729Y21905D01*
X15758Y21885D01*
X15787Y21868D01*
X15815Y21854D01*
X15844Y21843D01*
X15871Y21835D01*
X15899Y21830D01*
X15926Y21829D01*
Y21671D01*
X15899Y21670D01*
X15871Y21665D01*
X15844Y21657D01*
X15815Y21646D01*
X15787Y21632D01*
X15758Y21615D01*
X15729Y21595D01*
X15699Y21572D01*
X15669Y21545D01*
X15639Y21516D01*
Y21984D01*
X15669Y21955D01*
D02*
G37*
G36*
Y20955D02*
X15729Y20905D01*
X15758Y20885D01*
X15787Y20868D01*
X15815Y20854D01*
X15844Y20843D01*
X15871Y20835D01*
X15899Y20830D01*
X15926Y20829D01*
Y20671D01*
X15899Y20670D01*
X15871Y20665D01*
X15844Y20657D01*
X15815Y20646D01*
X15787Y20632D01*
X15758Y20615D01*
X15729Y20595D01*
X15699Y20572D01*
X15669Y20545D01*
X15639Y20516D01*
Y20984D01*
X15669Y20955D01*
D02*
G37*
G36*
Y19955D02*
X15729Y19905D01*
X15758Y19885D01*
X15787Y19868D01*
X15815Y19854D01*
X15844Y19843D01*
X15871Y19835D01*
X15899Y19830D01*
X15926Y19829D01*
Y19671D01*
X15899Y19670D01*
X15871Y19665D01*
X15844Y19657D01*
X15815Y19646D01*
X15787Y19632D01*
X15758Y19615D01*
X15729Y19595D01*
X15699Y19572D01*
X15669Y19545D01*
X15639Y19516D01*
Y19984D01*
X15669Y19955D01*
D02*
G37*
G36*
X32704Y18260D02*
X32727Y18243D01*
X32752Y18229D01*
X32779Y18217D01*
X32810Y18207D01*
X32842Y18198D01*
X32877Y18192D01*
X32914Y18188D01*
X32954Y18185D01*
X32997Y18185D01*
X32665Y17853D01*
X32665Y17896D01*
X32658Y17973D01*
X32652Y18008D01*
X32643Y18040D01*
X32633Y18071D01*
X32621Y18098D01*
X32607Y18123D01*
X32590Y18146D01*
X32572Y18166D01*
X32684Y18278D01*
X32704Y18260D01*
D02*
G37*
G36*
X32997Y17515D02*
X32954Y17515D01*
X32877Y17508D01*
X32842Y17502D01*
X32810Y17493D01*
X32779Y17483D01*
X32752Y17471D01*
X32727Y17457D01*
X32704Y17440D01*
X32684Y17422D01*
X32572Y17534D01*
X32590Y17554D01*
X32607Y17577D01*
X32621Y17602D01*
X32633Y17629D01*
X32643Y17660D01*
X32652Y17692D01*
X32658Y17727D01*
X32662Y17764D01*
X32665Y17804D01*
X32665Y17847D01*
X32997Y17515D01*
D02*
G37*
G36*
X31205Y17581D02*
X31155Y17521D01*
X31135Y17492D01*
X31118Y17463D01*
X31104Y17435D01*
X31093Y17406D01*
X31085Y17379D01*
X31080Y17351D01*
X31079Y17324D01*
X30921D01*
X30920Y17351D01*
X30915Y17379D01*
X30907Y17406D01*
X30896Y17435D01*
X30882Y17463D01*
X30865Y17492D01*
X30845Y17521D01*
X30822Y17551D01*
X30795Y17581D01*
X30766Y17611D01*
X31234D01*
X31205Y17581D01*
D02*
G37*
G36*
X30205D02*
X30155Y17521D01*
X30135Y17492D01*
X30118Y17463D01*
X30104Y17435D01*
X30093Y17406D01*
X30085Y17379D01*
X30080Y17351D01*
X30079Y17324D01*
X29921D01*
X29920Y17351D01*
X29915Y17379D01*
X29907Y17406D01*
X29896Y17435D01*
X29882Y17463D01*
X29865Y17492D01*
X29845Y17521D01*
X29822Y17551D01*
X29795Y17581D01*
X29766Y17611D01*
X30234D01*
X30205Y17581D01*
D02*
G37*
G36*
X32512Y18080D02*
X32520Y18069D01*
X32529Y18052D01*
X32538Y18033D01*
X32545Y18011D01*
X32552Y17986D01*
X32557Y17959D01*
X32563Y17890D01*
X32563Y17863D01*
X32562Y17850D01*
X32563Y17837D01*
X32563Y17808D01*
X32561Y17774D01*
X32557Y17742D01*
X32552Y17714D01*
X32545Y17689D01*
X32538Y17667D01*
X32529Y17648D01*
X32520Y17631D01*
X32512Y17620D01*
X32066Y17174D01*
X32029Y17189D01*
Y17189D01*
X31372D01*
Y17189D01*
X31328D01*
Y17189D01*
X31185D01*
X31183Y17201D01*
X31182Y17211D01*
Y17342D01*
X31185Y17356D01*
X31190Y17374D01*
X31197Y17394D01*
X31207Y17415D01*
X31221Y17437D01*
X31236Y17459D01*
X31280Y17512D01*
X31300Y17532D01*
X31310Y17540D01*
X31380Y17631D01*
X31423Y17737D01*
X31438Y17850D01*
X31423Y17963D01*
X31380Y18069D01*
X31310Y18160D01*
X31219Y18230D01*
X31113Y18273D01*
X31000Y18288D01*
X30887Y18273D01*
X30781Y18230D01*
X30690Y18160D01*
X30620Y18069D01*
X30577Y17963D01*
X30562Y17850D01*
X30577Y17737D01*
X30620Y17631D01*
X30690Y17540D01*
X30700Y17532D01*
X30721Y17511D01*
X30743Y17485D01*
X30763Y17461D01*
X30779Y17437D01*
X30793Y17415D01*
X30803Y17394D01*
X30810Y17374D01*
X30815Y17356D01*
X30818Y17342D01*
Y17211D01*
X30817Y17201D01*
X30815Y17189D01*
X30672D01*
Y16411D01*
X30815D01*
X30817Y16398D01*
X30818Y16388D01*
Y14825D01*
X30818Y14825D01*
X30826Y14785D01*
X30805Y14757D01*
X30765Y14661D01*
X30751Y14558D01*
X30765Y14455D01*
X30805Y14359D01*
X30837Y14316D01*
X30813Y14266D01*
X30487D01*
X30463Y14316D01*
X30495Y14359D01*
X30535Y14455D01*
X30549Y14558D01*
X30535Y14661D01*
X30495Y14757D01*
X30432Y14840D01*
X30349Y14903D01*
X30253Y14943D01*
X30182Y14952D01*
Y16389D01*
X30183Y16399D01*
X30185Y16411D01*
X30328D01*
Y17189D01*
X30185D01*
X30183Y17202D01*
X30182Y17212D01*
Y17342D01*
X30185Y17356D01*
X30190Y17374D01*
X30197Y17394D01*
X30207Y17415D01*
X30221Y17437D01*
X30236Y17459D01*
X30280Y17512D01*
X30300Y17532D01*
X30310Y17540D01*
X30380Y17631D01*
X30423Y17737D01*
X30438Y17850D01*
X30423Y17963D01*
X30380Y18069D01*
X30310Y18160D01*
X30219Y18230D01*
X30113Y18273D01*
X30000Y18288D01*
X29887Y18273D01*
X29781Y18230D01*
X29690Y18160D01*
X29620Y18069D01*
X29577Y17963D01*
X29562Y17850D01*
X29577Y17737D01*
X29620Y17631D01*
X29690Y17540D01*
X29700Y17532D01*
X29721Y17511D01*
X29743Y17485D01*
X29763Y17461D01*
X29779Y17437D01*
X29793Y17415D01*
X29803Y17394D01*
X29810Y17374D01*
X29815Y17356D01*
X29818Y17342D01*
Y17212D01*
X29817Y17202D01*
X29815Y17189D01*
X29672D01*
Y17189D01*
X29628D01*
Y17189D01*
X29484D01*
X29482Y17202D01*
X29481Y17212D01*
Y18121D01*
X29761Y18400D01*
X32192D01*
X32512Y18080D01*
D02*
G37*
G36*
X30080Y17216D02*
X30082Y17189D01*
X30086Y17165D01*
X30091Y17145D01*
X30098Y17128D01*
X30107Y17113D01*
X30117Y17102D01*
X30129Y17094D01*
X30143Y17090D01*
X30157Y17088D01*
X29843D01*
X29857Y17090D01*
X29871Y17094D01*
X29883Y17102D01*
X29893Y17113D01*
X29902Y17128D01*
X29909Y17145D01*
X29914Y17165D01*
X29918Y17189D01*
X29920Y17216D01*
X29921Y17246D01*
X30079D01*
X30080Y17216D01*
D02*
G37*
G36*
X29379D02*
X29381Y17189D01*
X29385Y17165D01*
X29391Y17145D01*
X29398Y17128D01*
X29406Y17113D01*
X29417Y17102D01*
X29428Y17094D01*
X29442Y17090D01*
X29457Y17088D01*
X29142D01*
X29157Y17090D01*
X29170Y17094D01*
X29182Y17102D01*
X29192Y17113D01*
X29201Y17128D01*
X29208Y17145D01*
X29213Y17165D01*
X29217Y17189D01*
X29220Y17216D01*
X29220Y17246D01*
X29378D01*
X29379Y17216D01*
D02*
G37*
G36*
X31080Y17215D02*
X31082Y17189D01*
X31086Y17165D01*
X31091Y17144D01*
X31098Y17127D01*
X31107Y17112D01*
X31117Y17101D01*
X31129Y17093D01*
X31143Y17089D01*
X31157Y17087D01*
X30843D01*
X30857Y17089D01*
X30871Y17093D01*
X30883Y17101D01*
X30893Y17112D01*
X30902Y17127D01*
X30909Y17144D01*
X30914Y17165D01*
X30918Y17189D01*
X30920Y17215D01*
X30921Y17246D01*
X31079D01*
X31080Y17215D01*
D02*
G37*
G36*
X31143Y16510D02*
X31129Y16506D01*
X31117Y16498D01*
X31107Y16487D01*
X31098Y16472D01*
X31091Y16455D01*
X31086Y16435D01*
X31082Y16411D01*
X31080Y16384D01*
X31079Y16354D01*
X30921D01*
X30920Y16384D01*
X30918Y16411D01*
X30914Y16435D01*
X30909Y16455D01*
X30902Y16472D01*
X30893Y16487D01*
X30883Y16498D01*
X30871Y16506D01*
X30857Y16510D01*
X30843Y16512D01*
X31157D01*
X31143Y16510D01*
D02*
G37*
G36*
X30143Y16511D02*
X30129Y16507D01*
X30117Y16499D01*
X30107Y16488D01*
X30098Y16473D01*
X30091Y16456D01*
X30086Y16435D01*
X30082Y16411D01*
X30080Y16385D01*
X30079Y16354D01*
X29921D01*
X29920Y16385D01*
X29918Y16411D01*
X29914Y16435D01*
X29909Y16456D01*
X29902Y16473D01*
X29893Y16488D01*
X29883Y16499D01*
X29871Y16507D01*
X29857Y16511D01*
X29843Y16513D01*
X30157D01*
X30143Y16511D01*
D02*
G37*
G36*
X34230Y15019D02*
X34231Y14994D01*
X34235Y14969D01*
X34241Y14944D01*
X34250Y14919D01*
X34262Y14894D01*
X34276Y14869D01*
X34292Y14843D01*
X34312Y14818D01*
X34333Y14793D01*
X34358Y14768D01*
X33944Y14770D01*
X33969Y14795D01*
X33990Y14820D01*
X34010Y14845D01*
X34026Y14870D01*
X34040Y14895D01*
X34052Y14920D01*
X34061Y14945D01*
X34067Y14970D01*
X34071Y14995D01*
X34072Y15020D01*
X34230Y15019D01*
D02*
G37*
G36*
X35079Y14264D02*
X35066Y14273D01*
X35052Y14277D01*
X35035D01*
X35016Y14273D01*
X34995Y14264D01*
X34972Y14250D01*
X34946Y14233D01*
X34918Y14210D01*
X34856Y14152D01*
X34745Y14264D01*
X34776Y14296D01*
X34825Y14354D01*
X34843Y14380D01*
X34856Y14403D01*
X34865Y14424D01*
X34869Y14443D01*
Y14460D01*
X34865Y14474D01*
X34856Y14487D01*
X35079Y14264D01*
D02*
G37*
G36*
X13741Y8343D02*
X13746Y8329D01*
X13754Y8317D01*
X13765Y8307D01*
X13779Y8298D01*
X13797Y8291D01*
X13817Y8286D01*
X13841Y8282D01*
X13868Y8280D01*
X13898Y8279D01*
Y8121D01*
X13868Y8120D01*
X13841Y8118D01*
X13817Y8114D01*
X13797Y8109D01*
X13779Y8102D01*
X13765Y8093D01*
X13754Y8083D01*
X13746Y8071D01*
X13741Y8057D01*
X13740Y8043D01*
Y8357D01*
X13741Y8343D01*
D02*
G37*
G36*
X6691D02*
X6696Y8329D01*
X6704Y8317D01*
X6715Y8307D01*
X6729Y8298D01*
X6747Y8291D01*
X6767Y8286D01*
X6791Y8282D01*
X6818Y8280D01*
X6848Y8279D01*
Y8121D01*
X6818Y8120D01*
X6791Y8118D01*
X6767Y8114D01*
X6747Y8109D01*
X6729Y8102D01*
X6715Y8093D01*
X6704Y8083D01*
X6696Y8071D01*
X6691Y8057D01*
X6690Y8043D01*
Y8357D01*
X6691Y8343D01*
D02*
G37*
%LPC*%
G36*
X32050Y18282D02*
Y17900D01*
X32432D01*
X32423Y17963D01*
X32380Y18069D01*
X32310Y18160D01*
X32219Y18230D01*
X32113Y18273D01*
X32050Y18282D01*
D02*
G37*
G36*
X31950Y18282D02*
X31887Y18273D01*
X31781Y18230D01*
X31690Y18160D01*
X31620Y18069D01*
X31577Y17963D01*
X31568Y17900D01*
X31950D01*
Y18282D01*
D02*
G37*
G36*
X32432Y17800D02*
X32050D01*
Y17418D01*
X32113Y17427D01*
X32219Y17470D01*
X32310Y17540D01*
X32380Y17631D01*
X32423Y17737D01*
X32432Y17800D01*
D02*
G37*
G36*
X31950D02*
X31568D01*
X31577Y17737D01*
X31620Y17631D01*
X31690Y17540D01*
X31781Y17470D01*
X31887Y17427D01*
X31950Y17418D01*
Y17800D01*
D02*
G37*
%LPD*%
G36*
X25944Y14346D02*
X25918Y14370D01*
X25892Y14391D01*
X25867Y14409D01*
X25842Y14424D01*
X25816Y14435D01*
X25791Y14444D01*
X25766Y14451D01*
X25741Y14454D01*
X25716Y14454D01*
X25691Y14451D01*
X25688Y14610D01*
X25713Y14615D01*
X25738Y14622D01*
X25763Y14632D01*
X25788Y14644D01*
X25812Y14658D01*
X25837Y14674D01*
X25861Y14692D01*
X25886Y14712D01*
X25934Y14760D01*
X25944Y14346D01*
D02*
G37*
G36*
X27147Y14263D02*
X27111Y14262D01*
X27077Y14259D01*
X27046Y14255D01*
X27017Y14248D01*
X26990Y14240D01*
X26966Y14229D01*
X26944Y14217D01*
X26925Y14203D01*
X26908Y14186D01*
X26894Y14168D01*
X26764Y14257D01*
X26781Y14284D01*
X26797Y14312D01*
X26811Y14341D01*
X26823Y14370D01*
X26833Y14399D01*
X26841Y14429D01*
X26847Y14460D01*
X26852Y14491D01*
X26854Y14523D01*
X26855Y14555D01*
X27147Y14263D01*
D02*
G37*
G36*
X25949Y13342D02*
X25922Y13365D01*
X25896Y13384D01*
X25871Y13401D01*
X25845Y13414D01*
X25820Y13423D01*
X25795Y13430D01*
X25770Y13433D01*
X25746Y13432D01*
X25722Y13428D01*
X25698Y13421D01*
X25690Y13585D01*
X25715Y13594D01*
X25739Y13605D01*
X25764Y13617D01*
X25788Y13631D01*
X25812Y13647D01*
X25836Y13665D01*
X25883Y13706D01*
X25907Y13730D01*
X25930Y13755D01*
X25949Y13342D01*
D02*
G37*
G36*
X28332Y13322D02*
X28311Y13297D01*
X28291Y13272D01*
X28275Y13247D01*
X28261Y13222D01*
X28249Y13196D01*
X28240Y13171D01*
X28234Y13146D01*
X28230Y13121D01*
X28229Y13096D01*
X28071D01*
X28070Y13121D01*
X28066Y13146D01*
X28060Y13171D01*
X28051Y13196D01*
X28039Y13222D01*
X28025Y13247D01*
X28009Y13272D01*
X27989Y13297D01*
X27968Y13322D01*
X27943Y13347D01*
X28357D01*
X28332Y13322D01*
D02*
G37*
G36*
X27332D02*
X27311Y13297D01*
X27291Y13272D01*
X27275Y13247D01*
X27261Y13222D01*
X27249Y13196D01*
X27240Y13171D01*
X27234Y13146D01*
X27230Y13121D01*
X27229Y13096D01*
X27071D01*
X27070Y13121D01*
X27066Y13146D01*
X27060Y13171D01*
X27051Y13196D01*
X27039Y13222D01*
X27025Y13247D01*
X27009Y13272D01*
X26989Y13297D01*
X26968Y13322D01*
X26943Y13347D01*
X27357D01*
X27332Y13322D01*
D02*
G37*
G36*
X27256Y9758D02*
X27264Y9748D01*
X27276Y9738D01*
X27291Y9729D01*
X27310Y9720D01*
X27333Y9711D01*
X27360Y9703D01*
X27425Y9686D01*
X27462Y9679D01*
X27073Y9419D01*
X27081Y9462D01*
X27103Y9609D01*
X27105Y9639D01*
X27104Y9690D01*
X27102Y9711D01*
X27098Y9730D01*
X27251Y9768D01*
X27256Y9758D01*
D02*
G37*
G36*
X27104Y8760D02*
X27127Y8743D01*
X27152Y8729D01*
X27179Y8717D01*
X27210Y8707D01*
X27242Y8698D01*
X27277Y8692D01*
X27314Y8688D01*
X27354Y8685D01*
X27397Y8685D01*
X27065Y8353D01*
X27065Y8396D01*
X27058Y8473D01*
X27052Y8508D01*
X27043Y8540D01*
X27033Y8571D01*
X27021Y8598D01*
X27007Y8623D01*
X26990Y8646D01*
X26972Y8666D01*
X27084Y8778D01*
X27104Y8760D01*
D02*
G37*
G36*
X20378Y8166D02*
X20360Y8146D01*
X20343Y8123D01*
X20329Y8098D01*
X20317Y8071D01*
X20307Y8040D01*
X20298Y8008D01*
X20292Y7973D01*
X20288Y7936D01*
X20285Y7896D01*
X20285Y7853D01*
X19953Y8185D01*
X19996Y8185D01*
X20073Y8192D01*
X20108Y8198D01*
X20140Y8207D01*
X20171Y8217D01*
X20198Y8229D01*
X20223Y8243D01*
X20246Y8260D01*
X20266Y8278D01*
X20378Y8166D01*
D02*
G37*
G36*
X19128Y7993D02*
X19133Y7979D01*
X19141Y7967D01*
X19152Y7957D01*
X19166Y7948D01*
X19184Y7941D01*
X19204Y7936D01*
X19228Y7932D01*
X19255Y7930D01*
X19285Y7929D01*
Y7771D01*
X19255Y7770D01*
X19228Y7768D01*
X19204Y7764D01*
X19184Y7759D01*
X19166Y7752D01*
X19152Y7743D01*
X19141Y7733D01*
X19133Y7721D01*
X19128Y7707D01*
X19127Y7693D01*
Y8007D01*
X19128Y7993D01*
D02*
G37*
G36*
X19711Y7616D02*
X19681Y7645D01*
X19621Y7695D01*
X19592Y7715D01*
X19563Y7732D01*
X19535Y7746D01*
X19506Y7757D01*
X19479Y7765D01*
X19451Y7770D01*
X19424Y7771D01*
Y7929D01*
X19451Y7930D01*
X19479Y7935D01*
X19506Y7943D01*
X19535Y7954D01*
X19563Y7968D01*
X19592Y7985D01*
X19621Y8005D01*
X19651Y8028D01*
X19681Y8055D01*
X19711Y8084D01*
Y7616D01*
D02*
G37*
G36*
X18343Y7561D02*
X18329Y7557D01*
X18317Y7549D01*
X18307Y7538D01*
X18298Y7523D01*
X18291Y7506D01*
X18286Y7485D01*
X18282Y7461D01*
X18280Y7434D01*
X18279Y7404D01*
X18121D01*
X18120Y7434D01*
X18118Y7461D01*
X18114Y7485D01*
X18109Y7506D01*
X18102Y7523D01*
X18093Y7538D01*
X18083Y7549D01*
X18071Y7557D01*
X18057Y7561D01*
X18043Y7563D01*
X18357D01*
X18343Y7561D01*
D02*
G37*
G36*
X27828Y7666D02*
X27810Y7646D01*
X27793Y7623D01*
X27779Y7598D01*
X27767Y7571D01*
X27757Y7540D01*
X27748Y7508D01*
X27742Y7473D01*
X27738Y7436D01*
X27735Y7396D01*
X27735Y7353D01*
X27403Y7685D01*
X27446Y7685D01*
X27523Y7692D01*
X27558Y7698D01*
X27590Y7707D01*
X27621Y7717D01*
X27648Y7729D01*
X27673Y7743D01*
X27696Y7760D01*
X27716Y7778D01*
X27828Y7666D01*
D02*
G37*
G36*
X18280Y7266D02*
X18282Y7239D01*
X18286Y7215D01*
X18291Y7195D01*
X18298Y7178D01*
X18307Y7163D01*
X18317Y7152D01*
X18329Y7144D01*
X18343Y7140D01*
X18357Y7138D01*
X18043D01*
X18057Y7140D01*
X18071Y7144D01*
X18083Y7152D01*
X18093Y7163D01*
X18102Y7178D01*
X18109Y7195D01*
X18114Y7215D01*
X18118Y7239D01*
X18120Y7266D01*
X18121Y7296D01*
X18279D01*
X18280Y7266D01*
D02*
G37*
G36*
X20378Y7166D02*
X20360Y7146D01*
X20343Y7123D01*
X20329Y7098D01*
X20317Y7071D01*
X20307Y7040D01*
X20298Y7008D01*
X20292Y6973D01*
X20288Y6936D01*
X20285Y6896D01*
X20285Y6853D01*
X19953Y7185D01*
X19996Y7185D01*
X20073Y7192D01*
X20108Y7198D01*
X20140Y7207D01*
X20171Y7217D01*
X20198Y7229D01*
X20223Y7243D01*
X20246Y7260D01*
X20266Y7278D01*
X20378Y7166D01*
D02*
G37*
G36*
X19128Y6993D02*
X19133Y6979D01*
X19141Y6967D01*
X19152Y6957D01*
X19166Y6948D01*
X19184Y6941D01*
X19204Y6936D01*
X19228Y6932D01*
X19255Y6930D01*
X19285Y6929D01*
Y6771D01*
X19255Y6770D01*
X19228Y6768D01*
X19204Y6764D01*
X19184Y6759D01*
X19166Y6752D01*
X19152Y6743D01*
X19141Y6733D01*
X19133Y6721D01*
X19128Y6707D01*
X19127Y6693D01*
Y7007D01*
X19128Y6993D01*
D02*
G37*
G36*
X23231Y7035D02*
X23241Y7029D01*
X23254Y7024D01*
X23271Y7020D01*
X23292Y7016D01*
X23316Y7013D01*
X23374Y7009D01*
X23446Y7007D01*
Y6693D01*
X23408Y6692D01*
X23292Y6684D01*
X23271Y6680D01*
X23254Y6676D01*
X23241Y6671D01*
X23231Y6665D01*
X23224Y6658D01*
Y7042D01*
X23231Y7035D01*
D02*
G37*
G36*
X24346Y7064D02*
X24356Y7052D01*
X24372Y7042D01*
X24394Y7032D01*
X24422Y7025D01*
X24457Y7018D01*
X24498Y7013D01*
X24598Y7008D01*
X24658Y7007D01*
Y6692D01*
X24598Y6691D01*
X24457Y6681D01*
X24422Y6675D01*
X24394Y6667D01*
X24372Y6658D01*
X24356Y6648D01*
X24346Y6636D01*
X24343Y6623D01*
Y7078D01*
X24346Y7064D01*
D02*
G37*
G36*
X23767Y6623D02*
X23764Y6636D01*
X23754Y6648D01*
X23739Y6658D01*
X23717Y6667D01*
X23688Y6675D01*
X23654Y6681D01*
X23613Y6686D01*
X23512Y6691D01*
X23452Y6692D01*
Y7007D01*
X23512Y7008D01*
X23654Y7018D01*
X23688Y7025D01*
X23717Y7032D01*
X23739Y7042D01*
X23754Y7052D01*
X23764Y7064D01*
X23767Y7078D01*
Y6623D01*
D02*
G37*
G36*
X19711Y6616D02*
X19681Y6645D01*
X19621Y6695D01*
X19592Y6715D01*
X19563Y6732D01*
X19535Y6746D01*
X19506Y6757D01*
X19479Y6765D01*
X19451Y6770D01*
X19424Y6771D01*
Y6929D01*
X19451Y6930D01*
X19479Y6935D01*
X19506Y6943D01*
X19535Y6954D01*
X19563Y6968D01*
X19592Y6985D01*
X19621Y7005D01*
X19651Y7028D01*
X19681Y7055D01*
X19711Y7084D01*
Y6616D01*
D02*
G37*
G36*
X18343Y6561D02*
X18329Y6557D01*
X18317Y6549D01*
X18307Y6538D01*
X18298Y6523D01*
X18291Y6506D01*
X18286Y6485D01*
X18282Y6461D01*
X18280Y6435D01*
X18279Y6404D01*
X18121D01*
X18120Y6435D01*
X18118Y6461D01*
X18114Y6485D01*
X18109Y6506D01*
X18102Y6523D01*
X18093Y6538D01*
X18083Y6549D01*
X18071Y6557D01*
X18057Y6561D01*
X18043Y6563D01*
X18357D01*
X18343Y6561D01*
D02*
G37*
G36*
X27828Y6666D02*
X27810Y6646D01*
X27793Y6623D01*
X27779Y6598D01*
X27767Y6571D01*
X27757Y6540D01*
X27748Y6508D01*
X27742Y6473D01*
X27738Y6436D01*
X27735Y6396D01*
X27735Y6353D01*
X27403Y6685D01*
X27446Y6685D01*
X27523Y6692D01*
X27558Y6698D01*
X27590Y6707D01*
X27621Y6717D01*
X27648Y6729D01*
X27673Y6743D01*
X27696Y6760D01*
X27716Y6778D01*
X27828Y6666D01*
D02*
G37*
G36*
X23170Y6595D02*
X23157Y6577D01*
X23145Y6556D01*
X23135Y6534D01*
X23127Y6509D01*
X23120Y6482D01*
X23114Y6453D01*
X23111Y6422D01*
X23111Y6422D01*
X23114Y6385D01*
X23122Y6337D01*
X23133Y6296D01*
X23147Y6261D01*
X23164Y6233D01*
X23185Y6211D01*
X23208Y6195D01*
X23235Y6185D01*
X23265Y6182D01*
X22635D01*
X22665Y6185D01*
X22692Y6195D01*
X22715Y6211D01*
X22736Y6233D01*
X22753Y6261D01*
X22767Y6296D01*
X22778Y6337D01*
X22786Y6385D01*
X22789Y6417D01*
X22786Y6453D01*
X22780Y6482D01*
X22773Y6509D01*
X22765Y6534D01*
X22755Y6556D01*
X22743Y6577D01*
X22730Y6595D01*
X22716Y6611D01*
X23184D01*
X23170Y6595D01*
D02*
G37*
G36*
X18280Y5711D02*
X18282Y5684D01*
X18286Y5660D01*
X18291Y5639D01*
X18298Y5622D01*
X18307Y5608D01*
X18317Y5597D01*
X18329Y5589D01*
X18343Y5584D01*
X18357Y5582D01*
X18043D01*
X18057Y5584D01*
X18071Y5589D01*
X18083Y5597D01*
X18093Y5608D01*
X18102Y5622D01*
X18109Y5639D01*
X18114Y5660D01*
X18118Y5684D01*
X18120Y5711D01*
X18121Y5741D01*
X18279D01*
X18280Y5711D01*
D02*
G37*
G36*
X27186Y5788D02*
X27236Y5747D01*
X27260Y5730D01*
X27284Y5716D01*
X27307Y5705D01*
X27330Y5696D01*
X27353Y5689D01*
X27375Y5686D01*
X27397Y5685D01*
X27065Y5353D01*
X27064Y5375D01*
X27061Y5397D01*
X27054Y5420D01*
X27045Y5443D01*
X27034Y5466D01*
X27020Y5490D01*
X27003Y5514D01*
X26984Y5539D01*
X26962Y5564D01*
X26938Y5589D01*
X27161Y5812D01*
X27186Y5788D01*
D02*
G37*
G36*
X32045Y11719D02*
X32018Y11718D01*
X31993Y11716D01*
X31969Y11712D01*
X31946Y11706D01*
X31923Y11699D01*
X31902Y11691D01*
X31882Y11680D01*
X31864Y11668D01*
X31846Y11654D01*
X31829Y11639D01*
X31718Y11750D01*
X31733Y11767D01*
X31747Y11785D01*
X31759Y11804D01*
X31769Y11824D01*
X31778Y11845D01*
X31785Y11867D01*
X31791Y11890D01*
X31795Y11914D01*
X31797Y11940D01*
X31797Y11966D01*
X32045Y11719D01*
D02*
G37*
G36*
X23155Y8581D02*
X23105Y8521D01*
X23085Y8492D01*
X23068Y8463D01*
X23054Y8435D01*
X23043Y8406D01*
X23035Y8379D01*
X23030Y8351D01*
X23030Y8350D01*
X23030Y8349D01*
X23035Y8321D01*
X23043Y8294D01*
X23054Y8265D01*
X23068Y8237D01*
X23085Y8208D01*
X23105Y8179D01*
X23128Y8149D01*
X23155Y8119D01*
X23184Y8089D01*
X22716D01*
X22745Y8119D01*
X22795Y8179D01*
X22815Y8208D01*
X22832Y8237D01*
X22846Y8265D01*
X22857Y8294D01*
X22865Y8321D01*
X22870Y8349D01*
X22870Y8350D01*
X22870Y8351D01*
X22865Y8379D01*
X22857Y8406D01*
X22846Y8435D01*
X22832Y8463D01*
X22815Y8492D01*
X22795Y8521D01*
X22772Y8551D01*
X22745Y8581D01*
X22716Y8611D01*
X23184D01*
X23155Y8581D01*
D02*
G37*
G36*
X22947Y7515D02*
X22904Y7515D01*
X22827Y7508D01*
X22792Y7502D01*
X22760Y7493D01*
X22729Y7483D01*
X22702Y7471D01*
X22677Y7457D01*
X22654Y7440D01*
X22634Y7422D01*
X22522Y7534D01*
X22540Y7554D01*
X22557Y7577D01*
X22571Y7602D01*
X22583Y7629D01*
X22593Y7660D01*
X22602Y7692D01*
X22608Y7727D01*
X22612Y7764D01*
X22615Y7804D01*
X22615Y7847D01*
X22947Y7515D01*
D02*
G37*
G36*
X21930Y3749D02*
X21935Y3721D01*
X21943Y3694D01*
X21954Y3665D01*
X21968Y3637D01*
X21985Y3608D01*
X22005Y3579D01*
X22028Y3549D01*
X22055Y3519D01*
X22084Y3489D01*
X21616D01*
X21645Y3519D01*
X21695Y3579D01*
X21715Y3608D01*
X21732Y3637D01*
X21746Y3665D01*
X21757Y3694D01*
X21765Y3721D01*
X21770Y3749D01*
X21771Y3776D01*
X21929D01*
X21930Y3749D01*
D02*
G37*
G36*
X13726Y3005D02*
X13715Y3001D01*
X13707Y2996D01*
X13704Y2988D01*
X13705Y2978D01*
X13709Y2966D01*
X13718Y2951D01*
X13730Y2935D01*
X13746Y2916D01*
X13767Y2895D01*
X13544D01*
X13522Y2916D01*
X13500Y2935D01*
X13477Y2951D01*
X13455Y2966D01*
X13433Y2978D01*
X13410Y2988D01*
X13388Y2996D01*
X13366Y3001D01*
X13344Y3005D01*
X13321Y3006D01*
X13741D01*
X13726Y3005D01*
D02*
G37*
G36*
X31259Y9015D02*
X31243Y8996D01*
X31228Y8976D01*
X31216Y8955D01*
X31205Y8935D01*
X31196Y8914D01*
X31190Y8892D01*
X31185Y8870D01*
X31182Y8848D01*
X31181Y8825D01*
X31024D01*
X31023Y8848D01*
X31020Y8870D01*
X31015Y8892D01*
X31008Y8914D01*
X31000Y8935D01*
X30989Y8955D01*
X30976Y8976D01*
X30962Y8996D01*
X30946Y9015D01*
X30927Y9034D01*
X31277D01*
X31259Y9015D01*
D02*
G37*
G36*
X6682Y3216D02*
X6678Y3202D01*
Y3185D01*
X6682Y3166D01*
X6691Y3145D01*
X6704Y3122D01*
X6722Y3096D01*
X6744Y3068D01*
X6802Y3006D01*
X6691Y2895D01*
X6659Y2926D01*
X6601Y2975D01*
X6575Y2993D01*
X6552Y3006D01*
X6531Y3015D01*
X6512Y3019D01*
X6495D01*
X6480Y3015D01*
X6468Y3006D01*
X6691Y3229D01*
X6682Y3216D01*
D02*
G37*
D17*
X33500Y5350D02*
D03*
Y4650D02*
D03*
X24055Y6150D02*
D03*
Y6850D02*
D03*
D18*
X29299Y16800D02*
D03*
X30000D02*
D03*
X31701D02*
D03*
X31000D02*
D03*
X25250Y34950D02*
D03*
X25950D02*
D03*
X18200Y6850D02*
D03*
X18901D02*
D03*
X18200Y7850D02*
D03*
X18901D02*
D03*
D19*
X2800Y3300D02*
D03*
X6200D02*
D03*
X9850D02*
D03*
X13250D02*
D03*
X2800Y8200D02*
D03*
X6200D02*
D03*
X9850D02*
D03*
X13250D02*
D03*
D35*
X20561Y8461D02*
G03*
X20693Y8780I-319J319D01*
G01*
X26019Y14558D02*
G03*
X24605Y13972I0J-2000D01*
G01*
X21279Y10646D02*
G03*
X20693Y9231I1414J-1414D01*
G01*
X21561Y8461D02*
G03*
X21693Y8780I-319J319D01*
G01*
X28661Y13632D02*
G03*
X28369Y14339I-1000J0D01*
G01*
X26019Y13558D02*
G03*
X25312Y13265I0J-1000D01*
G01*
X26946Y14354D02*
G03*
X26654Y13647I707J-707D01*
G01*
X21986Y9939D02*
G03*
X21693Y9231I707J-707D01*
G01*
X28725Y27355D02*
G03*
X28947Y27355I111J111D01*
G01*
X28725Y27355D02*
G03*
X28502Y27355I-111J-111D01*
G01*
D02*
G03*
X28502Y27132I111J-111D01*
G01*
X28744Y26667D02*
G03*
X28744Y26890I-111J111D01*
G01*
X28522Y26667D02*
G03*
X28744Y26667I111J111D01*
G01*
X28276Y26913D02*
G03*
X28053Y26913I-111J-111D01*
G01*
X28053Y26913D02*
G03*
X28053Y26690I111J-111D01*
G01*
X28056Y26464D02*
G03*
X28056Y26687I-111J111D01*
G01*
X27705Y27297D02*
G03*
X27927Y27297I111J111D01*
G01*
X27495Y27507D02*
G03*
X27272Y27507I-111J-111D01*
G01*
D02*
G03*
X27272Y27285I111J-111D01*
G01*
X27538Y26796D02*
G03*
X27538Y27019I-111J111D01*
G01*
X27315Y26796D02*
G03*
X27538Y26796I111J111D01*
G01*
X27041Y27070D02*
G03*
X26819Y27070I-111J-111D01*
G01*
D02*
G03*
X26819Y26847I111J-111D01*
G01*
X27092Y26351D02*
G03*
X27092Y26574I-111J111D01*
G01*
X26869Y26351D02*
G03*
X27092Y26351I111J111D01*
G01*
X26596Y26625D02*
G03*
X26373Y26625I-111J-111D01*
G01*
X26373Y26625D02*
G03*
X26373Y26402I111J-111D01*
G01*
X26591Y25961D02*
G03*
X26591Y26184I-111J111D01*
G01*
X28369Y7319D02*
G03*
X28661Y8026I-707J707D01*
G01*
X27857Y7807D02*
G03*
X28150Y8514I-707J707D01*
G01*
X26476Y12205D02*
G03*
X26654Y12382I0J177D01*
G01*
X26156Y12205D02*
G03*
X26156Y11850I0J-177D01*
G01*
X26491Y11496D02*
G03*
X26491Y11850I0J177D01*
G01*
X26122Y11496D02*
G03*
X26122Y11142I0J-177D01*
G01*
X26654Y10965D02*
G03*
X26476Y11142I-177J0D01*
G01*
X27150Y13017D02*
G03*
X27327Y12840I177J0D01*
G01*
X27327Y12485D02*
G03*
X27327Y12840I0J177D01*
G01*
X27150Y12485D02*
G03*
X27150Y12131I0J-177D01*
G01*
X27597Y11777D02*
G03*
X27597Y12131I0J177D01*
G01*
X27103Y11777D02*
G03*
X27103Y11422I0J-177D01*
G01*
X27621Y11068D02*
G03*
X27621Y11422I0J177D01*
G01*
X27103Y11068D02*
G03*
X27103Y10714I0J-177D01*
G01*
X27621Y10359D02*
G03*
X27621Y10714I0J177D01*
G01*
X27327Y10359D02*
G03*
X27150Y10182I0J-177D01*
G01*
X27159Y9828D02*
G03*
X27175Y9749I844J126D01*
G01*
D02*
G03*
X27400Y9350I829J205D01*
G01*
X26654Y9213D02*
G03*
X26736Y9014I280J0D01*
G01*
X20693Y8780D02*
Y9231D01*
X26067Y13475D02*
X26150Y13558D01*
X19950Y6850D02*
X21561Y8461D01*
X26067Y14475D02*
X26150Y14558D01*
X21279Y10646D02*
X22942Y12309D01*
X23545Y12912D01*
X19950Y7850D02*
X20561Y8461D01*
X23545Y12912D02*
X23643Y13010D01*
X18901Y7850D02*
X19950D01*
X23643Y13010D02*
X24332Y13699D01*
X26019Y14558D02*
X26150D01*
X24332Y13699D02*
X24605Y13972D01*
X18901Y6850D02*
X19950D01*
X29523Y9444D02*
X32047Y11968D01*
X29523Y5747D02*
Y9444D01*
X31102Y6063D02*
Y9213D01*
X27323Y2283D02*
X31102Y6063D01*
X6397Y3300D02*
X7413Y2283D01*
X27323D01*
X6200Y3300D02*
X6397D01*
X13813Y2737D02*
X26513D01*
X13250Y3300D02*
X13813Y2737D01*
X26513D02*
X29523Y5747D01*
X28709Y15669D02*
X29650Y14728D01*
X29954Y14084D02*
X34676D01*
X34933Y14774D02*
X35150Y14558D01*
X34676Y14084D02*
X35150Y14558D01*
X32678Y18898D02*
X34151Y17425D01*
X34150Y14558D02*
X34151Y14559D01*
Y17425D01*
X14420Y8200D02*
X21890Y15669D01*
X28709D01*
X6940Y8200D02*
X14803Y16063D01*
X25906D02*
X28740Y18898D01*
X14803Y16063D02*
X25906D01*
X13250Y8200D02*
X14420D01*
X6200D02*
X6940D01*
X28740Y18898D02*
X32678D01*
X29650Y14388D02*
X29954Y14084D01*
X29650Y14388D02*
Y14728D01*
X28150Y14558D02*
X28369Y14339D01*
X30150Y14558D02*
Y14675D01*
X30000Y14825D02*
Y17850D01*
Y14825D02*
X30150Y14675D01*
X31000Y14825D02*
X31150Y14675D01*
X31000Y14825D02*
Y17850D01*
X31150Y14558D02*
Y14675D01*
X26946Y14354D02*
X27150Y14558D01*
X21986Y9939D02*
X23110Y11063D01*
X25013Y12965D02*
X25312Y13265D01*
X26019Y13558D02*
X26150D01*
X23110Y11063D02*
X25013Y12965D01*
X26654Y13028D02*
Y13647D01*
X22380Y21750D02*
X26535Y25906D01*
X28651Y34801D02*
X29750Y35900D01*
X28651Y31093D02*
Y34801D01*
X28947Y27355D02*
X29429Y27837D01*
X28725Y27355D02*
X28725Y27355D01*
X28725Y27355D02*
X28725Y27355D01*
X28502Y27132D02*
X28744Y26890D01*
X28276Y26913D02*
X28522Y26667D01*
X28276Y26913D02*
X28276Y26913D01*
X28053Y26913D02*
X28053Y26913D01*
X28053Y26690D02*
X28053Y26690D01*
X28056Y26687D01*
X28001Y26409D02*
X28056Y26464D01*
X29429Y27837D02*
X32150Y30558D01*
X22342Y20750D02*
X28001Y26409D01*
X27927Y27297D02*
X28698Y28068D01*
X27705Y27297D02*
X27705Y27297D01*
X27495Y27507D02*
X27705Y27297D01*
X27272Y27285D02*
X27538Y27019D01*
X27538Y27019D02*
X27538Y27019D01*
X27538Y26796D02*
X27538Y26796D01*
X27315Y26796D02*
X27315Y26796D01*
X27041Y27070D02*
X27315Y26796D01*
X27041Y27070D02*
X27041Y27070D01*
X26819Y26847D02*
X26819Y26847D01*
X27092Y26574D01*
X27092Y26574D02*
X27092Y26574D01*
X26869Y26351D02*
X26869Y26351D01*
X26596Y26625D02*
X26869Y26351D01*
X26596Y26625D02*
X26596Y26625D01*
X26373Y26625D02*
X26373Y26625D01*
X26373Y26402D02*
X26373Y26402D01*
X26591Y26184D01*
X26535Y25906D02*
X26591Y25961D01*
X28698Y28068D02*
X30150Y29520D01*
X15400Y19750D02*
X22342D01*
X33150Y30558D02*
Y30558D01*
X22342Y19750D02*
X33150Y30558D01*
X32150D02*
Y30558D01*
X15400Y20750D02*
X22342D01*
X30150Y29520D02*
Y30558D01*
X15400Y21750D02*
X22380D01*
X28150Y30592D02*
X28651Y31093D01*
X28150Y30558D02*
Y30592D01*
X27400Y6350D02*
X28369Y7319D01*
X28661Y8026D02*
Y13632D01*
X27400Y7350D02*
X27857Y7807D01*
X28150Y8514D02*
Y13558D01*
X26654Y12382D02*
Y13028D01*
X26156Y12205D02*
X26476D01*
X26156Y11850D02*
X26491D01*
X26122Y11496D02*
X26491D01*
X26122Y11142D02*
X26476D01*
X26654Y10886D02*
Y10965D01*
Y9213D02*
Y10886D01*
X27150Y13017D02*
Y13544D01*
X27327Y12840D02*
X27327D01*
X27150Y12485D02*
X27327D01*
X27150Y12131D02*
X27597D01*
X27103Y11777D02*
X27597D01*
X27103Y11422D02*
X27621D01*
X27103Y11068D02*
X27621D01*
X27103Y10714D02*
X27621D01*
X27327Y10359D02*
X27621D01*
X27150Y9954D02*
Y10182D01*
Y9954D02*
X27150Y9954D01*
X27159Y9828D01*
X27150Y13544D02*
Y13558D01*
X20591Y36417D02*
X21483D01*
X21950Y35950D01*
X20591Y35417D02*
Y36417D01*
X26736Y9014D02*
X27400Y8350D01*
X21693Y8780D02*
Y9231D01*
X22950Y7850D02*
Y8850D01*
X21850Y6750D02*
X22950Y7850D01*
X21850Y3250D02*
Y6750D01*
X29299Y16800D02*
Y18197D01*
X29685Y18583D01*
X32267D02*
X33000Y17850D01*
X29685Y18583D02*
X32267D01*
X31949Y16799D02*
X33000Y17850D01*
X31701Y16799D02*
X31949D01*
X18200Y5250D02*
Y6850D01*
Y7850D01*
X25950Y35719D02*
Y36500D01*
Y35719D02*
X25950Y35719D01*
Y34950D02*
Y35719D01*
X23950Y34950D02*
X25250D01*
D36*
X10487Y3937D02*
X18622D01*
X10047Y3300D02*
X10145Y3398D01*
Y3595D02*
X10487Y3937D01*
X18622D02*
X19213Y4528D01*
X9850Y3300D02*
X10047D01*
X10145Y3398D02*
Y3595D01*
X24055Y6150D02*
X24062Y6143D01*
Y5131D02*
X24069Y5124D01*
X24062Y5131D02*
Y6143D01*
X33502Y4648D02*
X34407D01*
X33500Y4650D02*
X33502Y4648D01*
X34407D02*
X34409Y4646D01*
X33098Y4650D02*
X33500D01*
X32799Y4350D02*
X33098Y4650D01*
X32400Y4350D02*
X32799D01*
X9850Y3300D02*
Y8200D01*
X2800Y3300D02*
Y8200D01*
X8330D02*
X9850D01*
X7729Y7599D02*
X8330Y8200D01*
X4800Y7599D02*
X7729D01*
X4199Y8200D02*
X4800Y7599D01*
X2800Y8200D02*
X4199D01*
D37*
X15400Y17750D02*
X23970D01*
X33620Y27400D01*
X35150D01*
X35250Y34144D02*
Y36000D01*
X35204Y33978D02*
X35370Y34144D01*
X35150Y33527D02*
X35204Y33581D01*
Y33978D01*
X35150Y31558D02*
Y33527D01*
X36890Y6850D02*
Y21614D01*
X33500Y5350D02*
X35390D01*
X36890Y6850D01*
Y21614D02*
Y29818D01*
X34450Y19174D02*
X36890Y21614D01*
X34450Y19150D02*
Y19174D01*
X35150Y31558D02*
X36890Y29818D01*
X14350Y35000D02*
X15150Y35800D01*
X14350Y18800D02*
X15400Y17750D01*
X14350Y18800D02*
Y35000D01*
X23950Y6850D02*
X25900D01*
X27400Y5350D01*
X32949Y5350D02*
X33500D01*
X32949Y5350D02*
X32949Y5350D01*
X32400Y5350D02*
X32949D01*
X23449Y6850D02*
X23950D01*
X23449Y6850D02*
X23449Y6850D01*
X22950Y6850D02*
X23449D01*
X22950Y5850D02*
Y6850D01*
X35150Y27400D02*
Y30558D01*
Y25400D02*
Y27400D01*
D38*
X34450Y19150D02*
D03*
X29750Y35900D02*
D03*
X30750D02*
D03*
X26950Y36500D02*
D03*
X17200Y5250D02*
D03*
X27400Y5350D02*
D03*
Y7350D02*
D03*
Y8350D02*
D03*
Y4350D02*
D03*
Y6350D02*
D03*
Y9350D02*
D03*
X32400D02*
D03*
Y8350D02*
D03*
Y6350D02*
D03*
Y5350D02*
D03*
Y7350D02*
D03*
X19950Y5850D02*
D03*
Y6850D02*
D03*
Y7850D02*
D03*
Y8850D02*
D03*
X22950D02*
D03*
Y7850D02*
D03*
Y6850D02*
D03*
X15400Y29750D02*
D03*
Y28750D02*
D03*
Y27750D02*
D03*
Y26750D02*
D03*
Y25750D02*
D03*
Y24750D02*
D03*
Y23750D02*
D03*
Y22750D02*
D03*
Y21750D02*
D03*
Y20750D02*
D03*
Y19750D02*
D03*
Y18750D02*
D03*
Y17750D02*
D03*
X14150Y35800D02*
D03*
X33000Y17850D02*
D03*
X32000D02*
D03*
X31000D02*
D03*
X30000D02*
D03*
Y20850D02*
D03*
X31000D02*
D03*
X32000D02*
D03*
X21850Y3250D02*
D03*
D39*
X34450Y18150D02*
D03*
X15400Y30750D02*
D03*
X33000Y20850D02*
D03*
D40*
X30750Y1350D02*
D03*
X35370Y34144D02*
D03*
X35150Y25400D02*
D03*
D41*
X32750Y1350D02*
D03*
D42*
X31750Y35900D02*
D03*
X25950Y36500D02*
D03*
X18200Y5250D02*
D03*
X32400Y4350D02*
D03*
X22950Y5850D02*
D03*
X15150Y35800D02*
D03*
X20850Y3250D02*
D03*
D43*
X23950Y34950D02*
D03*
Y36950D02*
D03*
X21950Y35950D02*
D03*
D44*
X35370Y36144D02*
D03*
X35150Y27400D02*
D03*
D45*
X26150Y30558D02*
D03*
Y31558D02*
D03*
X27150Y30558D02*
D03*
Y31558D02*
D03*
X28150Y30558D02*
D03*
Y31558D02*
D03*
X29150Y30558D02*
D03*
Y31558D02*
D03*
X30150Y30558D02*
D03*
Y31558D02*
D03*
X31150Y30558D02*
D03*
Y31558D02*
D03*
X32150Y30558D02*
D03*
Y31558D02*
D03*
X33150Y30558D02*
D03*
Y31558D02*
D03*
X34150Y30558D02*
D03*
Y31558D02*
D03*
X35150Y30558D02*
D03*
X34850Y7350D02*
D03*
Y8350D02*
D03*
Y9350D02*
D03*
X26150Y13558D02*
D03*
Y14558D02*
D03*
X27150Y13558D02*
D03*
Y14558D02*
D03*
X28150Y13558D02*
D03*
Y14558D02*
D03*
X29150Y13558D02*
D03*
Y14558D02*
D03*
X30150Y13558D02*
D03*
Y14558D02*
D03*
X31150Y13558D02*
D03*
Y14558D02*
D03*
X32150Y13558D02*
D03*
Y14558D02*
D03*
X33150Y13558D02*
D03*
Y14558D02*
D03*
X34150Y13558D02*
D03*
Y14558D02*
D03*
X35150Y13558D02*
D03*
X20591Y36417D02*
D03*
D46*
X35150Y31558D02*
D03*
Y14558D02*
D03*
D47*
X34850Y6350D02*
D03*
X20591Y35417D02*
D03*
D48*
X-0Y37008D02*
D03*
Y0D02*
D03*
X37008D02*
D03*
X31575Y23307D02*
D03*
D49*
X32047Y11968D02*
D03*
X31102Y9213D02*
D03*
X19213Y4528D02*
D03*
X24069Y5124D02*
D03*
X34409Y4646D02*
D03*
M02*
