G04*
G04 #@! TF.GenerationSoftware,Altium Limited,Altium Designer,21.0.5 (76)*
G04*
G04 Layer_Color=2752767*
%FSLAX24Y24*%
%MOIN*%
G70*
G04*
G04 #@! TF.SameCoordinates,1F1A31E2-E608-47EA-9DE2-FAD69E6EB028*
G04*
G04*
G04 #@! TF.FilePolarity,Positive*
G04*
G01*
G75*
%ADD51C,0.0020*%
%ADD52C,0.0027*%
D51*
X34370Y19070D02*
Y19230D01*
X34530D01*
Y19070D01*
X34370D01*
Y18070D02*
Y18230D01*
X34530D01*
Y18070D01*
X34370D01*
X29670Y35820D02*
Y35980D01*
X29830D01*
Y35820D01*
X29670D01*
X30670D02*
Y35980D01*
X30830D01*
Y35820D01*
X30670D01*
X31670D02*
Y35980D01*
X31830D01*
Y35820D01*
X31670D01*
X25870Y36420D02*
Y36580D01*
X26030D01*
Y36420D01*
X25870D01*
X26870D02*
Y36580D01*
X27030D01*
Y36420D01*
X26870D01*
X23950Y34870D02*
X23870Y35030D01*
X24030D01*
X23950Y34870D01*
Y36870D02*
X23870Y37030D01*
X24030D01*
X23950Y36870D01*
X21950Y35870D02*
X21870Y36030D01*
X22030D01*
X21950Y35870D01*
X18120Y5170D02*
Y5330D01*
X18280D01*
Y5170D01*
X18120D01*
X17120D02*
Y5330D01*
X17280D01*
Y5170D01*
X17120D01*
X27400Y5270D02*
X27440Y5310D01*
X27480D01*
X27440Y5350D01*
X27480Y5390D01*
X27440D01*
X27400Y5430D01*
X27360Y5390D01*
X27320D01*
X27360Y5350D01*
X27320Y5310D01*
X27360D01*
X27400Y5270D01*
Y7270D02*
X27440Y7310D01*
X27480D01*
X27440Y7350D01*
X27480Y7390D01*
X27440D01*
X27400Y7430D01*
X27360Y7390D01*
X27320D01*
X27360Y7350D01*
X27320Y7310D01*
X27360D01*
X27400Y7270D01*
Y8270D02*
X27440Y8310D01*
X27480D01*
X27440Y8350D01*
X27480Y8390D01*
X27440D01*
X27400Y8430D01*
X27360Y8390D01*
X27320D01*
X27360Y8350D01*
X27320Y8310D01*
X27360D01*
X27400Y8270D01*
Y4270D02*
X27440Y4310D01*
X27480D01*
X27440Y4350D01*
X27480Y4390D01*
X27440D01*
X27400Y4430D01*
X27360Y4390D01*
X27320D01*
X27360Y4350D01*
X27320Y4310D01*
X27360D01*
X27400Y4270D01*
Y6270D02*
X27440Y6310D01*
X27480D01*
X27440Y6350D01*
X27480Y6390D01*
X27440D01*
X27400Y6430D01*
X27360Y6390D01*
X27320D01*
X27360Y6350D01*
X27320Y6310D01*
X27360D01*
X27400Y6270D01*
Y9270D02*
X27440Y9310D01*
X27480D01*
X27440Y9350D01*
X27480Y9390D01*
X27440D01*
X27400Y9430D01*
X27360Y9390D01*
X27320D01*
X27360Y9350D01*
X27320Y9310D01*
X27360D01*
X27400Y9270D01*
X32400D02*
X32440Y9310D01*
X32480D01*
X32440Y9350D01*
X32480Y9390D01*
X32440D01*
X32400Y9430D01*
X32360Y9390D01*
X32320D01*
X32360Y9350D01*
X32320Y9310D01*
X32360D01*
X32400Y9270D01*
Y8270D02*
X32440Y8310D01*
X32480D01*
X32440Y8350D01*
X32480Y8390D01*
X32440D01*
X32400Y8430D01*
X32360Y8390D01*
X32320D01*
X32360Y8350D01*
X32320Y8310D01*
X32360D01*
X32400Y8270D01*
Y6270D02*
X32440Y6310D01*
X32480D01*
X32440Y6350D01*
X32480Y6390D01*
X32440D01*
X32400Y6430D01*
X32360Y6390D01*
X32320D01*
X32360Y6350D01*
X32320Y6310D01*
X32360D01*
X32400Y6270D01*
Y5270D02*
X32440Y5310D01*
X32480D01*
X32440Y5350D01*
X32480Y5390D01*
X32440D01*
X32400Y5430D01*
X32360Y5390D01*
X32320D01*
X32360Y5350D01*
X32320Y5310D01*
X32360D01*
X32400Y5270D01*
Y7270D02*
X32440Y7310D01*
X32480D01*
X32440Y7350D01*
X32480Y7390D01*
X32440D01*
X32400Y7430D01*
X32360Y7390D01*
X32320D01*
X32360Y7350D01*
X32320Y7310D01*
X32360D01*
X32400Y7270D01*
Y4270D02*
X32440Y4310D01*
X32480D01*
X32440Y4350D01*
X32480Y4390D01*
X32440D01*
X32400Y4430D01*
X32360Y4390D01*
X32320D01*
X32360Y4350D01*
X32320Y4310D01*
X32360D01*
X32400Y4270D01*
X19950Y5770D02*
X19990Y5810D01*
X20030D01*
X19990Y5850D01*
X20030Y5890D01*
X19990D01*
X19950Y5930D01*
X19910Y5890D01*
X19870D01*
X19910Y5850D01*
X19870Y5810D01*
X19910D01*
X19950Y5770D01*
Y6770D02*
X19990Y6810D01*
X20030D01*
X19990Y6850D01*
X20030Y6890D01*
X19990D01*
X19950Y6930D01*
X19910Y6890D01*
X19870D01*
X19910Y6850D01*
X19870Y6810D01*
X19910D01*
X19950Y6770D01*
Y7770D02*
X19990Y7810D01*
X20030D01*
X19990Y7850D01*
X20030Y7890D01*
X19990D01*
X19950Y7930D01*
X19910Y7890D01*
X19870D01*
X19910Y7850D01*
X19870Y7810D01*
X19910D01*
X19950Y7770D01*
Y8770D02*
X19990Y8810D01*
X20030D01*
X19990Y8850D01*
X20030Y8890D01*
X19990D01*
X19950Y8930D01*
X19910Y8890D01*
X19870D01*
X19910Y8850D01*
X19870Y8810D01*
X19910D01*
X19950Y8770D01*
X22950D02*
X22990Y8810D01*
X23030D01*
X22990Y8850D01*
X23030Y8890D01*
X22990D01*
X22950Y8930D01*
X22910Y8890D01*
X22870D01*
X22910Y8850D01*
X22870Y8810D01*
X22910D01*
X22950Y8770D01*
Y7770D02*
X22990Y7810D01*
X23030D01*
X22990Y7850D01*
X23030Y7890D01*
X22990D01*
X22950Y7930D01*
X22910Y7890D01*
X22870D01*
X22910Y7850D01*
X22870Y7810D01*
X22910D01*
X22950Y7770D01*
Y6770D02*
X22990Y6810D01*
X23030D01*
X22990Y6850D01*
X23030Y6890D01*
X22990D01*
X22950Y6930D01*
X22910Y6890D01*
X22870D01*
X22910Y6850D01*
X22870Y6810D01*
X22910D01*
X22950Y6770D01*
Y5770D02*
X22990Y5810D01*
X23030D01*
X22990Y5850D01*
X23030Y5890D01*
X22990D01*
X22950Y5930D01*
X22910Y5890D01*
X22870D01*
X22910Y5850D01*
X22870Y5810D01*
X22910D01*
X22950Y5770D01*
X15320Y30670D02*
Y30830D01*
X15480D01*
Y30670D01*
X15320D01*
Y29670D02*
Y29830D01*
X15480D01*
Y29670D01*
X15320D01*
Y28670D02*
Y28830D01*
X15480D01*
Y28670D01*
X15320D01*
Y27670D02*
Y27830D01*
X15480D01*
Y27670D01*
X15320D01*
Y26670D02*
Y26830D01*
X15480D01*
Y26670D01*
X15320D01*
Y25670D02*
Y25830D01*
X15480D01*
Y25670D01*
X15320D01*
Y24670D02*
Y24830D01*
X15480D01*
Y24670D01*
X15320D01*
Y23670D02*
Y23830D01*
X15480D01*
Y23670D01*
X15320D01*
Y22670D02*
Y22830D01*
X15480D01*
Y22670D01*
X15320D01*
Y21670D02*
Y21830D01*
X15480D01*
Y21670D01*
X15320D01*
Y20670D02*
Y20830D01*
X15480D01*
Y20670D01*
X15320D01*
Y19670D02*
Y19830D01*
X15480D01*
Y19670D01*
X15320D01*
Y18670D02*
Y18830D01*
X15480D01*
Y18670D01*
X15320D01*
Y17670D02*
Y17830D01*
X15480D01*
Y17670D01*
X15320D01*
X14070Y35720D02*
X14110Y35800D01*
X14070Y35880D01*
X14150Y35840D01*
X14230Y35880D01*
X14190Y35800D01*
X14230Y35720D01*
X14150Y35760D01*
X14070Y35720D01*
X15070D02*
X15110Y35800D01*
X15070Y35880D01*
X15150Y35840D01*
X15230Y35880D01*
X15190Y35800D01*
X15230Y35720D01*
X15150Y35760D01*
X15070Y35720D01*
X26070Y30478D02*
Y30638D01*
X26230D01*
Y30478D01*
X26070D01*
Y31478D02*
Y31638D01*
X26230D01*
Y31478D01*
X26070D01*
X27070Y30478D02*
Y30638D01*
X27230D01*
Y30478D01*
X27070D01*
Y31478D02*
Y31638D01*
X27230D01*
Y31478D01*
X27070D01*
X28070Y30478D02*
Y30638D01*
X28230D01*
Y30478D01*
X28070D01*
Y31478D02*
Y31638D01*
X28230D01*
Y31478D01*
X28070D01*
X29070Y30478D02*
Y30638D01*
X29230D01*
Y30478D01*
X29070D01*
Y31478D02*
Y31638D01*
X29230D01*
Y31478D01*
X29070D01*
X30070Y30478D02*
Y30638D01*
X30230D01*
Y30478D01*
X30070D01*
Y31478D02*
Y31638D01*
X30230D01*
Y31478D01*
X30070D01*
X31070Y30478D02*
Y30638D01*
X31230D01*
Y30478D01*
X31070D01*
Y31478D02*
Y31638D01*
X31230D01*
Y31478D01*
X31070D01*
X32070Y30478D02*
Y30638D01*
X32230D01*
Y30478D01*
X32070D01*
Y31478D02*
Y31638D01*
X32230D01*
Y31478D01*
X32070D01*
X33070Y30478D02*
Y30638D01*
X33230D01*
Y30478D01*
X33070D01*
Y31478D02*
Y31638D01*
X33230D01*
Y31478D01*
X33070D01*
X34070Y30478D02*
Y30638D01*
X34230D01*
Y30478D01*
X34070D01*
Y31478D02*
Y31638D01*
X34230D01*
Y31478D01*
X34070D01*
X35070Y30478D02*
Y30638D01*
X35230D01*
Y30478D01*
X35070D01*
Y31478D02*
Y31638D01*
X35230D01*
Y31478D01*
X35070D01*
X33000Y17770D02*
X33040Y17810D01*
X33080D01*
X33040Y17850D01*
X33080Y17890D01*
X33040D01*
X33000Y17930D01*
X32960Y17890D01*
X32920D01*
X32960Y17850D01*
X32920Y17810D01*
X32960D01*
X33000Y17770D01*
X32000D02*
X32040Y17810D01*
X32080D01*
X32040Y17850D01*
X32080Y17890D01*
X32040D01*
X32000Y17930D01*
X31960Y17890D01*
X31920D01*
X31960Y17850D01*
X31920Y17810D01*
X31960D01*
X32000Y17770D01*
X31000D02*
X31040Y17810D01*
X31080D01*
X31040Y17850D01*
X31080Y17890D01*
X31040D01*
X31000Y17930D01*
X30960Y17890D01*
X30920D01*
X30960Y17850D01*
X30920Y17810D01*
X30960D01*
X31000Y17770D01*
X30000D02*
X30040Y17810D01*
X30080D01*
X30040Y17850D01*
X30080Y17890D01*
X30040D01*
X30000Y17930D01*
X29960Y17890D01*
X29920D01*
X29960Y17850D01*
X29920Y17810D01*
X29960D01*
X30000Y17770D01*
Y20770D02*
X30040Y20810D01*
X30080D01*
X30040Y20850D01*
X30080Y20890D01*
X30040D01*
X30000Y20930D01*
X29960Y20890D01*
X29920D01*
X29960Y20850D01*
X29920Y20810D01*
X29960D01*
X30000Y20770D01*
X31000D02*
X31040Y20810D01*
X31080D01*
X31040Y20850D01*
X31080Y20890D01*
X31040D01*
X31000Y20930D01*
X30960Y20890D01*
X30920D01*
X30960Y20850D01*
X30920Y20810D01*
X30960D01*
X31000Y20770D01*
X32000D02*
X32040Y20810D01*
X32080D01*
X32040Y20850D01*
X32080Y20890D01*
X32040D01*
X32000Y20930D01*
X31960Y20890D01*
X31920D01*
X31960Y20850D01*
X31920Y20810D01*
X31960D01*
X32000Y20770D01*
X33000D02*
X33040Y20810D01*
X33080D01*
X33040Y20850D01*
X33080Y20890D01*
X33040D01*
X33000Y20930D01*
X32960Y20890D01*
X32920D01*
X32960Y20850D01*
X32920Y20810D01*
X32960D01*
X33000Y20770D01*
X34770Y6270D02*
Y6430D01*
X34930D01*
Y6270D01*
X34770D01*
Y7270D02*
Y7430D01*
X34930D01*
Y7270D01*
X34770D01*
Y8270D02*
Y8430D01*
X34930D01*
Y8270D01*
X34770D01*
Y9270D02*
Y9430D01*
X34930D01*
Y9270D01*
X34770D01*
X21770Y3170D02*
Y3330D01*
X21930D01*
Y3170D01*
X21770D01*
X20770D02*
Y3330D01*
X20930D01*
Y3170D01*
X20770D01*
X26070Y13478D02*
Y13638D01*
X26230D01*
Y13478D01*
X26070D01*
Y14478D02*
Y14638D01*
X26230D01*
Y14478D01*
X26070D01*
X27070Y13478D02*
Y13638D01*
X27230D01*
Y13478D01*
X27070D01*
Y14478D02*
Y14638D01*
X27230D01*
Y14478D01*
X27070D01*
X28070Y13478D02*
Y13638D01*
X28230D01*
Y13478D01*
X28070D01*
Y14478D02*
Y14638D01*
X28230D01*
Y14478D01*
X28070D01*
X29070Y13478D02*
Y13638D01*
X29230D01*
Y13478D01*
X29070D01*
Y14478D02*
Y14638D01*
X29230D01*
Y14478D01*
X29070D01*
X30070Y13478D02*
Y13638D01*
X30230D01*
Y13478D01*
X30070D01*
Y14478D02*
Y14638D01*
X30230D01*
Y14478D01*
X30070D01*
X31070Y13478D02*
Y13638D01*
X31230D01*
Y13478D01*
X31070D01*
Y14478D02*
Y14638D01*
X31230D01*
Y14478D01*
X31070D01*
X32070Y13478D02*
Y13638D01*
X32230D01*
Y13478D01*
X32070D01*
Y14478D02*
Y14638D01*
X32230D01*
Y14478D01*
X32070D01*
X33070Y13478D02*
Y13638D01*
X33230D01*
Y13478D01*
X33070D01*
Y14478D02*
Y14638D01*
X33230D01*
Y14478D01*
X33070D01*
X34070Y13478D02*
Y13638D01*
X34230D01*
Y13478D01*
X34070D01*
Y14478D02*
Y14638D01*
X34230D01*
Y14478D01*
X34070D01*
X35070Y13478D02*
Y13638D01*
X35230D01*
Y13478D01*
X35070D01*
Y14478D02*
Y14638D01*
X35230D01*
Y14478D01*
X35070D01*
X20511Y35337D02*
Y35497D01*
X20671D01*
Y35337D01*
X20511D01*
Y36337D02*
Y36497D01*
X20671D01*
Y36337D01*
X20511D01*
X-40Y36968D02*
Y36928D01*
X40D01*
Y36968D01*
X80D01*
Y37048D01*
X40D01*
Y37088D01*
X-40D01*
Y37048D01*
X-80D01*
Y36968D01*
X-40D01*
Y-40D02*
Y-80D01*
X40D01*
Y-40D01*
X80D01*
Y40D01*
X40D01*
Y80D01*
X-40D01*
Y40D01*
X-80D01*
Y-40D01*
X-40D01*
X36968D02*
Y-80D01*
X37048D01*
Y-40D01*
X37088D01*
Y40D01*
X37048D01*
Y80D01*
X36968D01*
Y40D01*
X36928D01*
Y-40D01*
X36968D01*
X31535Y23267D02*
Y23227D01*
X31615D01*
Y23267D01*
X31655D01*
Y23347D01*
X31615D01*
Y23387D01*
X31535D01*
Y23347D01*
X31495D01*
Y23267D01*
X31535D01*
X31967Y11889D02*
X32007D01*
X32047Y11928D01*
X32087Y11889D01*
X32127D01*
Y11928D01*
X32087Y11968D01*
X32127Y12009D01*
Y12048D01*
X32087D01*
X32047Y12009D01*
X32007Y12048D01*
X31967D01*
Y12009D01*
X32007Y11968D01*
X31967Y11928D01*
Y11889D01*
X31022Y9133D02*
X31062D01*
X31102Y9173D01*
X31142Y9133D01*
X31182D01*
Y9173D01*
X31142Y9213D01*
X31182Y9253D01*
Y9293D01*
X31142D01*
X31102Y9253D01*
X31062Y9293D01*
X31022D01*
Y9253D01*
X31062Y9213D01*
X31022Y9173D01*
Y9133D01*
X19133Y4448D02*
X19173D01*
X19213Y4488D01*
X19253Y4448D01*
X19293D01*
Y4488D01*
X19253Y4528D01*
X19293Y4568D01*
Y4608D01*
X19253D01*
X19213Y4568D01*
X19173Y4608D01*
X19133D01*
Y4568D01*
X19173Y4528D01*
X19133Y4488D01*
Y4448D01*
X23989Y5044D02*
X24029D01*
X24069Y5084D01*
X24109Y5044D01*
X24149D01*
Y5084D01*
X24109Y5124D01*
X24149Y5164D01*
Y5204D01*
X24109D01*
X24069Y5164D01*
X24029Y5204D01*
X23989D01*
Y5164D01*
X24029Y5124D01*
X23989Y5084D01*
Y5044D01*
X34329Y4566D02*
X34369D01*
X34409Y4606D01*
X34449Y4566D01*
X34489D01*
Y4606D01*
X34449Y4646D01*
X34489Y4686D01*
Y4726D01*
X34449D01*
X34409Y4686D01*
X34369Y4726D01*
X34329D01*
Y4686D01*
X34369Y4646D01*
X34329Y4606D01*
Y4566D01*
D52*
X30830Y1350D02*
G03*
X30830Y1350I-80J0D01*
G01*
X32830D02*
G03*
X32830Y1350I-80J0D01*
G01*
X35450Y34144D02*
G03*
X35450Y34144I-80J0D01*
G01*
Y36144D02*
G03*
X35450Y36144I-80J0D01*
G01*
X35230Y25400D02*
G03*
X35230Y25400I-80J0D01*
G01*
Y27400D02*
G03*
X35230Y27400I-80J0D01*
G01*
M02*
