M48
;Layer_Color=9474304
;FILE_FORMAT=2:5
INCH,LZ
;TYPE=PLATED
T1F00S00C0.02800
T2F00S00C0.03150
T3F00S00C0.03268
T4F00S00C0.03543
T5F00S00C0.04331
T6F00S00C0.05906
T7F00S00C0.11811
%
T01
X0192126Y0045276
X0240687Y0051245
X0344094Y0046457
X0311024Y0092126
X0320472Y0119685
T02
X01995Y00585
Y00685
X02295
Y00585
X0274Y00535
Y00435
Y00635
X0324
Y00535
Y00435
Y00735
Y00835
Y00935
X032Y01785
X033
X031
X03
Y02085
X031
X032
X033
X0274Y00935
Y00835
Y00735
X02295Y00785
Y00885
X01995
Y00785
T03
X01415Y0358
X01515
T04
X0172Y00525
X0182
X02085Y00325
X02185
X03485Y00635
Y00735
Y00835
Y00935
X03515Y0135579
X03415
X03315
X03215
X03115
X03015
Y0145579
X03115
X03215
X03315
X03415
X03515
X03445Y01815
Y01915
X02915Y0145579
X02815
X02715
X02615
Y0135579
X02715
X02815
X02915
X0154Y01775
Y01875
Y01975
Y02075
Y02175
Y02275
Y02375
Y02475
Y02575
Y02675
Y02775
Y02875
Y02975
Y03075
X0205906Y0354173
Y0364173
X02595Y0365
X02695
X02975Y0359
X02915Y0315579
X02815
X02715
X02615
Y0305579
X02715
X02815
X02915
X03015
Y0315579
X03115
Y0305579
X03215
Y0315579
X03315
Y0305579
X03415
Y0315579
X03515
Y0305579
X03175Y0359
X03075
T05
X02195Y03595
X02395Y03495
Y03695
T06
X03075Y00135
X03275
X03515Y0254
Y0274
X0353699Y0341442
Y0361442
T07
X-0Y0
X0370079
X-0Y0370079
X0315748Y0233071
M30
