G04*
G04 #@! TF.GenerationSoftware,Altium Limited,Altium Designer,21.0.5 (76)*
G04*
G04 Layer_Physical_Order=2*
G04 Layer_Color=16711680*
%FSLAX24Y24*%
%MOIN*%
G70*
G04*
G04 #@! TF.SameCoordinates,1F1A31E2-E608-47EA-9DE2-FAD69E6EB028*
G04*
G04*
G04 #@! TF.FilePolarity,Positive*
G04*
G01*
G75*
%ADD35C,0.0157*%
%ADD36C,0.0394*%
%ADD37C,0.0315*%
%ADD38C,0.0669*%
%ADD39R,0.0669X0.0669*%
%ADD40C,0.1181*%
%ADD41R,0.1181X0.1181*%
%ADD42R,0.0669X0.0669*%
%ADD43C,0.0800*%
%ADD44R,0.1181X0.1181*%
%ADD45C,0.0591*%
%ADD46R,0.0591X0.0591*%
%ADD47R,0.0591X0.0591*%
%ADD48C,0.1220*%
%ADD49C,0.0500*%
G36*
X-0Y38036D02*
X37008D01*
X37018Y38038D01*
X37209Y38019D01*
X37402Y37960D01*
X37581Y37865D01*
X37737Y37737D01*
X37865Y37581D01*
X37960Y37402D01*
X38019Y37209D01*
X38034Y37057D01*
X38036Y37008D01*
X38036Y37008D01*
X38036Y36959D01*
Y50D01*
X38036Y49D01*
X38036Y0D01*
X38034Y-49D01*
X38019Y-201D01*
X37960Y-395D01*
X37865Y-573D01*
X37737Y-729D01*
X37581Y-857D01*
X37402Y-953D01*
X37209Y-1011D01*
X37057Y-1026D01*
X37008Y-1028D01*
X37008Y-1028D01*
X36959Y-1028D01*
X50D01*
X49Y-1028D01*
X0Y-1028D01*
X-49Y-1026D01*
X-201Y-1011D01*
X-395Y-953D01*
X-573Y-857D01*
X-729Y-729D01*
X-857Y-573D01*
X-953Y-395D01*
X-1011Y-201D01*
X-1030Y-10D01*
X-1028Y0D01*
Y37008D01*
X-1030Y37018D01*
X-1011Y37209D01*
X-953Y37402D01*
X-857Y37581D01*
X-729Y37737D01*
X-573Y37865D01*
X-395Y37960D01*
X-201Y38019D01*
X-10Y38038D01*
X-0Y38036D01*
D02*
G37*
%LPC*%
G36*
X23900Y37448D02*
X23819Y37437D01*
X23774Y37418D01*
X23792Y37405D01*
X23819Y37388D01*
X23846Y37374D01*
X23872Y37363D01*
X23897Y37356D01*
X23900Y37355D01*
Y37448D01*
D02*
G37*
G36*
X24000Y37448D02*
Y37349D01*
X24001Y37349D01*
X24019Y37353D01*
X24039Y37360D01*
X24061Y37370D01*
X24084Y37384D01*
X24109Y37402D01*
X24129Y37417D01*
X24081Y37437D01*
X24000Y37448D01*
D02*
G37*
G36*
X24417Y37128D02*
X24402Y37110D01*
X24384Y37084D01*
X24370Y37061D01*
X24360Y37039D01*
X24353Y37019D01*
X24349Y37001D01*
X24349Y37000D01*
X24448D01*
X24437Y37081D01*
X24417Y37128D01*
D02*
G37*
G36*
X24000Y37333D02*
Y37000D01*
X24333D01*
X24000Y37333D01*
D02*
G37*
G36*
X23900Y37306D02*
X23594Y37000D01*
X23900D01*
Y37306D01*
D02*
G37*
G36*
X23482Y37126D02*
X23463Y37081D01*
X23452Y37000D01*
X23545D01*
X23544Y37003D01*
X23537Y37028D01*
X23526Y37054D01*
X23512Y37081D01*
X23495Y37108D01*
X23482Y37126D01*
D02*
G37*
G36*
X24448Y36900D02*
X24000D01*
Y36452D01*
X24081Y36463D01*
X24202Y36513D01*
X24307Y36593D01*
X24387Y36698D01*
X24437Y36819D01*
X24448Y36900D01*
D02*
G37*
G36*
X23900D02*
X23452D01*
X23463Y36819D01*
X23513Y36698D01*
X23593Y36593D01*
X23698Y36513D01*
X23819Y36463D01*
X23900Y36452D01*
Y36900D01*
D02*
G37*
G36*
X30800Y36332D02*
Y36305D01*
X30824Y36329D01*
X30800Y36332D01*
D02*
G37*
G36*
X-0Y37722D02*
X-139Y37708D01*
X-273Y37667D01*
X-397Y37601D01*
X-505Y37513D01*
X-593Y37404D01*
X-659Y37281D01*
X-700Y37147D01*
X-714Y37008D01*
X-700Y36869D01*
X-659Y36735D01*
X-593Y36611D01*
X-505Y36503D01*
X-397Y36414D01*
X-273Y36349D01*
X-139Y36308D01*
X-0Y36294D01*
X139Y36308D01*
X273Y36349D01*
X396Y36414D01*
X505Y36503D01*
X593Y36611D01*
X659Y36735D01*
X700Y36869D01*
X714Y37008D01*
X700Y37147D01*
X659Y37281D01*
X593Y37404D01*
X505Y37513D01*
X396Y37601D01*
X273Y37667D01*
X139Y37708D01*
X-0Y37722D01*
D02*
G37*
G36*
X30700Y36332D02*
X30637Y36323D01*
X30618Y36316D01*
X30673Y36269D01*
X30691Y36256D01*
X30700Y36251D01*
Y36332D01*
D02*
G37*
G36*
X14200Y36232D02*
Y36216D01*
X14215Y36230D01*
X14200Y36232D01*
D02*
G37*
G36*
X26385Y36935D02*
X25515D01*
Y36065D01*
X26385D01*
Y36935D01*
D02*
G37*
G36*
X20591Y36816D02*
X20487Y36802D01*
X20391Y36763D01*
X20309Y36699D01*
X20245Y36617D01*
X20205Y36521D01*
X20192Y36417D01*
X20205Y36314D01*
X20245Y36218D01*
X20309Y36135D01*
X20391Y36072D01*
X20487Y36032D01*
X20591Y36019D01*
X20694Y36032D01*
X20790Y36072D01*
X20872Y36135D01*
X20936Y36218D01*
X20976Y36314D01*
X20989Y36417D01*
X20976Y36521D01*
X20936Y36617D01*
X20872Y36699D01*
X20790Y36763D01*
X20694Y36802D01*
X20591Y36816D01*
D02*
G37*
G36*
X30800Y36173D02*
Y35950D01*
X31182D01*
X31173Y36013D01*
X31144Y36084D01*
X31105Y36038D01*
X31093Y36021D01*
X31085Y36006D01*
X31079Y35993D01*
X31076Y35981D01*
X31077Y35972D01*
X30800Y36173D01*
D02*
G37*
G36*
X30700Y36188D02*
X30462Y35950D01*
X30700D01*
Y36188D01*
D02*
G37*
G36*
X30335Y36033D02*
X30327Y36013D01*
X30318Y35950D01*
X30399D01*
X30394Y35959D01*
X30381Y35977D01*
X30366Y35997D01*
X30335Y36033D01*
D02*
G37*
G36*
X14200Y36057D02*
Y35850D01*
X14582D01*
X14573Y35913D01*
X14542Y35989D01*
X14519Y35962D01*
X14505Y35941D01*
X14494Y35922D01*
X14486Y35905D01*
X14480Y35889D01*
X14478Y35874D01*
X14479Y35861D01*
X14200Y36057D01*
D02*
G37*
G36*
X14100Y36232D02*
X14037Y36223D01*
X13931Y36180D01*
X13840Y36110D01*
X13770Y36019D01*
X13727Y35913D01*
X13718Y35850D01*
X14100D01*
Y36127D01*
X14095Y36130D01*
X14100Y36132D01*
Y36232D01*
D02*
G37*
G36*
X30700Y35850D02*
X30318D01*
X30327Y35787D01*
X30370Y35681D01*
X30440Y35590D01*
X30531Y35520D01*
X30637Y35477D01*
X30700Y35468D01*
Y35850D01*
D02*
G37*
G36*
X29750Y36338D02*
X29637Y36323D01*
X29531Y36280D01*
X29440Y36210D01*
X29370Y36119D01*
X29327Y36013D01*
X29312Y35900D01*
X29327Y35787D01*
X29370Y35681D01*
X29440Y35590D01*
X29531Y35520D01*
X29637Y35477D01*
X29750Y35462D01*
X29863Y35477D01*
X29969Y35520D01*
X30060Y35590D01*
X30130Y35681D01*
X30173Y35787D01*
X30188Y35900D01*
X30173Y36013D01*
X30130Y36119D01*
X30060Y36210D01*
X29969Y36280D01*
X29863Y36323D01*
X29750Y36338D01*
D02*
G37*
G36*
X26950Y36938D02*
X26837Y36923D01*
X26731Y36880D01*
X26640Y36810D01*
X26570Y36719D01*
X26527Y36613D01*
X26512Y36500D01*
X26527Y36387D01*
X26570Y36281D01*
X26640Y36190D01*
X26731Y36120D01*
X26837Y36077D01*
X26950Y36062D01*
X26960Y36063D01*
X26964Y36063D01*
X26975Y36061D01*
X26988Y36057D01*
X27002Y36052D01*
X27018Y36044D01*
X27035Y36034D01*
X27053Y36022D01*
X27096Y35986D01*
X27109Y35973D01*
X28266Y34816D01*
X28320Y34775D01*
X28383Y34749D01*
X28450Y34740D01*
X30850D01*
X30917Y34749D01*
X30980Y34775D01*
X31034Y34816D01*
X31493Y35275D01*
X31608Y35382D01*
X31658Y35422D01*
X31703Y35454D01*
X31723Y35465D01*
X31858D01*
X31862Y35465D01*
X31866Y35465D01*
X32185D01*
Y35668D01*
X32186Y35676D01*
X32187Y35680D01*
X32189Y35683D01*
X32195Y35688D01*
X32207Y35696D01*
X32229Y35705D01*
X32259Y35713D01*
X32298Y35719D01*
X32344Y35723D01*
X32390Y35725D01*
X33533D01*
X33600Y35733D01*
X33617Y35740D01*
X34474D01*
X34520Y35739D01*
X34567Y35735D01*
X34605Y35729D01*
X34635Y35721D01*
X34657Y35712D01*
X34669Y35704D01*
X34675Y35699D01*
X34677Y35696D01*
X34679Y35692D01*
X34679Y35684D01*
Y35454D01*
X36061D01*
Y36835D01*
X34679D01*
Y36316D01*
X34679Y36308D01*
X34677Y36304D01*
X34675Y36301D01*
X34669Y36296D01*
X34657Y36288D01*
X34635Y36279D01*
X34605Y36271D01*
X34567Y36265D01*
X34520Y36261D01*
X34474Y36260D01*
X33549D01*
X33482Y36251D01*
X33465Y36244D01*
X32392D01*
X32292Y36247D01*
X32251Y36251D01*
X32217Y36257D01*
X32191Y36263D01*
X32185Y36265D01*
Y36335D01*
X32087D01*
X32084Y36335D01*
X32080Y36335D01*
X31315D01*
Y36016D01*
X31315Y36012D01*
X31315Y36008D01*
Y35873D01*
X31304Y35853D01*
X31273Y35809D01*
X31202Y35725D01*
X31159Y35751D01*
X31173Y35787D01*
X31182Y35850D01*
X30800D01*
Y35468D01*
X30863Y35477D01*
X30906Y35494D01*
X30935Y35452D01*
X30742Y35260D01*
X28558D01*
X27477Y36341D01*
X27463Y36355D01*
X27445Y36376D01*
X27429Y36396D01*
X27416Y36415D01*
X27406Y36432D01*
X27398Y36448D01*
X27393Y36462D01*
X27389Y36475D01*
X27387Y36486D01*
X27387Y36490D01*
X27388Y36500D01*
X27373Y36613D01*
X27330Y36719D01*
X27260Y36810D01*
X27169Y36880D01*
X27063Y36923D01*
X26950Y36938D01*
D02*
G37*
G36*
X21950Y36454D02*
X21819Y36437D01*
X21698Y36387D01*
X21593Y36307D01*
X21513Y36202D01*
X21463Y36081D01*
X21446Y35950D01*
X21463Y35819D01*
X21513Y35698D01*
X21593Y35593D01*
X21698Y35513D01*
X21819Y35463D01*
X21950Y35446D01*
X22081Y35463D01*
X22202Y35513D01*
X22307Y35593D01*
X22387Y35698D01*
X22437Y35819D01*
X22454Y35950D01*
X22437Y36081D01*
X22387Y36202D01*
X22307Y36307D01*
X22202Y36387D01*
X22081Y36437D01*
X21950Y36454D01*
D02*
G37*
G36*
X14582Y35750D02*
X14200D01*
Y35368D01*
X14263Y35377D01*
X14369Y35420D01*
X14460Y35490D01*
X14530Y35581D01*
X14573Y35687D01*
X14582Y35750D01*
D02*
G37*
G36*
X14100D02*
X13718D01*
X13727Y35687D01*
X13770Y35581D01*
X13840Y35490D01*
X13931Y35420D01*
X14037Y35377D01*
X14100Y35368D01*
Y35750D01*
D02*
G37*
G36*
X15585Y36235D02*
X14715D01*
Y35365D01*
X15585D01*
Y36235D01*
D02*
G37*
G36*
X20986Y35813D02*
X20195D01*
Y35022D01*
X20986D01*
Y35813D01*
D02*
G37*
G36*
X23950Y35454D02*
X23819Y35437D01*
X23698Y35387D01*
X23593Y35307D01*
X23513Y35202D01*
X23463Y35081D01*
X23446Y34950D01*
X23463Y34819D01*
X23513Y34698D01*
X23593Y34593D01*
X23698Y34513D01*
X23819Y34463D01*
X23950Y34446D01*
X24081Y34463D01*
X24202Y34513D01*
X24307Y34593D01*
X24387Y34698D01*
X24437Y34819D01*
X24454Y34950D01*
X24437Y35081D01*
X24387Y35202D01*
X24307Y35307D01*
X24202Y35387D01*
X24081Y35437D01*
X23950Y35454D01*
D02*
G37*
G36*
X31771Y34119D02*
X31771Y34119D01*
X21969D01*
X21969Y34119D01*
X21899Y34105D01*
X21840Y34066D01*
X18706Y30932D01*
X15857D01*
X15847Y30933D01*
X15835Y30935D01*
Y31185D01*
X14965D01*
Y30315D01*
X15835D01*
Y30565D01*
X15847Y30567D01*
X15857Y30568D01*
X18781D01*
X18781Y30568D01*
X18851Y30582D01*
X18910Y30621D01*
X19917Y31628D01*
X19965Y31612D01*
X19969Y31577D01*
X20005Y31490D01*
X20058Y31421D01*
X20062Y31416D01*
X20062Y31416D01*
X20113Y31365D01*
Y31315D01*
X20085Y31288D01*
X20085Y31288D01*
X18730Y29932D01*
X15908D01*
X15894Y29935D01*
X15876Y29940D01*
X15856Y29947D01*
X15835Y29957D01*
X15813Y29971D01*
X15791Y29986D01*
X15738Y30030D01*
X15718Y30050D01*
X15710Y30060D01*
X15619Y30130D01*
X15513Y30173D01*
X15400Y30188D01*
X15287Y30173D01*
X15181Y30130D01*
X15090Y30060D01*
X15020Y29969D01*
X14977Y29863D01*
X14962Y29750D01*
X14977Y29637D01*
X15020Y29531D01*
X15090Y29440D01*
X15181Y29370D01*
X15287Y29327D01*
X15400Y29312D01*
X15513Y29327D01*
X15619Y29370D01*
X15710Y29440D01*
X15718Y29450D01*
X15739Y29471D01*
X15765Y29493D01*
X15789Y29513D01*
X15813Y29529D01*
X15835Y29543D01*
X15856Y29553D01*
X15876Y29560D01*
X15894Y29565D01*
X15908Y29568D01*
X18805D01*
X18805Y29568D01*
X18875Y29582D01*
X18934Y29621D01*
X19555Y30242D01*
X19602Y30218D01*
X19593Y30152D01*
X19605Y30064D01*
X19639Y29983D01*
X19687Y29919D01*
X19692Y29912D01*
X19687Y29866D01*
X19674Y29853D01*
X19674Y29853D01*
X18753Y28932D01*
X15908D01*
X15894Y28935D01*
X15876Y28940D01*
X15856Y28947D01*
X15835Y28957D01*
X15813Y28971D01*
X15791Y28986D01*
X15738Y29030D01*
X15718Y29050D01*
X15710Y29060D01*
X15619Y29130D01*
X15513Y29173D01*
X15400Y29188D01*
X15287Y29173D01*
X15181Y29130D01*
X15090Y29060D01*
X15020Y28969D01*
X14977Y28863D01*
X14962Y28750D01*
X14977Y28637D01*
X15020Y28531D01*
X15090Y28440D01*
X15181Y28370D01*
X15287Y28327D01*
X15400Y28312D01*
X15513Y28327D01*
X15619Y28370D01*
X15710Y28440D01*
X15718Y28450D01*
X15739Y28471D01*
X15765Y28493D01*
X15789Y28513D01*
X15813Y28529D01*
X15835Y28543D01*
X15856Y28553D01*
X15876Y28560D01*
X15894Y28565D01*
X15908Y28568D01*
X18829D01*
X18829Y28568D01*
X18898Y28582D01*
X18958Y28621D01*
X19932Y29596D01*
X19932Y29596D01*
X19988Y29651D01*
X19988Y29651D01*
X19988Y29651D01*
X19993Y29659D01*
X20041Y29722D01*
X20075Y29804D01*
X20087Y29891D01*
X20086Y29896D01*
X20131Y29919D01*
X20329Y29721D01*
X20329Y29721D01*
X20336Y29716D01*
X20399Y29667D01*
X20481Y29633D01*
X20569Y29622D01*
X20656Y29633D01*
X20738Y29667D01*
X20801Y29716D01*
X20809Y29721D01*
X20814Y29728D01*
X20862Y29791D01*
X20896Y29873D01*
X20908Y29961D01*
X20896Y30049D01*
X20890Y30064D01*
X20925Y30110D01*
X20979Y30103D01*
X21066Y30114D01*
X21148Y30148D01*
X21211Y30197D01*
X21219Y30202D01*
X21224Y30209D01*
X21272Y30272D01*
X21306Y30354D01*
X21318Y30442D01*
X21306Y30530D01*
X21272Y30612D01*
X21224Y30675D01*
X21219Y30682D01*
X21219Y30682D01*
X21219Y30682D01*
X21119Y30782D01*
X21786Y31449D01*
X21786Y31449D01*
X23304Y32967D01*
X24241D01*
X24251Y32917D01*
X24202Y32885D01*
X24202Y32885D01*
X23730Y32413D01*
X23730Y32413D01*
X23420Y32103D01*
X23415Y32095D01*
X23366Y32032D01*
X23332Y31950D01*
X23321Y31862D01*
X23321Y31857D01*
X23277Y31835D01*
X23171Y31941D01*
X23163Y31946D01*
X23100Y31994D01*
X23018Y32028D01*
X22931Y32040D01*
X22843Y32028D01*
X22761Y31994D01*
X22698Y31946D01*
X22690Y31941D01*
X22685Y31933D01*
X22637Y31870D01*
X22603Y31788D01*
X22592Y31701D01*
X22602Y31625D01*
X22588Y31605D01*
X22581Y31598D01*
X22561Y31584D01*
X22485Y31594D01*
X22397Y31583D01*
X22316Y31549D01*
X22253Y31501D01*
X22245Y31495D01*
X22240Y31488D01*
X22192Y31425D01*
X22158Y31343D01*
X22146Y31255D01*
X22156Y31180D01*
X22142Y31159D01*
X22136Y31153D01*
X22115Y31139D01*
X22040Y31149D01*
X21952Y31137D01*
X21870Y31104D01*
X21807Y31055D01*
X21800Y31050D01*
X21795Y31042D01*
X21746Y30979D01*
X21712Y30898D01*
X21701Y30810D01*
X21712Y30722D01*
X21746Y30640D01*
X21795Y30577D01*
X21800Y30570D01*
X21800Y30570D01*
X21818Y30551D01*
Y30501D01*
X21805Y30488D01*
X21805Y30488D01*
X19249Y27932D01*
X15908D01*
X15894Y27935D01*
X15876Y27940D01*
X15856Y27947D01*
X15835Y27957D01*
X15813Y27971D01*
X15791Y27986D01*
X15738Y28030D01*
X15718Y28050D01*
X15710Y28060D01*
X15619Y28130D01*
X15513Y28173D01*
X15400Y28188D01*
X15287Y28173D01*
X15181Y28130D01*
X15090Y28060D01*
X15020Y27969D01*
X14977Y27863D01*
X14962Y27750D01*
X14977Y27637D01*
X15020Y27531D01*
X15090Y27440D01*
X15181Y27370D01*
X15287Y27327D01*
X15400Y27312D01*
X15513Y27327D01*
X15619Y27370D01*
X15710Y27440D01*
X15718Y27450D01*
X15739Y27471D01*
X15765Y27493D01*
X15789Y27513D01*
X15813Y27529D01*
X15835Y27543D01*
X15856Y27553D01*
X15876Y27560D01*
X15894Y27565D01*
X15908Y27568D01*
X19325D01*
X19325Y27568D01*
X19395Y27582D01*
X19454Y27621D01*
X19653Y27821D01*
X19697Y27794D01*
X19708Y27715D01*
X19742Y27633D01*
X19790Y27570D01*
X19795Y27563D01*
X19780Y27518D01*
X19772Y27510D01*
X19772Y27510D01*
X19194Y26932D01*
X15908D01*
X15894Y26935D01*
X15876Y26940D01*
X15856Y26947D01*
X15835Y26957D01*
X15813Y26971D01*
X15791Y26986D01*
X15738Y27030D01*
X15718Y27050D01*
X15710Y27060D01*
X15619Y27130D01*
X15513Y27173D01*
X15400Y27188D01*
X15287Y27173D01*
X15181Y27130D01*
X15090Y27060D01*
X15020Y26969D01*
X14977Y26863D01*
X14962Y26750D01*
X14977Y26637D01*
X15020Y26531D01*
X15090Y26440D01*
X15181Y26370D01*
X15287Y26327D01*
X15400Y26312D01*
X15513Y26327D01*
X15619Y26370D01*
X15710Y26440D01*
X15718Y26450D01*
X15739Y26471D01*
X15765Y26493D01*
X15789Y26513D01*
X15813Y26529D01*
X15835Y26543D01*
X15856Y26553D01*
X15876Y26560D01*
X15894Y26565D01*
X15908Y26568D01*
X19270D01*
X19270Y26568D01*
X19339Y26582D01*
X19399Y26621D01*
X20029Y27252D01*
X20029Y27252D01*
X20069Y27291D01*
X20069Y27291D01*
X20085Y27308D01*
X20085Y27308D01*
X20090Y27315D01*
X20139Y27378D01*
X20172Y27460D01*
X20184Y27548D01*
X20183Y27553D01*
X20228Y27575D01*
X20462Y27341D01*
X20462Y27341D01*
X20470Y27336D01*
X20533Y27287D01*
X20615Y27253D01*
X20703Y27242D01*
X20790Y27253D01*
X20872Y27287D01*
X20935Y27336D01*
X20943Y27341D01*
X20948Y27348D01*
X20996Y27411D01*
X21030Y27493D01*
X21042Y27581D01*
X21032Y27656D01*
X21045Y27677D01*
X21052Y27683D01*
X21073Y27697D01*
X21148Y27687D01*
X21236Y27699D01*
X21318Y27733D01*
X21381Y27781D01*
X21388Y27786D01*
X21393Y27794D01*
X21442Y27857D01*
X21476Y27939D01*
X21487Y28026D01*
X21477Y28102D01*
X21491Y28122D01*
X21498Y28129D01*
X21518Y28143D01*
X21593Y28133D01*
X21681Y28144D01*
X21763Y28178D01*
X21826Y28226D01*
X21834Y28232D01*
X21839Y28239D01*
X21887Y28302D01*
X21921Y28384D01*
X21933Y28472D01*
X21921Y28560D01*
X21887Y28641D01*
X21856Y28682D01*
X21883Y28729D01*
X21889Y28728D01*
X21977Y28740D01*
X22059Y28773D01*
X22122Y28822D01*
X22129Y28827D01*
X22134Y28834D01*
X22183Y28898D01*
X22217Y28979D01*
X22228Y29067D01*
X22217Y29155D01*
X22183Y29237D01*
X22159Y29268D01*
X22129Y29307D01*
X22131Y29354D01*
X22655Y29878D01*
X22655Y29878D01*
X24642Y31865D01*
X25824D01*
X25849Y31815D01*
X25805Y31757D01*
X25765Y31661D01*
X25751Y31558D01*
X25765Y31455D01*
X25805Y31359D01*
X25868Y31276D01*
X25951Y31213D01*
X26047Y31173D01*
X26150Y31159D01*
X26253Y31173D01*
X26349Y31213D01*
X26432Y31276D01*
X26495Y31359D01*
X26535Y31455D01*
X26549Y31558D01*
X26535Y31661D01*
X26495Y31757D01*
X26451Y31815D01*
X26476Y31865D01*
X26824D01*
X26849Y31815D01*
X26805Y31757D01*
X26765Y31661D01*
X26751Y31558D01*
X26765Y31455D01*
X26805Y31359D01*
X26868Y31276D01*
X26951Y31213D01*
X27047Y31173D01*
X27150Y31159D01*
X27253Y31173D01*
X27349Y31213D01*
X27432Y31276D01*
X27495Y31359D01*
X27535Y31455D01*
X27549Y31558D01*
X27535Y31661D01*
X27495Y31757D01*
X27451Y31815D01*
X27476Y31865D01*
X27585D01*
X27708Y31742D01*
X27715Y31733D01*
X27723Y31719D01*
X27730Y31704D01*
X27737Y31686D01*
X27743Y31666D01*
X27747Y31643D01*
X27750Y31619D01*
X27752Y31591D01*
X27753Y31568D01*
X27751Y31558D01*
X27765Y31455D01*
X27805Y31359D01*
X27868Y31276D01*
X27951Y31213D01*
X28047Y31173D01*
X28150Y31159D01*
X28253Y31173D01*
X28349Y31213D01*
X28432Y31276D01*
X28495Y31359D01*
X28535Y31455D01*
X28549Y31558D01*
X28535Y31661D01*
X28495Y31757D01*
X28432Y31840D01*
X28349Y31903D01*
X28253Y31943D01*
X28150Y31957D01*
X28140Y31955D01*
X28117Y31956D01*
X28089Y31958D01*
X28065Y31961D01*
X28042Y31965D01*
X28022Y31971D01*
X28004Y31978D01*
X27989Y31985D01*
X27975Y31993D01*
X27966Y32000D01*
X27789Y32176D01*
X27730Y32216D01*
X27661Y32229D01*
X27661Y32229D01*
X24567D01*
X24567Y32229D01*
X24497Y32216D01*
X24438Y32176D01*
X24438Y32176D01*
X23816Y31554D01*
X23769Y31578D01*
X23777Y31639D01*
X23765Y31727D01*
X23731Y31809D01*
X23692Y31860D01*
X23987Y32155D01*
X23987Y32155D01*
X24406Y32574D01*
X28876D01*
X29708Y31742D01*
X29715Y31733D01*
X29723Y31719D01*
X29730Y31704D01*
X29737Y31686D01*
X29743Y31666D01*
X29747Y31643D01*
X29750Y31619D01*
X29752Y31591D01*
X29753Y31568D01*
X29751Y31558D01*
X29765Y31455D01*
X29805Y31359D01*
X29868Y31276D01*
X29951Y31213D01*
X30047Y31173D01*
X30150Y31159D01*
X30253Y31173D01*
X30349Y31213D01*
X30432Y31276D01*
X30495Y31359D01*
X30535Y31455D01*
X30549Y31558D01*
X30535Y31661D01*
X30495Y31757D01*
X30432Y31840D01*
X30349Y31903D01*
X30253Y31943D01*
X30150Y31957D01*
X30140Y31955D01*
X30117Y31956D01*
X30089Y31958D01*
X30065Y31961D01*
X30042Y31965D01*
X30022Y31971D01*
X30004Y31978D01*
X29989Y31985D01*
X29975Y31993D01*
X29966Y32000D01*
X29081Y32885D01*
X29032Y32917D01*
X29042Y32967D01*
X29483D01*
X30708Y31742D01*
X30715Y31733D01*
X30723Y31719D01*
X30730Y31704D01*
X30737Y31686D01*
X30743Y31666D01*
X30747Y31643D01*
X30750Y31619D01*
X30752Y31591D01*
X30753Y31568D01*
X30751Y31558D01*
X30765Y31455D01*
X30805Y31359D01*
X30868Y31276D01*
X30951Y31213D01*
X31047Y31173D01*
X31150Y31159D01*
X31253Y31173D01*
X31349Y31213D01*
X31432Y31276D01*
X31495Y31359D01*
X31535Y31455D01*
X31549Y31558D01*
X31535Y31661D01*
X31495Y31757D01*
X31432Y31840D01*
X31349Y31903D01*
X31253Y31943D01*
X31150Y31957D01*
X31140Y31955D01*
X31117Y31956D01*
X31089Y31958D01*
X31065Y31961D01*
X31042Y31965D01*
X31022Y31971D01*
X31004Y31978D01*
X30989Y31985D01*
X30975Y31993D01*
X30966Y32000D01*
X29687Y33278D01*
X29638Y33311D01*
X29648Y33361D01*
X30089D01*
X31708Y31742D01*
X31715Y31733D01*
X31723Y31719D01*
X31730Y31704D01*
X31737Y31686D01*
X31743Y31666D01*
X31747Y31643D01*
X31750Y31619D01*
X31752Y31591D01*
X31753Y31568D01*
X31751Y31558D01*
X31765Y31455D01*
X31805Y31359D01*
X31868Y31276D01*
X31951Y31213D01*
X32047Y31173D01*
X32150Y31159D01*
X32253Y31173D01*
X32349Y31213D01*
X32432Y31276D01*
X32495Y31359D01*
X32535Y31455D01*
X32549Y31558D01*
X32535Y31661D01*
X32495Y31757D01*
X32432Y31840D01*
X32349Y31903D01*
X32253Y31943D01*
X32150Y31957D01*
X32140Y31955D01*
X32117Y31956D01*
X32089Y31958D01*
X32065Y31961D01*
X32042Y31965D01*
X32022Y31971D01*
X32004Y31978D01*
X31988Y31985D01*
X31975Y31993D01*
X31966Y32000D01*
X30293Y33672D01*
X30245Y33705D01*
X30254Y33755D01*
X31695D01*
X33708Y31742D01*
X33715Y31733D01*
X33723Y31719D01*
X33730Y31704D01*
X33737Y31686D01*
X33743Y31666D01*
X33747Y31643D01*
X33750Y31619D01*
X33752Y31591D01*
X33753Y31568D01*
X33751Y31558D01*
X33765Y31455D01*
X33805Y31359D01*
X33868Y31276D01*
X33951Y31213D01*
X34047Y31173D01*
X34150Y31159D01*
X34253Y31173D01*
X34349Y31213D01*
X34432Y31276D01*
X34495Y31359D01*
X34535Y31455D01*
X34549Y31558D01*
X34535Y31661D01*
X34495Y31757D01*
X34432Y31840D01*
X34349Y31903D01*
X34253Y31943D01*
X34150Y31957D01*
X34140Y31955D01*
X34117Y31956D01*
X34089Y31958D01*
X34065Y31961D01*
X34042Y31965D01*
X34022Y31971D01*
X34004Y31978D01*
X33988Y31985D01*
X33975Y31993D01*
X33966Y32000D01*
X31900Y34066D01*
X31841Y34105D01*
X31771Y34119D01*
D02*
G37*
G36*
X35370Y34838D02*
X35235Y34825D01*
X35104Y34785D01*
X34984Y34721D01*
X34879Y34635D01*
X34793Y34530D01*
X34729Y34410D01*
X34689Y34280D01*
X34676Y34144D01*
X34689Y34009D01*
X34729Y33879D01*
X34793Y33759D01*
X34879Y33654D01*
X34984Y33567D01*
X35104Y33503D01*
X35235Y33464D01*
X35370Y33450D01*
X35505Y33464D01*
X35635Y33503D01*
X35755Y33567D01*
X35861Y33654D01*
X35947Y33759D01*
X36011Y33879D01*
X36051Y34009D01*
X36064Y34144D01*
X36051Y34280D01*
X36011Y34410D01*
X35947Y34530D01*
X35861Y34635D01*
X35755Y34721D01*
X35635Y34785D01*
X35505Y34825D01*
X35370Y34838D01*
D02*
G37*
G36*
X35545Y31953D02*
X34755D01*
Y31163D01*
X35545D01*
Y31953D01*
D02*
G37*
G36*
X33150Y31957D02*
X33047Y31943D01*
X32951Y31903D01*
X32868Y31840D01*
X32805Y31757D01*
X32765Y31661D01*
X32751Y31558D01*
X32765Y31455D01*
X32805Y31359D01*
X32868Y31276D01*
X32951Y31213D01*
X33047Y31173D01*
X33150Y31159D01*
X33253Y31173D01*
X33349Y31213D01*
X33432Y31276D01*
X33495Y31359D01*
X33535Y31455D01*
X33549Y31558D01*
X33535Y31661D01*
X33495Y31757D01*
X33432Y31840D01*
X33349Y31903D01*
X33253Y31943D01*
X33150Y31957D01*
D02*
G37*
G36*
X29150D02*
X29047Y31943D01*
X28951Y31903D01*
X28868Y31840D01*
X28805Y31757D01*
X28765Y31661D01*
X28751Y31558D01*
X28753Y31548D01*
X28752Y31524D01*
X28750Y31497D01*
X28747Y31472D01*
X28743Y31450D01*
X28737Y31430D01*
X28730Y31412D01*
X28723Y31396D01*
X28715Y31383D01*
X28708Y31374D01*
X28533Y31198D01*
X28493Y31139D01*
X28479Y31069D01*
X28479Y31069D01*
Y30856D01*
X28447Y30845D01*
X28429Y30842D01*
X28349Y30903D01*
X28253Y30943D01*
X28150Y30957D01*
X28047Y30943D01*
X27951Y30903D01*
X27868Y30840D01*
X27805Y30757D01*
X27765Y30661D01*
X27751Y30558D01*
X27765Y30455D01*
X27805Y30359D01*
X27868Y30276D01*
X27951Y30213D01*
X28047Y30173D01*
X28150Y30159D01*
X28253Y30173D01*
X28349Y30213D01*
X28429Y30274D01*
X28447Y30271D01*
X28479Y30260D01*
Y29918D01*
X26143Y27582D01*
X26143Y27582D01*
X25201Y26640D01*
X25196Y26632D01*
X25148Y26569D01*
X25114Y26488D01*
X25102Y26400D01*
X25103Y26395D01*
X25058Y26373D01*
X24770Y26661D01*
X24763Y26666D01*
X24700Y26714D01*
X24618Y26748D01*
X24530Y26760D01*
X24442Y26748D01*
X24360Y26714D01*
X24297Y26666D01*
X24290Y26661D01*
X24285Y26653D01*
X24236Y26590D01*
X24202Y26508D01*
X24191Y26420D01*
X24202Y26333D01*
X24236Y26251D01*
X24285Y26188D01*
X24290Y26180D01*
X24491Y25979D01*
Y25929D01*
X24477Y25916D01*
X24477Y25916D01*
X22493Y23932D01*
X15908D01*
X15894Y23935D01*
X15876Y23940D01*
X15856Y23947D01*
X15835Y23957D01*
X15813Y23971D01*
X15791Y23986D01*
X15738Y24030D01*
X15718Y24050D01*
X15710Y24060D01*
X15619Y24130D01*
X15513Y24173D01*
X15400Y24188D01*
X15287Y24173D01*
X15181Y24130D01*
X15090Y24060D01*
X15020Y23969D01*
X14977Y23863D01*
X14962Y23750D01*
X14977Y23637D01*
X15020Y23531D01*
X15090Y23440D01*
X15181Y23370D01*
X15287Y23327D01*
X15400Y23312D01*
X15513Y23327D01*
X15619Y23370D01*
X15710Y23440D01*
X15718Y23450D01*
X15739Y23471D01*
X15765Y23493D01*
X15789Y23513D01*
X15813Y23529D01*
X15835Y23543D01*
X15856Y23553D01*
X15876Y23560D01*
X15894Y23565D01*
X15908Y23568D01*
X22569D01*
X22569Y23568D01*
X22639Y23582D01*
X22698Y23621D01*
X24735Y25659D01*
X24735Y25659D01*
X24791Y25714D01*
X24791Y25714D01*
Y25714D01*
X24796Y25722D01*
X24844Y25785D01*
X24878Y25867D01*
X24890Y25954D01*
X24889Y25959D01*
X24934Y25982D01*
X24979Y25937D01*
X24986Y25932D01*
X25049Y25883D01*
X25131Y25850D01*
X25219Y25838D01*
X25307Y25850D01*
X25388Y25883D01*
X25451Y25932D01*
X25459Y25937D01*
X25464Y25944D01*
X25512Y26008D01*
X25546Y26089D01*
X25558Y26177D01*
X25546Y26265D01*
X25512Y26347D01*
X25480Y26388D01*
X25476Y26398D01*
X25476Y26398D01*
X25476Y26399D01*
X26401Y27324D01*
X26401Y27324D01*
X28790Y29714D01*
X28790Y29714D01*
X28830Y29773D01*
X28844Y29843D01*
Y30232D01*
X28894Y30256D01*
X28951Y30213D01*
X29047Y30173D01*
X29150Y30159D01*
X29253Y30173D01*
X29349Y30213D01*
X29432Y30276D01*
X29495Y30359D01*
X29535Y30455D01*
X29549Y30558D01*
X29535Y30661D01*
X29495Y30757D01*
X29432Y30840D01*
X29349Y30903D01*
X29253Y30943D01*
X29150Y30957D01*
X29047Y30943D01*
X28951Y30903D01*
X28894Y30859D01*
X28844Y30884D01*
Y30994D01*
X28966Y31116D01*
X28975Y31122D01*
X28988Y31131D01*
X29004Y31138D01*
X29022Y31145D01*
X29042Y31150D01*
X29065Y31155D01*
X29089Y31158D01*
X29117Y31160D01*
X29140Y31161D01*
X29150Y31159D01*
X29253Y31173D01*
X29349Y31213D01*
X29432Y31276D01*
X29495Y31359D01*
X29535Y31455D01*
X29549Y31558D01*
X29535Y31661D01*
X29495Y31757D01*
X29432Y31840D01*
X29349Y31903D01*
X29253Y31943D01*
X29150Y31957D01*
D02*
G37*
G36*
X34200Y30950D02*
Y30608D01*
X34542D01*
X34535Y30661D01*
X34495Y30757D01*
X34432Y30840D01*
X34349Y30903D01*
X34253Y30943D01*
X34200Y30950D01*
D02*
G37*
G36*
X34100Y30950D02*
X34047Y30943D01*
X33951Y30903D01*
X33868Y30840D01*
X33805Y30757D01*
X33765Y30661D01*
X33758Y30608D01*
X34100D01*
Y30950D01*
D02*
G37*
G36*
X33812Y30508D02*
X33758D01*
X33765Y30455D01*
X33812Y30508D01*
D02*
G37*
G36*
X34542D02*
X34482D01*
X34534Y30453D01*
X34535Y30455D01*
X34542Y30508D01*
D02*
G37*
G36*
X34398D02*
X34200D01*
Y30310D01*
X34398Y30508D01*
D02*
G37*
G36*
X34100D02*
X33902D01*
X34100Y30310D01*
Y30508D01*
D02*
G37*
G36*
X34439Y30285D02*
X34423Y30269D01*
X34432Y30276D01*
X34439Y30285D01*
D02*
G37*
G36*
X33861D02*
X33868Y30276D01*
X33877Y30269D01*
X33861Y30285D01*
D02*
G37*
G36*
X34200Y30220D02*
Y30166D01*
X34253Y30173D01*
X34200Y30220D01*
D02*
G37*
G36*
X34100Y30226D02*
X34045Y30174D01*
X34047Y30173D01*
X34100Y30166D01*
Y30226D01*
D02*
G37*
G36*
X35150Y30957D02*
X35047Y30943D01*
X34951Y30903D01*
X34868Y30840D01*
X34805Y30757D01*
X34765Y30661D01*
X34751Y30558D01*
X34765Y30455D01*
X34805Y30359D01*
X34868Y30276D01*
X34951Y30213D01*
X35047Y30173D01*
X35150Y30159D01*
X35253Y30173D01*
X35349Y30213D01*
X35432Y30276D01*
X35495Y30359D01*
X35535Y30455D01*
X35549Y30558D01*
X35535Y30661D01*
X35495Y30757D01*
X35432Y30840D01*
X35349Y30903D01*
X35253Y30943D01*
X35150Y30957D01*
D02*
G37*
G36*
X33150D02*
X33047Y30943D01*
X32951Y30903D01*
X32868Y30840D01*
X32805Y30757D01*
X32765Y30661D01*
X32751Y30558D01*
X32765Y30455D01*
X32805Y30359D01*
X32868Y30276D01*
X32951Y30213D01*
X33047Y30173D01*
X33150Y30159D01*
X33253Y30173D01*
X33349Y30213D01*
X33432Y30276D01*
X33495Y30359D01*
X33535Y30455D01*
X33549Y30558D01*
X33535Y30661D01*
X33495Y30757D01*
X33432Y30840D01*
X33349Y30903D01*
X33253Y30943D01*
X33150Y30957D01*
D02*
G37*
G36*
X32150D02*
X32047Y30943D01*
X31951Y30903D01*
X31868Y30840D01*
X31805Y30757D01*
X31765Y30661D01*
X31751Y30558D01*
X31765Y30455D01*
X31805Y30359D01*
X31868Y30276D01*
X31951Y30213D01*
X32047Y30173D01*
X32150Y30159D01*
X32253Y30173D01*
X32349Y30213D01*
X32432Y30276D01*
X32495Y30359D01*
X32535Y30455D01*
X32549Y30558D01*
X32535Y30661D01*
X32495Y30757D01*
X32432Y30840D01*
X32349Y30903D01*
X32253Y30943D01*
X32150Y30957D01*
D02*
G37*
G36*
X31150D02*
X31047Y30943D01*
X30951Y30903D01*
X30868Y30840D01*
X30805Y30757D01*
X30765Y30661D01*
X30751Y30558D01*
X30765Y30455D01*
X30805Y30359D01*
X30868Y30276D01*
X30951Y30213D01*
X31047Y30173D01*
X31150Y30159D01*
X31253Y30173D01*
X31349Y30213D01*
X31432Y30276D01*
X31495Y30359D01*
X31535Y30455D01*
X31549Y30558D01*
X31535Y30661D01*
X31495Y30757D01*
X31432Y30840D01*
X31349Y30903D01*
X31253Y30943D01*
X31150Y30957D01*
D02*
G37*
G36*
X30150D02*
X30047Y30943D01*
X29951Y30903D01*
X29868Y30840D01*
X29805Y30757D01*
X29765Y30661D01*
X29751Y30558D01*
X29765Y30455D01*
X29805Y30359D01*
X29868Y30276D01*
X29951Y30213D01*
X30047Y30173D01*
X30150Y30159D01*
X30253Y30173D01*
X30349Y30213D01*
X30432Y30276D01*
X30495Y30359D01*
X30535Y30455D01*
X30549Y30558D01*
X30535Y30661D01*
X30495Y30757D01*
X30432Y30840D01*
X30349Y30903D01*
X30253Y30943D01*
X30150Y30957D01*
D02*
G37*
G36*
X27150D02*
X27047Y30943D01*
X26951Y30903D01*
X26868Y30840D01*
X26805Y30757D01*
X26765Y30661D01*
X26751Y30558D01*
X26765Y30455D01*
X26805Y30359D01*
X26868Y30276D01*
X26951Y30213D01*
X27047Y30173D01*
X27150Y30159D01*
X27253Y30173D01*
X27349Y30213D01*
X27432Y30276D01*
X27495Y30359D01*
X27535Y30455D01*
X27549Y30558D01*
X27535Y30661D01*
X27495Y30757D01*
X27432Y30840D01*
X27349Y30903D01*
X27253Y30943D01*
X27150Y30957D01*
D02*
G37*
G36*
X26150D02*
X26047Y30943D01*
X25951Y30903D01*
X25868Y30840D01*
X25805Y30757D01*
X25765Y30661D01*
X25751Y30558D01*
X25753Y30548D01*
X25752Y30524D01*
X25750Y30497D01*
X25747Y30472D01*
X25743Y30450D01*
X25737Y30430D01*
X25730Y30412D01*
X25723Y30396D01*
X25715Y30382D01*
X25708Y30374D01*
X23920Y28586D01*
X23920Y28586D01*
X23566Y28232D01*
X23561Y28224D01*
X23512Y28161D01*
X23479Y28079D01*
X23467Y27991D01*
X23468Y27986D01*
X23423Y27964D01*
X23072Y28315D01*
X23064Y28320D01*
X23001Y28369D01*
X22919Y28403D01*
X22831Y28414D01*
X22744Y28403D01*
X22662Y28369D01*
X22599Y28320D01*
X22591Y28315D01*
X22586Y28308D01*
X22538Y28245D01*
X22504Y28163D01*
X22492Y28075D01*
X22502Y28000D01*
X22489Y27979D01*
X22482Y27973D01*
X22462Y27959D01*
X22386Y27969D01*
X22298Y27957D01*
X22216Y27923D01*
X22153Y27875D01*
X22146Y27870D01*
X22141Y27862D01*
X22092Y27799D01*
X22058Y27718D01*
X22047Y27630D01*
X22057Y27554D01*
X22043Y27534D01*
X22036Y27527D01*
X22016Y27514D01*
X21941Y27523D01*
X21853Y27512D01*
X21771Y27478D01*
X21708Y27430D01*
X21700Y27425D01*
X21695Y27417D01*
X21647Y27354D01*
X21613Y27272D01*
X21602Y27184D01*
X21613Y27097D01*
X21647Y27015D01*
X21695Y26952D01*
X21700Y26944D01*
X21700Y26944D01*
X21964Y26680D01*
Y26630D01*
X21951Y26617D01*
X21951Y26617D01*
X20267Y24932D01*
X15908D01*
X15894Y24935D01*
X15876Y24940D01*
X15856Y24947D01*
X15835Y24957D01*
X15813Y24971D01*
X15791Y24986D01*
X15738Y25030D01*
X15718Y25050D01*
X15710Y25060D01*
X15619Y25130D01*
X15513Y25173D01*
X15400Y25188D01*
X15287Y25173D01*
X15181Y25130D01*
X15090Y25060D01*
X15020Y24969D01*
X14977Y24863D01*
X14962Y24750D01*
X14977Y24637D01*
X15020Y24531D01*
X15090Y24440D01*
X15181Y24370D01*
X15287Y24327D01*
X15400Y24312D01*
X15513Y24327D01*
X15619Y24370D01*
X15710Y24440D01*
X15718Y24450D01*
X15739Y24471D01*
X15765Y24493D01*
X15789Y24513D01*
X15813Y24529D01*
X15835Y24543D01*
X15856Y24553D01*
X15876Y24560D01*
X15894Y24565D01*
X15908Y24568D01*
X20342D01*
X20342Y24568D01*
X20412Y24582D01*
X20471Y24621D01*
X22209Y26359D01*
X22209Y26359D01*
X22265Y26415D01*
X22265Y26415D01*
X22265Y26415D01*
X22265Y26415D01*
X22270Y26422D01*
X22318Y26486D01*
X22352Y26567D01*
X22364Y26655D01*
X22363Y26660D01*
X22408Y26682D01*
X22798Y26292D01*
X22798Y26292D01*
X22806Y26287D01*
X22869Y26238D01*
X22951Y26204D01*
X23039Y26193D01*
X23126Y26204D01*
X23208Y26238D01*
X23271Y26287D01*
X23279Y26292D01*
X23284Y26299D01*
X23332Y26362D01*
X23366Y26444D01*
X23378Y26532D01*
X23368Y26607D01*
X23381Y26628D01*
X23388Y26634D01*
X23408Y26648D01*
X23484Y26638D01*
X23572Y26650D01*
X23654Y26684D01*
X23717Y26732D01*
X23724Y26737D01*
X23729Y26745D01*
X23778Y26808D01*
X23812Y26889D01*
X23823Y26977D01*
X23812Y27065D01*
X23778Y27147D01*
X23734Y27203D01*
X23742Y27228D01*
X23758Y27251D01*
X23763Y27250D01*
X23851Y27261D01*
X23933Y27295D01*
X23996Y27344D01*
X24003Y27349D01*
X24008Y27356D01*
X24057Y27419D01*
X24091Y27501D01*
X24102Y27589D01*
X24091Y27677D01*
X24057Y27759D01*
X24008Y27822D01*
X24003Y27829D01*
X24003Y27829D01*
X24003Y27829D01*
X23841Y27991D01*
X24178Y28328D01*
X24178Y28328D01*
X25966Y30116D01*
X25975Y30122D01*
X25989Y30131D01*
X26004Y30138D01*
X26022Y30145D01*
X26042Y30150D01*
X26065Y30155D01*
X26089Y30158D01*
X26117Y30160D01*
X26140Y30161D01*
X26150Y30159D01*
X26253Y30173D01*
X26349Y30213D01*
X26432Y30276D01*
X26495Y30359D01*
X26535Y30455D01*
X26549Y30558D01*
X26535Y30661D01*
X26495Y30757D01*
X26432Y30840D01*
X26349Y30903D01*
X26253Y30943D01*
X26150Y30957D01*
D02*
G37*
G36*
X35841Y28091D02*
X34459D01*
Y26709D01*
X35841D01*
Y28091D01*
D02*
G37*
G36*
X15400Y26188D02*
X15287Y26173D01*
X15181Y26130D01*
X15090Y26060D01*
X15020Y25969D01*
X14977Y25863D01*
X14962Y25750D01*
X14977Y25637D01*
X15020Y25531D01*
X15090Y25440D01*
X15181Y25370D01*
X15287Y25327D01*
X15400Y25312D01*
X15513Y25327D01*
X15619Y25370D01*
X15710Y25440D01*
X15780Y25531D01*
X15823Y25637D01*
X15838Y25750D01*
X15823Y25863D01*
X15780Y25969D01*
X15710Y26060D01*
X15619Y26130D01*
X15513Y26173D01*
X15400Y26188D01*
D02*
G37*
G36*
X35150Y26094D02*
X35015Y26081D01*
X34884Y26041D01*
X34764Y25977D01*
X34659Y25891D01*
X34573Y25786D01*
X34509Y25666D01*
X34469Y25535D01*
X34456Y25400D01*
X34469Y25265D01*
X34509Y25134D01*
X34573Y25014D01*
X34659Y24909D01*
X34764Y24823D01*
X34884Y24759D01*
X35015Y24719D01*
X35150Y24706D01*
X35285Y24719D01*
X35416Y24759D01*
X35536Y24823D01*
X35641Y24909D01*
X35727Y25014D01*
X35791Y25134D01*
X35831Y25265D01*
X35844Y25400D01*
X35831Y25535D01*
X35791Y25666D01*
X35727Y25786D01*
X35641Y25891D01*
X35536Y25977D01*
X35416Y26041D01*
X35285Y26081D01*
X35150Y26094D01*
D02*
G37*
G36*
X31575Y24021D02*
X31436Y24007D01*
X31302Y23966D01*
X31178Y23900D01*
X31070Y23812D01*
X30981Y23704D01*
X30915Y23580D01*
X30875Y23446D01*
X30861Y23307D01*
X30875Y23168D01*
X30915Y23034D01*
X30981Y22911D01*
X31070Y22802D01*
X31178Y22714D01*
X31302Y22648D01*
X31436Y22607D01*
X31575Y22593D01*
X31714Y22607D01*
X31848Y22648D01*
X31971Y22714D01*
X32079Y22802D01*
X32168Y22911D01*
X32234Y23034D01*
X32275Y23168D01*
X32288Y23307D01*
X32275Y23446D01*
X32234Y23580D01*
X32168Y23704D01*
X32079Y23812D01*
X31971Y23900D01*
X31848Y23966D01*
X31714Y24007D01*
X31575Y24021D01*
D02*
G37*
G36*
X15400Y22188D02*
X15287Y22173D01*
X15181Y22130D01*
X15090Y22060D01*
X15020Y21969D01*
X14977Y21863D01*
X14962Y21750D01*
X14977Y21637D01*
X15020Y21531D01*
X15090Y21440D01*
X15181Y21370D01*
X15287Y21327D01*
X15400Y21312D01*
X15513Y21327D01*
X15619Y21370D01*
X15710Y21440D01*
X15780Y21531D01*
X15823Y21637D01*
X15838Y21750D01*
X15823Y21863D01*
X15780Y21969D01*
X15710Y22060D01*
X15619Y22130D01*
X15513Y22173D01*
X15400Y22188D01*
D02*
G37*
G36*
X32050Y21282D02*
Y20900D01*
X32239D01*
Y21084D01*
X32248Y21077D01*
X32260Y21071D01*
X32275Y21065D01*
X32294Y21060D01*
X32315Y21056D01*
X32340Y21053D01*
X32373Y21050D01*
X32387Y21052D01*
X32380Y21069D01*
X32310Y21160D01*
X32219Y21230D01*
X32113Y21273D01*
X32050Y21282D01*
D02*
G37*
G36*
X30050D02*
Y20900D01*
X30239D01*
Y21084D01*
X30248Y21077D01*
X30260Y21071D01*
X30275Y21065D01*
X30294Y21060D01*
X30315Y21056D01*
X30340Y21053D01*
X30388Y21049D01*
X30380Y21069D01*
X30310Y21160D01*
X30219Y21230D01*
X30113Y21273D01*
X30050Y21282D01*
D02*
G37*
G36*
X31050D02*
Y20900D01*
X31239D01*
Y21084D01*
X31248Y21077D01*
X31260Y21071D01*
X31275Y21065D01*
X31294Y21060D01*
X31315Y21056D01*
X31340Y21053D01*
X31388Y21049D01*
X31380Y21069D01*
X31310Y21160D01*
X31219Y21230D01*
X31113Y21273D01*
X31050Y21282D01*
D02*
G37*
G36*
X33435Y21285D02*
X33230D01*
X33231Y21282D01*
X33246Y21246D01*
X33264Y21219D01*
X33284Y21199D01*
X33307Y21187D01*
X33333Y21183D01*
X33050D01*
Y20900D01*
X33435D01*
Y21285D01*
D02*
G37*
G36*
X31950Y21282D02*
X31887Y21273D01*
X31781Y21230D01*
X31690Y21160D01*
X31620Y21069D01*
X31613Y21051D01*
X31685Y21056D01*
X31706Y21060D01*
X31725Y21065D01*
X31740Y21071D01*
X31752Y21077D01*
X31761Y21084D01*
Y20900D01*
X31950D01*
Y21282D01*
D02*
G37*
G36*
X30950D02*
X30887Y21273D01*
X30781Y21230D01*
X30690Y21160D01*
X30620Y21069D01*
X30613Y21051D01*
X30685Y21056D01*
X30706Y21060D01*
X30725Y21065D01*
X30740Y21071D01*
X30752Y21077D01*
X30761Y21084D01*
Y20900D01*
X30950D01*
Y21282D01*
D02*
G37*
G36*
X32770Y21285D02*
X32565D01*
Y21080D01*
X32568Y21081D01*
X32604Y21096D01*
X32631Y21114D01*
X32651Y21134D01*
X32663Y21157D01*
X32667Y21183D01*
Y20900D01*
X32950D01*
Y21183D01*
X32667D01*
X32693Y21187D01*
X32716Y21199D01*
X32736Y21219D01*
X32754Y21246D01*
X32769Y21282D01*
X32770Y21285D01*
D02*
G37*
G36*
X29950Y21282D02*
X29887Y21273D01*
X29781Y21230D01*
X29690Y21160D01*
X29620Y21069D01*
X29577Y20963D01*
X29568Y20900D01*
X29950D01*
Y21282D01*
D02*
G37*
G36*
X31950Y20800D02*
X31761D01*
Y20616D01*
X31752Y20623D01*
X31740Y20629D01*
X31725Y20635D01*
X31706Y20640D01*
X31685Y20644D01*
X31660Y20647D01*
X31612Y20651D01*
X31620Y20631D01*
X31690Y20540D01*
X31781Y20470D01*
X31887Y20427D01*
X31950Y20418D01*
Y20800D01*
D02*
G37*
G36*
X30950D02*
X30761D01*
Y20616D01*
X30752Y20623D01*
X30740Y20629D01*
X30725Y20635D01*
X30706Y20640D01*
X30685Y20644D01*
X30660Y20647D01*
X30612Y20651D01*
X30620Y20631D01*
X30690Y20540D01*
X30781Y20470D01*
X30887Y20427D01*
X30950Y20418D01*
Y20800D01*
D02*
G37*
G36*
X32950D02*
X32667D01*
Y20517D01*
X32950D01*
Y20800D01*
D02*
G37*
G36*
X31239D02*
X31050D01*
Y20418D01*
X31113Y20427D01*
X31219Y20470D01*
X31310Y20540D01*
X31380Y20631D01*
X31387Y20649D01*
X31315Y20644D01*
X31294Y20640D01*
X31275Y20635D01*
X31260Y20629D01*
X31248Y20623D01*
X31239Y20616D01*
Y20800D01*
D02*
G37*
G36*
X30239D02*
X30050D01*
Y20418D01*
X30113Y20427D01*
X30219Y20470D01*
X30310Y20540D01*
X30380Y20631D01*
X30387Y20649D01*
X30315Y20644D01*
X30294Y20640D01*
X30275Y20635D01*
X30260Y20629D01*
X30248Y20623D01*
X30239Y20616D01*
Y20800D01*
D02*
G37*
G36*
X32239D02*
X32050D01*
Y20418D01*
X32113Y20427D01*
X32219Y20470D01*
X32310Y20540D01*
X32380Y20631D01*
X32387Y20649D01*
X32315Y20644D01*
X32294Y20640D01*
X32275Y20635D01*
X32260Y20629D01*
X32248Y20623D01*
X32239Y20616D01*
Y20800D01*
D02*
G37*
G36*
X29950D02*
X29568D01*
X29577Y20737D01*
X29620Y20631D01*
X29690Y20540D01*
X29781Y20470D01*
X29887Y20427D01*
X29950Y20418D01*
Y20800D01*
D02*
G37*
G36*
X33435D02*
X33050D01*
Y20517D01*
X33333D01*
X33307Y20513D01*
X33284Y20501D01*
X33264Y20481D01*
X33246Y20454D01*
X33231Y20418D01*
X33230Y20415D01*
X33435D01*
Y20800D01*
D02*
G37*
G36*
X32565Y20620D02*
Y20415D01*
X32770D01*
X32769Y20418D01*
X32754Y20454D01*
X32736Y20481D01*
X32716Y20501D01*
X32693Y20513D01*
X32667Y20517D01*
X32663Y20543D01*
X32651Y20566D01*
X32631Y20586D01*
X32604Y20604D01*
X32568Y20619D01*
X32565Y20620D01*
D02*
G37*
G36*
X15400Y21188D02*
X15287Y21173D01*
X15181Y21130D01*
X15090Y21060D01*
X15020Y20969D01*
X14977Y20863D01*
X14962Y20750D01*
X14977Y20637D01*
X15020Y20531D01*
X15090Y20440D01*
X15181Y20370D01*
X15287Y20327D01*
X15400Y20312D01*
X15513Y20327D01*
X15619Y20370D01*
X15710Y20440D01*
X15780Y20531D01*
X15823Y20637D01*
X15838Y20750D01*
X15823Y20863D01*
X15780Y20969D01*
X15710Y21060D01*
X15619Y21130D01*
X15513Y21173D01*
X15400Y21188D01*
D02*
G37*
G36*
Y20188D02*
X15287Y20173D01*
X15181Y20130D01*
X15090Y20060D01*
X15020Y19969D01*
X14977Y19863D01*
X14962Y19750D01*
X14977Y19637D01*
X15020Y19531D01*
X15090Y19440D01*
X15181Y19370D01*
X15287Y19327D01*
X15400Y19312D01*
X15513Y19327D01*
X15619Y19370D01*
X15710Y19440D01*
X15780Y19531D01*
X15823Y19637D01*
X15838Y19750D01*
X15823Y19863D01*
X15780Y19969D01*
X15710Y20060D01*
X15619Y20130D01*
X15513Y20173D01*
X15400Y20188D01*
D02*
G37*
G36*
X15450Y19182D02*
Y18800D01*
X15832D01*
X15823Y18863D01*
X15780Y18969D01*
X15710Y19060D01*
X15619Y19130D01*
X15513Y19173D01*
X15450Y19182D01*
D02*
G37*
G36*
X15350Y19182D02*
X15287Y19173D01*
X15181Y19130D01*
X15090Y19060D01*
X15020Y18969D01*
X14977Y18863D01*
X14968Y18800D01*
X15350D01*
Y19182D01*
D02*
G37*
G36*
X34450Y19588D02*
X34337Y19573D01*
X34231Y19530D01*
X34140Y19460D01*
X34070Y19369D01*
X34027Y19263D01*
X34012Y19150D01*
X34027Y19037D01*
X34070Y18931D01*
X34140Y18840D01*
X34231Y18770D01*
X34337Y18727D01*
X34450Y18712D01*
X34563Y18727D01*
X34669Y18770D01*
X34760Y18840D01*
X34830Y18931D01*
X34873Y19037D01*
X34888Y19150D01*
X34873Y19263D01*
X34830Y19369D01*
X34760Y19460D01*
X34669Y19530D01*
X34563Y19573D01*
X34450Y19588D01*
D02*
G37*
G36*
X15832Y18700D02*
X15765D01*
X15771Y18693D01*
X15804Y18652D01*
X15822Y18633D01*
X15823Y18637D01*
X15832Y18700D01*
D02*
G37*
G36*
X15677D02*
X15450D01*
Y18449D01*
X15677Y18700D01*
D02*
G37*
G36*
X34885Y18585D02*
X34015D01*
Y18335D01*
X34003Y18333D01*
X33993Y18332D01*
X33300D01*
X33300Y18332D01*
X33230Y18318D01*
X33171Y18279D01*
X33150Y18258D01*
X33113Y18273D01*
X33000Y18288D01*
X32887Y18273D01*
X32781Y18230D01*
X32690Y18160D01*
X32620Y18069D01*
X32577Y17963D01*
X32562Y17850D01*
X32577Y17737D01*
X32620Y17631D01*
X32690Y17540D01*
X32781Y17470D01*
X32887Y17427D01*
X33000Y17412D01*
X33113Y17427D01*
X33219Y17470D01*
X33310Y17540D01*
X33380Y17631D01*
X33423Y17737D01*
X33438Y17850D01*
X33429Y17918D01*
X33473Y17968D01*
X33993D01*
X34003Y17967D01*
X34015Y17965D01*
Y17715D01*
X34885D01*
Y18585D01*
D02*
G37*
G36*
X15450Y18410D02*
Y18318D01*
X15513Y18327D01*
X15548Y18341D01*
X15516Y18369D01*
X15496Y18384D01*
X15478Y18396D01*
X15461Y18405D01*
X15450Y18410D01*
D02*
G37*
G36*
X15350Y18700D02*
X14968D01*
X14977Y18637D01*
X15020Y18531D01*
X15090Y18440D01*
X15181Y18370D01*
X15287Y18327D01*
X15350Y18318D01*
Y18700D01*
D02*
G37*
G36*
X32050Y18282D02*
Y18190D01*
X32061Y18195D01*
X32078Y18204D01*
X32096Y18216D01*
X32116Y18231D01*
X32149Y18259D01*
X32113Y18273D01*
X32050Y18282D01*
D02*
G37*
G36*
X32422Y17966D02*
X32371Y17907D01*
X32365Y17900D01*
X32432D01*
X32423Y17963D01*
X32422Y17966D01*
D02*
G37*
G36*
X32050Y18151D02*
Y17900D01*
X32277D01*
X32050Y18151D01*
D02*
G37*
G36*
X31950Y18282D02*
X31887Y18273D01*
X31781Y18230D01*
X31690Y18160D01*
X31620Y18069D01*
X31577Y17963D01*
X31568Y17900D01*
X31950D01*
Y18282D01*
D02*
G37*
G36*
X32432Y17800D02*
X32050D01*
Y17418D01*
X32113Y17427D01*
X32219Y17470D01*
X32310Y17540D01*
X32380Y17631D01*
X32423Y17737D01*
X32432Y17800D01*
D02*
G37*
G36*
X31950D02*
X31568D01*
X31577Y17737D01*
X31620Y17631D01*
X31690Y17540D01*
X31781Y17470D01*
X31887Y17427D01*
X31950Y17418D01*
Y17800D01*
D02*
G37*
G36*
X31000Y18288D02*
X30887Y18273D01*
X30781Y18230D01*
X30690Y18160D01*
X30620Y18069D01*
X30577Y17963D01*
X30562Y17850D01*
X30577Y17737D01*
X30620Y17631D01*
X30690Y17540D01*
X30781Y17470D01*
X30887Y17427D01*
X31000Y17412D01*
X31113Y17427D01*
X31219Y17470D01*
X31310Y17540D01*
X31380Y17631D01*
X31423Y17737D01*
X31438Y17850D01*
X31423Y17963D01*
X31380Y18069D01*
X31310Y18160D01*
X31219Y18230D01*
X31113Y18273D01*
X31000Y18288D01*
D02*
G37*
G36*
X30000D02*
X29887Y18273D01*
X29781Y18230D01*
X29690Y18160D01*
X29620Y18069D01*
X29577Y17963D01*
X29562Y17850D01*
X29577Y17737D01*
X29620Y17631D01*
X29690Y17540D01*
X29781Y17470D01*
X29887Y17427D01*
X30000Y17412D01*
X30113Y17427D01*
X30219Y17470D01*
X30310Y17540D01*
X30380Y17631D01*
X30423Y17737D01*
X30438Y17850D01*
X30423Y17963D01*
X30380Y18069D01*
X30310Y18160D01*
X30219Y18230D01*
X30113Y18273D01*
X30000Y18288D01*
D02*
G37*
G36*
X15400Y23188D02*
X15287Y23173D01*
X15181Y23130D01*
X15090Y23060D01*
X15020Y22969D01*
X14977Y22863D01*
X14962Y22750D01*
X14977Y22637D01*
X15020Y22531D01*
X15090Y22440D01*
X15181Y22370D01*
X15287Y22327D01*
X15400Y22312D01*
X15513Y22327D01*
X15619Y22370D01*
X15710Y22440D01*
X15718Y22450D01*
X15739Y22471D01*
X15765Y22493D01*
X15789Y22513D01*
X15813Y22529D01*
X15835Y22543D01*
X15856Y22553D01*
X15876Y22560D01*
X15894Y22565D01*
X15908Y22568D01*
X22056D01*
X29442Y15182D01*
Y14895D01*
X29392Y14871D01*
X29349Y14903D01*
X29253Y14943D01*
X29150Y14957D01*
X29047Y14943D01*
X28951Y14903D01*
X28868Y14840D01*
X28805Y14757D01*
X28765Y14661D01*
X28751Y14558D01*
X28765Y14455D01*
X28805Y14359D01*
X28868Y14276D01*
X28951Y14213D01*
X29047Y14173D01*
X29150Y14159D01*
X29253Y14173D01*
X29349Y14213D01*
X29392Y14245D01*
X29442Y14221D01*
Y14084D01*
X29442Y14084D01*
X29456Y14014D01*
X29495Y13955D01*
X29708Y13742D01*
X29715Y13733D01*
X29723Y13719D01*
X29730Y13704D01*
X29737Y13686D01*
X29743Y13666D01*
X29747Y13643D01*
X29750Y13619D01*
X29752Y13591D01*
X29753Y13568D01*
X29751Y13558D01*
X29765Y13455D01*
X29805Y13359D01*
X29868Y13276D01*
X29951Y13213D01*
X30047Y13173D01*
X30150Y13159D01*
X30253Y13173D01*
X30349Y13213D01*
X30432Y13276D01*
X30495Y13359D01*
X30535Y13455D01*
X30549Y13558D01*
X30535Y13661D01*
X30495Y13757D01*
X30432Y13840D01*
X30349Y13903D01*
X30253Y13943D01*
X30150Y13957D01*
X30140Y13955D01*
X30117Y13956D01*
X30089Y13958D01*
X30065Y13961D01*
X30042Y13965D01*
X30022Y13971D01*
X30004Y13978D01*
X29989Y13985D01*
X29975Y13993D01*
X29966Y14000D01*
X29806Y14159D01*
Y14279D01*
X29854Y14295D01*
X29868Y14276D01*
X29951Y14213D01*
X30047Y14173D01*
X30150Y14159D01*
X30253Y14173D01*
X30349Y14213D01*
X30432Y14276D01*
X30495Y14359D01*
X30535Y14455D01*
X30549Y14558D01*
X30535Y14661D01*
X30495Y14757D01*
X30432Y14840D01*
X30349Y14903D01*
X30253Y14943D01*
X30150Y14957D01*
X30047Y14943D01*
X29951Y14903D01*
X29868Y14840D01*
X29854Y14821D01*
X29806Y14837D01*
Y15258D01*
X29806Y15258D01*
X29792Y15328D01*
X29753Y15387D01*
X22261Y22879D01*
X22202Y22918D01*
X22132Y22932D01*
X22132Y22932D01*
X15908D01*
X15894Y22935D01*
X15876Y22940D01*
X15856Y22947D01*
X15835Y22957D01*
X15813Y22971D01*
X15791Y22986D01*
X15738Y23030D01*
X15718Y23050D01*
X15710Y23060D01*
X15619Y23130D01*
X15513Y23173D01*
X15400Y23188D01*
D02*
G37*
G36*
X35545Y14953D02*
X34755D01*
Y14163D01*
X35545D01*
Y14953D01*
D02*
G37*
G36*
X34150Y14957D02*
X34047Y14943D01*
X33951Y14903D01*
X33868Y14840D01*
X33805Y14757D01*
X33765Y14661D01*
X33751Y14558D01*
X33765Y14455D01*
X33805Y14359D01*
X33868Y14276D01*
X33951Y14213D01*
X34047Y14173D01*
X34150Y14159D01*
X34253Y14173D01*
X34349Y14213D01*
X34432Y14276D01*
X34495Y14359D01*
X34535Y14455D01*
X34549Y14558D01*
X34535Y14661D01*
X34495Y14757D01*
X34432Y14840D01*
X34349Y14903D01*
X34253Y14943D01*
X34150Y14957D01*
D02*
G37*
G36*
X33150D02*
X33047Y14943D01*
X32951Y14903D01*
X32868Y14840D01*
X32805Y14757D01*
X32765Y14661D01*
X32751Y14558D01*
X32753Y14548D01*
X32752Y14524D01*
X32750Y14497D01*
X32747Y14472D01*
X32743Y14450D01*
X32737Y14430D01*
X32730Y14412D01*
X32723Y14396D01*
X32715Y14382D01*
X32708Y14374D01*
X32495Y14161D01*
X32456Y14102D01*
X32442Y14032D01*
X32442Y14032D01*
Y13895D01*
X32392Y13871D01*
X32349Y13903D01*
X32253Y13943D01*
X32150Y13957D01*
X32047Y13943D01*
X31951Y13903D01*
X31868Y13840D01*
X31854Y13821D01*
X31806Y13837D01*
Y13956D01*
X31966Y14116D01*
X31975Y14122D01*
X31988Y14131D01*
X32004Y14138D01*
X32022Y14145D01*
X32042Y14150D01*
X32065Y14155D01*
X32089Y14158D01*
X32117Y14160D01*
X32140Y14161D01*
X32150Y14159D01*
X32253Y14173D01*
X32349Y14213D01*
X32432Y14276D01*
X32495Y14359D01*
X32535Y14455D01*
X32549Y14558D01*
X32535Y14661D01*
X32495Y14757D01*
X32432Y14840D01*
X32349Y14903D01*
X32253Y14943D01*
X32150Y14957D01*
X32047Y14943D01*
X31951Y14903D01*
X31868Y14840D01*
X31805Y14757D01*
X31765Y14661D01*
X31751Y14558D01*
X31753Y14548D01*
X31752Y14524D01*
X31750Y14497D01*
X31747Y14472D01*
X31743Y14450D01*
X31737Y14430D01*
X31730Y14412D01*
X31723Y14396D01*
X31715Y14382D01*
X31708Y14374D01*
X31495Y14161D01*
X31456Y14102D01*
X31442Y14032D01*
X31442Y14032D01*
Y13895D01*
X31392Y13871D01*
X31349Y13903D01*
X31253Y13943D01*
X31150Y13957D01*
X31047Y13943D01*
X30951Y13903D01*
X30868Y13840D01*
X30805Y13757D01*
X30765Y13661D01*
X30751Y13558D01*
X30765Y13455D01*
X30805Y13359D01*
X30868Y13276D01*
X30951Y13213D01*
X31047Y13173D01*
X31150Y13159D01*
X31253Y13173D01*
X31349Y13213D01*
X31392Y13245D01*
X31442Y13221D01*
Y12227D01*
X30973Y11759D01*
X30934Y11700D01*
X30920Y11630D01*
X30920Y11630D01*
Y9579D01*
X30919Y9572D01*
X30916Y9559D01*
X30912Y9546D01*
X30907Y9533D01*
X30900Y9520D01*
X30892Y9506D01*
X30882Y9493D01*
X30870Y9478D01*
X30859Y9467D01*
X30853Y9462D01*
X30797Y9389D01*
X30761Y9304D01*
X30749Y9213D01*
X30761Y9121D01*
X30797Y9036D01*
X30853Y8963D01*
X30926Y8907D01*
X31011Y8872D01*
X31102Y8860D01*
X31194Y8872D01*
X31279Y8907D01*
X31352Y8963D01*
X31408Y9036D01*
X31443Y9121D01*
X31455Y9213D01*
X31443Y9304D01*
X31408Y9389D01*
X31352Y9462D01*
X31346Y9467D01*
X31335Y9478D01*
X31323Y9493D01*
X31313Y9506D01*
X31305Y9520D01*
X31298Y9533D01*
X31292Y9546D01*
X31288Y9559D01*
X31285Y9572D01*
X31285Y9579D01*
Y11554D01*
X31655Y11925D01*
X31702Y11909D01*
X31706Y11877D01*
X31742Y11792D01*
X31798Y11719D01*
X31871Y11663D01*
X31956Y11628D01*
X32047Y11615D01*
X32139Y11628D01*
X32224Y11663D01*
X32297Y11719D01*
X32353Y11792D01*
X32388Y11877D01*
X32400Y11968D01*
X32399Y11976D01*
X32400Y11992D01*
X32401Y12010D01*
X32404Y12027D01*
X32408Y12043D01*
X32412Y12057D01*
X32418Y12070D01*
X32424Y12082D01*
X32431Y12093D01*
X32435Y12099D01*
X32753Y12416D01*
X32792Y12476D01*
X32806Y12545D01*
X32806Y12545D01*
Y13279D01*
X32854Y13295D01*
X32868Y13276D01*
X32951Y13213D01*
X33047Y13173D01*
X33150Y13159D01*
X33253Y13173D01*
X33349Y13213D01*
X33432Y13276D01*
X33495Y13359D01*
X33535Y13455D01*
X33549Y13558D01*
X33535Y13661D01*
X33495Y13757D01*
X33432Y13840D01*
X33349Y13903D01*
X33253Y13943D01*
X33150Y13957D01*
X33047Y13943D01*
X32951Y13903D01*
X32868Y13840D01*
X32854Y13821D01*
X32806Y13837D01*
Y13956D01*
X32966Y14116D01*
X32975Y14122D01*
X32989Y14131D01*
X33004Y14138D01*
X33022Y14145D01*
X33042Y14150D01*
X33065Y14155D01*
X33089Y14158D01*
X33117Y14160D01*
X33140Y14161D01*
X33150Y14159D01*
X33253Y14173D01*
X33349Y14213D01*
X33432Y14276D01*
X33495Y14359D01*
X33535Y14455D01*
X33549Y14558D01*
X33535Y14661D01*
X33495Y14757D01*
X33432Y14840D01*
X33349Y14903D01*
X33253Y14943D01*
X33150Y14957D01*
D02*
G37*
G36*
X31150D02*
X31047Y14943D01*
X30951Y14903D01*
X30868Y14840D01*
X30805Y14757D01*
X30765Y14661D01*
X30751Y14558D01*
X30765Y14455D01*
X30805Y14359D01*
X30868Y14276D01*
X30951Y14213D01*
X31047Y14173D01*
X31150Y14159D01*
X31253Y14173D01*
X31349Y14213D01*
X31432Y14276D01*
X31495Y14359D01*
X31535Y14455D01*
X31549Y14558D01*
X31535Y14661D01*
X31495Y14757D01*
X31432Y14840D01*
X31349Y14903D01*
X31253Y14943D01*
X31150Y14957D01*
D02*
G37*
G36*
X28150D02*
X28047Y14943D01*
X27951Y14903D01*
X27868Y14840D01*
X27805Y14757D01*
X27765Y14661D01*
X27751Y14558D01*
X27765Y14455D01*
X27805Y14359D01*
X27868Y14276D01*
X27951Y14213D01*
X28047Y14173D01*
X28150Y14159D01*
X28253Y14173D01*
X28349Y14213D01*
X28432Y14276D01*
X28495Y14359D01*
X28535Y14455D01*
X28549Y14558D01*
X28535Y14661D01*
X28495Y14757D01*
X28432Y14840D01*
X28349Y14903D01*
X28253Y14943D01*
X28150Y14957D01*
D02*
G37*
G36*
X27150D02*
X27047Y14943D01*
X26951Y14903D01*
X26868Y14840D01*
X26805Y14757D01*
X26765Y14661D01*
X26751Y14558D01*
X26765Y14455D01*
X26805Y14359D01*
X26868Y14276D01*
X26951Y14213D01*
X27047Y14173D01*
X27150Y14159D01*
X27253Y14173D01*
X27349Y14213D01*
X27432Y14276D01*
X27495Y14359D01*
X27535Y14455D01*
X27549Y14558D01*
X27535Y14661D01*
X27495Y14757D01*
X27432Y14840D01*
X27349Y14903D01*
X27253Y14943D01*
X27150Y14957D01*
D02*
G37*
G36*
X26150D02*
X26047Y14943D01*
X25951Y14903D01*
X25868Y14840D01*
X25805Y14757D01*
X25765Y14661D01*
X25751Y14558D01*
X25765Y14455D01*
X25805Y14359D01*
X25868Y14276D01*
X25951Y14213D01*
X26047Y14173D01*
X26150Y14159D01*
X26253Y14173D01*
X26349Y14213D01*
X26432Y14276D01*
X26495Y14359D01*
X26535Y14455D01*
X26549Y14558D01*
X26535Y14661D01*
X26495Y14757D01*
X26432Y14840D01*
X26349Y14903D01*
X26253Y14943D01*
X26150Y14957D01*
D02*
G37*
G36*
X35150Y13957D02*
X35047Y13943D01*
X34951Y13903D01*
X34868Y13840D01*
X34805Y13757D01*
X34765Y13661D01*
X34751Y13558D01*
X34765Y13455D01*
X34805Y13359D01*
X34868Y13276D01*
X34951Y13213D01*
X35047Y13173D01*
X35150Y13159D01*
X35253Y13173D01*
X35349Y13213D01*
X35432Y13276D01*
X35495Y13359D01*
X35535Y13455D01*
X35549Y13558D01*
X35535Y13661D01*
X35495Y13757D01*
X35432Y13840D01*
X35349Y13903D01*
X35253Y13943D01*
X35150Y13957D01*
D02*
G37*
G36*
X34150D02*
X34047Y13943D01*
X33951Y13903D01*
X33868Y13840D01*
X33805Y13757D01*
X33765Y13661D01*
X33751Y13558D01*
X33765Y13455D01*
X33805Y13359D01*
X33868Y13276D01*
X33951Y13213D01*
X34047Y13173D01*
X34150Y13159D01*
X34253Y13173D01*
X34349Y13213D01*
X34432Y13276D01*
X34495Y13359D01*
X34535Y13455D01*
X34549Y13558D01*
X34535Y13661D01*
X34495Y13757D01*
X34432Y13840D01*
X34349Y13903D01*
X34253Y13943D01*
X34150Y13957D01*
D02*
G37*
G36*
X29150D02*
X29047Y13943D01*
X28951Y13903D01*
X28868Y13840D01*
X28805Y13757D01*
X28765Y13661D01*
X28751Y13558D01*
X28765Y13455D01*
X28805Y13359D01*
X28868Y13276D01*
X28951Y13213D01*
X29047Y13173D01*
X29150Y13159D01*
X29253Y13173D01*
X29349Y13213D01*
X29432Y13276D01*
X29495Y13359D01*
X29535Y13455D01*
X29549Y13558D01*
X29535Y13661D01*
X29495Y13757D01*
X29432Y13840D01*
X29349Y13903D01*
X29253Y13943D01*
X29150Y13957D01*
D02*
G37*
G36*
X28150D02*
X28047Y13943D01*
X27951Y13903D01*
X27868Y13840D01*
X27805Y13757D01*
X27765Y13661D01*
X27751Y13558D01*
X27765Y13455D01*
X27805Y13359D01*
X27868Y13276D01*
X27951Y13213D01*
X28047Y13173D01*
X28150Y13159D01*
X28253Y13173D01*
X28349Y13213D01*
X28432Y13276D01*
X28495Y13359D01*
X28535Y13455D01*
X28549Y13558D01*
X28535Y13661D01*
X28495Y13757D01*
X28432Y13840D01*
X28349Y13903D01*
X28253Y13943D01*
X28150Y13957D01*
D02*
G37*
G36*
X27150D02*
X27047Y13943D01*
X26951Y13903D01*
X26868Y13840D01*
X26805Y13757D01*
X26765Y13661D01*
X26751Y13558D01*
X26765Y13455D01*
X26805Y13359D01*
X26868Y13276D01*
X26951Y13213D01*
X27047Y13173D01*
X27150Y13159D01*
X27253Y13173D01*
X27349Y13213D01*
X27432Y13276D01*
X27495Y13359D01*
X27535Y13455D01*
X27549Y13558D01*
X27535Y13661D01*
X27495Y13757D01*
X27432Y13840D01*
X27349Y13903D01*
X27253Y13943D01*
X27150Y13957D01*
D02*
G37*
G36*
X26150D02*
X26047Y13943D01*
X25951Y13903D01*
X25868Y13840D01*
X25805Y13757D01*
X25765Y13661D01*
X25751Y13558D01*
X25765Y13455D01*
X25805Y13359D01*
X25868Y13276D01*
X25951Y13213D01*
X26047Y13173D01*
X26150Y13159D01*
X26253Y13173D01*
X26349Y13213D01*
X26432Y13276D01*
X26495Y13359D01*
X26535Y13455D01*
X26549Y13558D01*
X26535Y13661D01*
X26495Y13757D01*
X26432Y13840D01*
X26349Y13903D01*
X26253Y13943D01*
X26150Y13957D01*
D02*
G37*
G36*
X32400Y9788D02*
X32287Y9773D01*
X32181Y9730D01*
X32090Y9660D01*
X32020Y9569D01*
X31977Y9463D01*
X31962Y9350D01*
X31977Y9237D01*
X32020Y9131D01*
X32090Y9040D01*
X32181Y8970D01*
X32287Y8927D01*
X32400Y8912D01*
X32513Y8927D01*
X32619Y8970D01*
X32710Y9040D01*
X32718Y9050D01*
X32739Y9071D01*
X32765Y9093D01*
X32789Y9113D01*
X32813Y9129D01*
X32835Y9143D01*
X32856Y9153D01*
X32876Y9160D01*
X32894Y9165D01*
X32908Y9168D01*
X34407D01*
X34418Y9166D01*
X34434Y9162D01*
X34450Y9156D01*
X34467Y9148D01*
X34486Y9138D01*
X34505Y9125D01*
X34525Y9110D01*
X34545Y9092D01*
X34562Y9076D01*
X34568Y9068D01*
X34651Y9005D01*
X34747Y8965D01*
X34850Y8951D01*
X34953Y8965D01*
X35049Y9005D01*
X35132Y9068D01*
X35195Y9151D01*
X35235Y9247D01*
X35249Y9350D01*
X35235Y9453D01*
X35195Y9549D01*
X35132Y9632D01*
X35049Y9695D01*
X34953Y9735D01*
X34850Y9749D01*
X34747Y9735D01*
X34651Y9695D01*
X34568Y9632D01*
X34562Y9624D01*
X34545Y9608D01*
X34525Y9590D01*
X34505Y9575D01*
X34486Y9562D01*
X34467Y9552D01*
X34450Y9544D01*
X34434Y9538D01*
X34418Y9534D01*
X34407Y9532D01*
X32908D01*
X32894Y9535D01*
X32876Y9540D01*
X32856Y9547D01*
X32835Y9557D01*
X32813Y9571D01*
X32791Y9586D01*
X32738Y9630D01*
X32718Y9650D01*
X32710Y9660D01*
X32619Y9730D01*
X32513Y9773D01*
X32400Y9788D01*
D02*
G37*
G36*
X27400D02*
X27287Y9773D01*
X27181Y9730D01*
X27090Y9660D01*
X27020Y9569D01*
X26977Y9463D01*
X26962Y9350D01*
X26977Y9237D01*
X27020Y9131D01*
X27090Y9040D01*
X27181Y8970D01*
X27287Y8927D01*
X27400Y8912D01*
X27513Y8927D01*
X27619Y8970D01*
X27710Y9040D01*
X27780Y9131D01*
X27823Y9237D01*
X27838Y9350D01*
X27823Y9463D01*
X27780Y9569D01*
X27710Y9660D01*
X27619Y9730D01*
X27513Y9773D01*
X27400Y9788D01*
D02*
G37*
G36*
X20151Y9237D02*
X20156Y9165D01*
X20160Y9144D01*
X20165Y9125D01*
X20171Y9110D01*
X20177Y9098D01*
X20184Y9089D01*
X20000D01*
Y8900D01*
X20382D01*
X20373Y8963D01*
X20330Y9069D01*
X20260Y9160D01*
X20169Y9230D01*
X20151Y9237D01*
D02*
G37*
G36*
X19751Y9238D02*
X19731Y9230D01*
X19640Y9160D01*
X19570Y9069D01*
X19527Y8963D01*
X19518Y8900D01*
X19900D01*
Y9089D01*
X19716D01*
X19723Y9098D01*
X19729Y9110D01*
X19735Y9125D01*
X19740Y9144D01*
X19744Y9165D01*
X19747Y9190D01*
X19751Y9238D01*
D02*
G37*
G36*
X20382Y8800D02*
X20301D01*
X20306Y8791D01*
X20319Y8773D01*
X20334Y8753D01*
X20365Y8717D01*
X20373Y8737D01*
X20382Y8800D01*
D02*
G37*
G36*
X20238D02*
X20000D01*
Y8562D01*
X20238Y8800D01*
D02*
G37*
G36*
X20000Y8499D02*
Y8418D01*
X20063Y8427D01*
X20082Y8434D01*
X20027Y8481D01*
X20009Y8494D01*
X20000Y8499D01*
D02*
G37*
G36*
X19900Y8800D02*
X19518D01*
X19527Y8737D01*
X19570Y8631D01*
X19640Y8540D01*
X19731Y8470D01*
X19837Y8427D01*
X19900Y8418D01*
Y8800D01*
D02*
G37*
G36*
X22950Y9288D02*
X22837Y9273D01*
X22731Y9230D01*
X22640Y9160D01*
X22570Y9069D01*
X22527Y8963D01*
X22512Y8850D01*
X22527Y8737D01*
X22570Y8631D01*
X22640Y8540D01*
X22731Y8470D01*
X22837Y8427D01*
X22950Y8412D01*
X23063Y8427D01*
X23169Y8470D01*
X23260Y8540D01*
X23330Y8631D01*
X23373Y8737D01*
X23388Y8850D01*
X23373Y8963D01*
X23330Y9069D01*
X23260Y9160D01*
X23169Y9230D01*
X23063Y9273D01*
X22950Y9288D01*
D02*
G37*
G36*
X32400Y8788D02*
X32287Y8773D01*
X32181Y8730D01*
X32090Y8660D01*
X32020Y8569D01*
X31977Y8463D01*
X31962Y8350D01*
X31977Y8237D01*
X32020Y8131D01*
X32090Y8040D01*
X32181Y7970D01*
X32287Y7927D01*
X32400Y7912D01*
X32513Y7927D01*
X32619Y7970D01*
X32710Y8040D01*
X32718Y8050D01*
X32739Y8071D01*
X32765Y8093D01*
X32789Y8113D01*
X32813Y8129D01*
X32835Y8143D01*
X32856Y8153D01*
X32876Y8160D01*
X32894Y8165D01*
X32908Y8168D01*
X34407D01*
X34418Y8166D01*
X34434Y8162D01*
X34450Y8156D01*
X34467Y8148D01*
X34486Y8138D01*
X34505Y8125D01*
X34525Y8110D01*
X34545Y8092D01*
X34562Y8076D01*
X34568Y8068D01*
X34651Y8005D01*
X34747Y7965D01*
X34850Y7951D01*
X34953Y7965D01*
X35049Y8005D01*
X35132Y8068D01*
X35195Y8151D01*
X35235Y8247D01*
X35249Y8350D01*
X35235Y8453D01*
X35195Y8549D01*
X35132Y8632D01*
X35049Y8695D01*
X34953Y8735D01*
X34850Y8749D01*
X34747Y8735D01*
X34651Y8695D01*
X34568Y8632D01*
X34562Y8624D01*
X34545Y8608D01*
X34525Y8590D01*
X34505Y8575D01*
X34486Y8562D01*
X34467Y8552D01*
X34450Y8544D01*
X34434Y8538D01*
X34418Y8534D01*
X34407Y8532D01*
X32908D01*
X32894Y8535D01*
X32876Y8540D01*
X32856Y8547D01*
X32835Y8557D01*
X32813Y8571D01*
X32791Y8586D01*
X32738Y8630D01*
X32718Y8650D01*
X32710Y8660D01*
X32619Y8730D01*
X32513Y8773D01*
X32400Y8788D01*
D02*
G37*
G36*
X27400D02*
X27287Y8773D01*
X27181Y8730D01*
X27090Y8660D01*
X27020Y8569D01*
X26977Y8463D01*
X26962Y8350D01*
X26977Y8237D01*
X27020Y8131D01*
X27090Y8040D01*
X27181Y7970D01*
X27287Y7927D01*
X27400Y7912D01*
X27513Y7927D01*
X27619Y7970D01*
X27710Y8040D01*
X27780Y8131D01*
X27823Y8237D01*
X27838Y8350D01*
X27823Y8463D01*
X27780Y8569D01*
X27710Y8660D01*
X27619Y8730D01*
X27513Y8773D01*
X27400Y8788D01*
D02*
G37*
G36*
X22950Y8288D02*
X22837Y8273D01*
X22731Y8230D01*
X22640Y8160D01*
X22570Y8069D01*
X22527Y7963D01*
X22512Y7850D01*
X22527Y7737D01*
X22570Y7631D01*
X22640Y7540D01*
X22731Y7470D01*
X22837Y7427D01*
X22950Y7412D01*
X23063Y7427D01*
X23169Y7470D01*
X23260Y7540D01*
X23330Y7631D01*
X23373Y7737D01*
X23388Y7850D01*
X23373Y7963D01*
X23330Y8069D01*
X23260Y8160D01*
X23169Y8230D01*
X23063Y8273D01*
X22950Y8288D01*
D02*
G37*
G36*
X19950D02*
X19837Y8273D01*
X19731Y8230D01*
X19640Y8160D01*
X19570Y8069D01*
X19527Y7963D01*
X19512Y7850D01*
X19527Y7737D01*
X19570Y7631D01*
X19640Y7540D01*
X19731Y7470D01*
X19837Y7427D01*
X19950Y7412D01*
X20063Y7427D01*
X20169Y7470D01*
X20260Y7540D01*
X20330Y7631D01*
X20373Y7737D01*
X20388Y7850D01*
X20373Y7963D01*
X20330Y8069D01*
X20260Y8160D01*
X20169Y8230D01*
X20063Y8273D01*
X19950Y8288D01*
D02*
G37*
G36*
X32400Y7788D02*
X32287Y7773D01*
X32181Y7730D01*
X32090Y7660D01*
X32020Y7569D01*
X31977Y7463D01*
X31962Y7350D01*
X31977Y7237D01*
X32020Y7131D01*
X32090Y7040D01*
X32181Y6970D01*
X32287Y6927D01*
X32400Y6912D01*
X32513Y6927D01*
X32619Y6970D01*
X32710Y7040D01*
X32718Y7050D01*
X32739Y7071D01*
X32765Y7093D01*
X32789Y7113D01*
X32813Y7129D01*
X32835Y7143D01*
X32856Y7153D01*
X32876Y7160D01*
X32894Y7165D01*
X32908Y7168D01*
X34407D01*
X34418Y7166D01*
X34434Y7162D01*
X34450Y7156D01*
X34467Y7148D01*
X34486Y7138D01*
X34505Y7125D01*
X34525Y7110D01*
X34545Y7092D01*
X34562Y7076D01*
X34568Y7068D01*
X34651Y7005D01*
X34747Y6965D01*
X34850Y6951D01*
X34953Y6965D01*
X35049Y7005D01*
X35132Y7068D01*
X35195Y7151D01*
X35235Y7247D01*
X35249Y7350D01*
X35235Y7453D01*
X35195Y7549D01*
X35132Y7632D01*
X35049Y7695D01*
X34953Y7735D01*
X34850Y7749D01*
X34747Y7735D01*
X34651Y7695D01*
X34568Y7632D01*
X34562Y7624D01*
X34545Y7608D01*
X34525Y7590D01*
X34505Y7575D01*
X34486Y7562D01*
X34467Y7552D01*
X34450Y7544D01*
X34434Y7538D01*
X34418Y7534D01*
X34407Y7532D01*
X32908D01*
X32894Y7535D01*
X32876Y7540D01*
X32856Y7547D01*
X32835Y7557D01*
X32813Y7571D01*
X32791Y7586D01*
X32738Y7630D01*
X32718Y7650D01*
X32710Y7660D01*
X32619Y7730D01*
X32513Y7773D01*
X32400Y7788D01*
D02*
G37*
G36*
X27400D02*
X27287Y7773D01*
X27181Y7730D01*
X27090Y7660D01*
X27020Y7569D01*
X26977Y7463D01*
X26962Y7350D01*
X26977Y7237D01*
X27020Y7131D01*
X27090Y7040D01*
X27181Y6970D01*
X27287Y6927D01*
X27400Y6912D01*
X27513Y6927D01*
X27619Y6970D01*
X27710Y7040D01*
X27780Y7131D01*
X27823Y7237D01*
X27838Y7350D01*
X27823Y7463D01*
X27780Y7569D01*
X27710Y7660D01*
X27619Y7730D01*
X27513Y7773D01*
X27400Y7788D01*
D02*
G37*
G36*
X22950Y7288D02*
X22837Y7273D01*
X22731Y7230D01*
X22640Y7160D01*
X22570Y7069D01*
X22527Y6963D01*
X22512Y6850D01*
X22527Y6737D01*
X22570Y6631D01*
X22640Y6540D01*
X22731Y6470D01*
X22837Y6427D01*
X22950Y6412D01*
X23063Y6427D01*
X23169Y6470D01*
X23260Y6540D01*
X23330Y6631D01*
X23373Y6737D01*
X23388Y6850D01*
X23373Y6963D01*
X23330Y7069D01*
X23260Y7160D01*
X23169Y7230D01*
X23063Y7273D01*
X22950Y7288D01*
D02*
G37*
G36*
X19950D02*
X19837Y7273D01*
X19731Y7230D01*
X19640Y7160D01*
X19570Y7069D01*
X19527Y6963D01*
X19512Y6850D01*
X19527Y6737D01*
X19570Y6631D01*
X19640Y6540D01*
X19731Y6470D01*
X19837Y6427D01*
X19950Y6412D01*
X20063Y6427D01*
X20169Y6470D01*
X20260Y6540D01*
X20330Y6631D01*
X20373Y6737D01*
X20388Y6850D01*
X20373Y6963D01*
X20330Y7069D01*
X20260Y7160D01*
X20169Y7230D01*
X20063Y7273D01*
X19950Y7288D01*
D02*
G37*
G36*
X20000Y6282D02*
Y6201D01*
X20009Y6206D01*
X20027Y6219D01*
X20047Y6234D01*
X20083Y6265D01*
X20063Y6273D01*
X20000Y6282D01*
D02*
G37*
G36*
X32400Y6788D02*
X32287Y6773D01*
X32181Y6730D01*
X32090Y6660D01*
X32020Y6569D01*
X31977Y6463D01*
X31962Y6350D01*
X31977Y6237D01*
X32020Y6131D01*
X32090Y6040D01*
X32181Y5970D01*
X32287Y5927D01*
X32400Y5912D01*
X32513Y5927D01*
X32619Y5970D01*
X32710Y6040D01*
X32718Y6050D01*
X32739Y6071D01*
X32765Y6093D01*
X32789Y6113D01*
X32813Y6129D01*
X32835Y6143D01*
X32856Y6153D01*
X32876Y6160D01*
X32894Y6165D01*
X32908Y6168D01*
X34433D01*
X34443Y6167D01*
X34455Y6165D01*
Y5955D01*
X35245D01*
Y6745D01*
X34455D01*
Y6535D01*
X34443Y6533D01*
X34433Y6532D01*
X32908D01*
X32894Y6535D01*
X32876Y6540D01*
X32856Y6547D01*
X32835Y6557D01*
X32813Y6571D01*
X32791Y6586D01*
X32738Y6630D01*
X32718Y6650D01*
X32710Y6660D01*
X32619Y6730D01*
X32513Y6773D01*
X32400Y6788D01*
D02*
G37*
G36*
X27400D02*
X27287Y6773D01*
X27181Y6730D01*
X27090Y6660D01*
X27020Y6569D01*
X26977Y6463D01*
X26962Y6350D01*
X26977Y6237D01*
X27020Y6131D01*
X27090Y6040D01*
X27181Y5970D01*
X27287Y5927D01*
X27400Y5912D01*
X27513Y5927D01*
X27619Y5970D01*
X27710Y6040D01*
X27780Y6131D01*
X27823Y6237D01*
X27838Y6350D01*
X27823Y6463D01*
X27780Y6569D01*
X27710Y6660D01*
X27619Y6730D01*
X27513Y6773D01*
X27400Y6788D01*
D02*
G37*
G36*
X20366Y5982D02*
X20319Y5927D01*
X20306Y5909D01*
X20301Y5900D01*
X20382D01*
X20373Y5963D01*
X20366Y5982D01*
D02*
G37*
G36*
X20000Y6138D02*
Y5900D01*
X20238D01*
X20000Y6138D01*
D02*
G37*
G36*
X19900Y6282D02*
X19837Y6273D01*
X19731Y6230D01*
X19640Y6160D01*
X19570Y6069D01*
X19527Y5963D01*
X19518Y5900D01*
X19900D01*
Y6282D01*
D02*
G37*
G36*
X19599Y5800D02*
X19518D01*
X19527Y5737D01*
X19534Y5718D01*
X19581Y5773D01*
X19594Y5791D01*
X19599Y5800D01*
D02*
G37*
G36*
X20382D02*
X20301D01*
X20306Y5791D01*
X20319Y5773D01*
X20334Y5753D01*
X20365Y5717D01*
X20373Y5737D01*
X20382Y5800D01*
D02*
G37*
G36*
X32400Y5788D02*
X32287Y5773D01*
X32181Y5730D01*
X32090Y5660D01*
X32084Y5652D01*
X32081Y5649D01*
X32072Y5643D01*
X32060Y5636D01*
X32046Y5630D01*
X32030Y5624D01*
X32010Y5619D01*
X31989Y5615D01*
X31933Y5610D01*
X31915Y5610D01*
X27885D01*
X27865Y5610D01*
X27837Y5612D01*
X27812Y5615D01*
X27790Y5619D01*
X27770Y5624D01*
X27754Y5630D01*
X27740Y5636D01*
X27728Y5643D01*
X27719Y5649D01*
X27716Y5652D01*
X27710Y5660D01*
X27619Y5730D01*
X27513Y5773D01*
X27400Y5788D01*
X27287Y5773D01*
X27181Y5730D01*
X27090Y5660D01*
X27020Y5569D01*
X26977Y5463D01*
X26962Y5350D01*
X26977Y5237D01*
X27020Y5131D01*
X27090Y5040D01*
X27181Y4970D01*
X27287Y4927D01*
X27400Y4912D01*
X27513Y4927D01*
X27619Y4970D01*
X27710Y5040D01*
X27716Y5048D01*
X27719Y5051D01*
X27728Y5057D01*
X27740Y5064D01*
X27754Y5070D01*
X27770Y5076D01*
X27790Y5081D01*
X27811Y5085D01*
X27867Y5090D01*
X27885Y5090D01*
X31915D01*
X31935Y5090D01*
X31963Y5088D01*
X31988Y5085D01*
X32010Y5081D01*
X32030Y5076D01*
X32046Y5070D01*
X32060Y5064D01*
X32072Y5057D01*
X32081Y5051D01*
X32084Y5048D01*
X32090Y5040D01*
X32181Y4970D01*
X32287Y4927D01*
X32400Y4912D01*
X32513Y4927D01*
X32619Y4970D01*
X32710Y5040D01*
X32780Y5131D01*
X32823Y5237D01*
X32838Y5350D01*
X32823Y5463D01*
X32780Y5569D01*
X32710Y5660D01*
X32619Y5730D01*
X32513Y5773D01*
X32400Y5788D01*
D02*
G37*
G36*
X20238Y5800D02*
X20000D01*
Y5562D01*
X20238Y5800D01*
D02*
G37*
G36*
X19900D02*
X19662D01*
X19900Y5562D01*
Y5800D01*
D02*
G37*
G36*
X20000Y5499D02*
Y5418D01*
X20063Y5427D01*
X20082Y5434D01*
X20027Y5481D01*
X20009Y5494D01*
X20000Y5499D01*
D02*
G37*
G36*
X19900D02*
X19891Y5494D01*
X19873Y5481D01*
X19853Y5466D01*
X19817Y5435D01*
X19837Y5427D01*
X19900Y5418D01*
Y5499D01*
D02*
G37*
G36*
X23385Y6285D02*
X22515D01*
Y5415D01*
X23385D01*
Y6285D01*
D02*
G37*
G36*
X18635Y5685D02*
X17765D01*
Y4815D01*
X18635D01*
Y5685D01*
D02*
G37*
G36*
X15400Y18188D02*
X15287Y18173D01*
X15181Y18130D01*
X15090Y18060D01*
X15020Y17969D01*
X14977Y17863D01*
X14962Y17750D01*
X14977Y17637D01*
X15020Y17531D01*
X15090Y17440D01*
X15098Y17434D01*
X15101Y17431D01*
X15107Y17422D01*
X15114Y17410D01*
X15120Y17397D01*
X15126Y17380D01*
X15131Y17360D01*
X15135Y17339D01*
X15140Y17283D01*
X15140Y17265D01*
Y7050D01*
X15149Y6983D01*
X15175Y6920D01*
X15216Y6866D01*
X16673Y5409D01*
X16687Y5395D01*
X16705Y5374D01*
X16721Y5354D01*
X16734Y5335D01*
X16744Y5318D01*
X16752Y5302D01*
X16757Y5288D01*
X16761Y5275D01*
X16763Y5264D01*
X16763Y5260D01*
X16762Y5250D01*
X16777Y5137D01*
X16820Y5031D01*
X16890Y4940D01*
X16981Y4870D01*
X17087Y4827D01*
X17200Y4812D01*
X17313Y4827D01*
X17419Y4870D01*
X17510Y4940D01*
X17580Y5031D01*
X17623Y5137D01*
X17638Y5250D01*
X17623Y5363D01*
X17580Y5469D01*
X17510Y5560D01*
X17419Y5630D01*
X17313Y5673D01*
X17200Y5688D01*
X17190Y5687D01*
X17186Y5687D01*
X17175Y5689D01*
X17162Y5693D01*
X17148Y5698D01*
X17132Y5706D01*
X17115Y5716D01*
X17097Y5728D01*
X17054Y5764D01*
X17041Y5777D01*
X15660Y7158D01*
Y17265D01*
X15660Y17285D01*
X15662Y17313D01*
X15665Y17338D01*
X15669Y17360D01*
X15674Y17380D01*
X15680Y17397D01*
X15686Y17410D01*
X15693Y17422D01*
X15699Y17431D01*
X15702Y17434D01*
X15710Y17440D01*
X15780Y17531D01*
X15823Y17637D01*
X15838Y17750D01*
X15823Y17863D01*
X15780Y17969D01*
X15710Y18060D01*
X15619Y18130D01*
X15513Y18173D01*
X15400Y18188D01*
D02*
G37*
G36*
X27450Y4782D02*
Y4400D01*
X27639D01*
Y4584D01*
X27648Y4577D01*
X27660Y4571D01*
X27675Y4565D01*
X27694Y4560D01*
X27715Y4556D01*
X27740Y4553D01*
X27788Y4549D01*
X27780Y4569D01*
X27710Y4660D01*
X27619Y4730D01*
X27513Y4773D01*
X27450Y4782D01*
D02*
G37*
G36*
X32835Y4785D02*
X32450D01*
Y4400D01*
X32835D01*
Y4785D01*
D02*
G37*
G36*
X27350Y4782D02*
X27287Y4773D01*
X27181Y4730D01*
X27090Y4660D01*
X27020Y4569D01*
X27013Y4551D01*
X27085Y4556D01*
X27106Y4560D01*
X27125Y4565D01*
X27140Y4571D01*
X27152Y4577D01*
X27161Y4584D01*
Y4400D01*
X27350D01*
Y4782D01*
D02*
G37*
G36*
X32350Y4785D02*
X31965D01*
Y4580D01*
X31968Y4581D01*
X32004Y4596D01*
X32031Y4614D01*
X32051Y4634D01*
X32063Y4657D01*
X32067Y4683D01*
Y4400D01*
X32350D01*
Y4785D01*
D02*
G37*
G36*
X27350Y4300D02*
X27161D01*
Y4116D01*
X27152Y4123D01*
X27140Y4129D01*
X27125Y4135D01*
X27106Y4140D01*
X27085Y4144D01*
X27060Y4147D01*
X27012Y4151D01*
X27020Y4131D01*
X27090Y4040D01*
X27181Y3970D01*
X27287Y3927D01*
X27350Y3918D01*
Y4300D01*
D02*
G37*
G36*
X32350D02*
X32067D01*
Y4017D01*
X32063Y4043D01*
X32051Y4066D01*
X32031Y4086D01*
X32004Y4104D01*
X31968Y4119D01*
X31965Y4120D01*
Y3915D01*
X32293D01*
X32292Y3918D01*
X32270Y3954D01*
X32244Y3981D01*
X32215Y4001D01*
X32181Y4013D01*
X32144Y4017D01*
X32350D01*
Y4300D01*
D02*
G37*
G36*
X27639D02*
X27450D01*
Y3918D01*
X27513Y3927D01*
X27619Y3970D01*
X27710Y4040D01*
X27780Y4131D01*
X27787Y4149D01*
X27715Y4144D01*
X27694Y4140D01*
X27675Y4135D01*
X27660Y4129D01*
X27648Y4123D01*
X27639Y4116D01*
Y4300D01*
D02*
G37*
G36*
X32835D02*
X32450D01*
Y4017D01*
X32733D01*
X32734Y4013D01*
X32734Y3915D01*
X32835D01*
Y4300D01*
D02*
G37*
G36*
X21850Y3688D02*
X21737Y3673D01*
X21631Y3630D01*
X21540Y3560D01*
X21532Y3550D01*
X21511Y3529D01*
X21485Y3507D01*
X21461Y3487D01*
X21437Y3471D01*
X21415Y3457D01*
X21394Y3447D01*
X21374Y3440D01*
X21356Y3435D01*
X21342Y3432D01*
X21307D01*
X21297Y3433D01*
X21285Y3435D01*
Y3685D01*
X20415D01*
Y2815D01*
X21285D01*
Y3065D01*
X21297Y3067D01*
X21307Y3068D01*
X21342D01*
X21356Y3065D01*
X21374Y3060D01*
X21394Y3053D01*
X21415Y3043D01*
X21437Y3029D01*
X21459Y3014D01*
X21512Y2970D01*
X21532Y2950D01*
X21540Y2940D01*
X21631Y2870D01*
X21737Y2827D01*
X21850Y2812D01*
X21963Y2827D01*
X22069Y2870D01*
X22160Y2940D01*
X22230Y3031D01*
X22273Y3137D01*
X22288Y3250D01*
X22273Y3363D01*
X22230Y3469D01*
X22160Y3560D01*
X22069Y3630D01*
X21963Y3673D01*
X21850Y3688D01*
D02*
G37*
G36*
X33441Y2041D02*
X32800D01*
Y2011D01*
X32806Y2001D01*
X32831Y1974D01*
X32861Y1954D01*
X32894Y1942D01*
X32931Y1938D01*
X32800Y1938D01*
Y1400D01*
X33441D01*
Y2041D01*
D02*
G37*
G36*
X30800Y2039D02*
Y1400D01*
X31172D01*
Y1763D01*
X31215Y1722D01*
X31259Y1685D01*
X31305Y1653D01*
X31352Y1625D01*
X31395Y1604D01*
X31391Y1616D01*
X31327Y1736D01*
X31241Y1841D01*
X31135Y1927D01*
X31016Y1991D01*
X30885Y2031D01*
X30800Y2039D01*
D02*
G37*
G36*
X32297Y2041D02*
X32059D01*
Y1595D01*
X32063Y1596D01*
X32099Y1618D01*
X32126Y1643D01*
X32146Y1673D01*
X32158Y1706D01*
X32162Y1744D01*
Y1400D01*
X32700D01*
Y1939D01*
X32161Y1939D01*
X32195Y1943D01*
X32226Y1955D01*
X32253Y1975D01*
X32276Y2002D01*
X32296Y2038D01*
X32297Y2041D01*
D02*
G37*
G36*
X30700Y2039D02*
X30615Y2031D01*
X30484Y1991D01*
X30364Y1927D01*
X30259Y1841D01*
X30173Y1736D01*
X30109Y1616D01*
X30069Y1485D01*
X30061Y1400D01*
X30700D01*
Y2039D01*
D02*
G37*
G36*
X32700Y1300D02*
X32162D01*
Y956D01*
X32158Y994D01*
X32146Y1027D01*
X32126Y1057D01*
X32099Y1082D01*
X32063Y1104D01*
X32059Y1105D01*
Y659D01*
X32700D01*
Y1300D01*
D02*
G37*
G36*
X31172D02*
X30800D01*
Y661D01*
X30885Y669D01*
X31016Y709D01*
X31135Y773D01*
X31241Y859D01*
X31327Y964D01*
X31391Y1084D01*
X31395Y1096D01*
X31352Y1075D01*
X31305Y1047D01*
X31259Y1015D01*
X31215Y978D01*
X31172Y937D01*
Y1300D01*
D02*
G37*
G36*
X30700D02*
X30061D01*
X30069Y1215D01*
X30109Y1084D01*
X30173Y964D01*
X30259Y859D01*
X30364Y773D01*
X30484Y709D01*
X30615Y669D01*
X30700Y661D01*
Y1300D01*
D02*
G37*
G36*
X33441D02*
X32800D01*
Y659D01*
X33441D01*
Y1300D01*
D02*
G37*
G36*
X37008Y714D02*
X36869Y700D01*
X36735Y659D01*
X36611Y593D01*
X36503Y505D01*
X36414Y397D01*
X36349Y273D01*
X36308Y139D01*
X36294Y0D01*
X36308Y-139D01*
X36349Y-273D01*
X36414Y-397D01*
X36503Y-505D01*
X36611Y-593D01*
X36735Y-659D01*
X36869Y-700D01*
X37008Y-714D01*
X37147Y-700D01*
X37281Y-659D01*
X37404Y-593D01*
X37513Y-505D01*
X37601Y-397D01*
X37667Y-273D01*
X37708Y-139D01*
X37722Y0D01*
X37708Y139D01*
X37667Y273D01*
X37601Y397D01*
X37513Y505D01*
X37404Y593D01*
X37281Y659D01*
X37147Y700D01*
X37008Y714D01*
D02*
G37*
G36*
X-0D02*
X-139Y700D01*
X-273Y659D01*
X-397Y593D01*
X-505Y505D01*
X-593Y397D01*
X-659Y273D01*
X-700Y139D01*
X-714Y0D01*
X-700Y-139D01*
X-659Y-273D01*
X-593Y-397D01*
X-505Y-505D01*
X-397Y-593D01*
X-273Y-659D01*
X-139Y-700D01*
X-0Y-714D01*
X139Y-700D01*
X273Y-659D01*
X396Y-593D01*
X505Y-505D01*
X593Y-397D01*
X659Y-273D01*
X700Y-139D01*
X714Y0D01*
X700Y139D01*
X659Y273D01*
X593Y397D01*
X505Y505D01*
X396Y593D01*
X273Y659D01*
X139Y700D01*
X-0Y714D01*
D02*
G37*
%LPD*%
G36*
X27286Y36475D02*
X27289Y36453D01*
X27296Y36430D01*
X27305Y36407D01*
X27316Y36384D01*
X27330Y36360D01*
X27347Y36336D01*
X27366Y36311D01*
X27388Y36286D01*
X27412Y36261D01*
X27189Y36038D01*
X27164Y36062D01*
X27114Y36103D01*
X27090Y36120D01*
X27066Y36134D01*
X27043Y36145D01*
X27020Y36154D01*
X26997Y36161D01*
X26975Y36164D01*
X26953Y36165D01*
X27285Y36497D01*
X27286Y36475D01*
D02*
G37*
G36*
X34782Y35685D02*
X34779Y35715D01*
X34769Y35742D01*
X34753Y35765D01*
X34731Y35786D01*
X34703Y35803D01*
X34668Y35817D01*
X34627Y35828D01*
X34579Y35836D01*
X34526Y35841D01*
X34466Y35843D01*
Y36157D01*
X34526Y36159D01*
X34579Y36164D01*
X34627Y36172D01*
X34668Y36183D01*
X34703Y36197D01*
X34731Y36214D01*
X34753Y36235D01*
X34769Y36258D01*
X34779Y36285D01*
X34782Y36315D01*
Y35685D01*
D02*
G37*
G36*
X32087Y36216D02*
X32096Y36200D01*
X32112Y36187D01*
X32134Y36175D01*
X32162Y36165D01*
X32197Y36156D01*
X32238Y36150D01*
X32285Y36145D01*
X32398Y36142D01*
Y35827D01*
X32338Y35825D01*
X32285Y35820D01*
X32237Y35813D01*
X32196Y35802D01*
X32161Y35787D01*
X32133Y35770D01*
X32111Y35750D01*
X32095Y35726D01*
X32085Y35699D01*
X32082Y35669D01*
X32083Y36233D01*
X32087Y36216D01*
D02*
G37*
G36*
X31862Y35567D02*
X31837Y35584D01*
X31809Y35593D01*
X31775D01*
X31737Y35584D01*
X31695Y35567D01*
X31648Y35540D01*
X31597Y35504D01*
X31541Y35460D01*
X31417Y35344D01*
X31194Y35567D01*
X31256Y35631D01*
X31354Y35747D01*
X31390Y35798D01*
X31417Y35845D01*
X31434Y35887D01*
X31443Y35925D01*
Y35959D01*
X31434Y35987D01*
X31417Y36012D01*
X31862Y35567D01*
D02*
G37*
G36*
X33898Y31923D02*
X33918Y31908D01*
X33941Y31895D01*
X33965Y31884D01*
X33990Y31874D01*
X34018Y31866D01*
X34048Y31860D01*
X34079Y31856D01*
X34112Y31854D01*
X34147Y31853D01*
X33855Y31561D01*
X33854Y31596D01*
X33852Y31629D01*
X33848Y31660D01*
X33842Y31690D01*
X33834Y31717D01*
X33824Y31743D01*
X33813Y31767D01*
X33800Y31790D01*
X33785Y31810D01*
X33768Y31829D01*
X33879Y31940D01*
X33898Y31923D01*
D02*
G37*
G36*
X31898D02*
X31918Y31908D01*
X31941Y31895D01*
X31965Y31884D01*
X31990Y31874D01*
X32018Y31866D01*
X32048Y31860D01*
X32079Y31856D01*
X32112Y31854D01*
X32147Y31853D01*
X31855Y31561D01*
X31854Y31596D01*
X31852Y31629D01*
X31848Y31660D01*
X31842Y31690D01*
X31834Y31717D01*
X31824Y31743D01*
X31813Y31767D01*
X31800Y31790D01*
X31785Y31810D01*
X31768Y31829D01*
X31879Y31940D01*
X31898Y31923D01*
D02*
G37*
G36*
X30898D02*
X30918Y31908D01*
X30941Y31895D01*
X30965Y31884D01*
X30991Y31874D01*
X31018Y31866D01*
X31048Y31860D01*
X31079Y31856D01*
X31112Y31854D01*
X31147Y31853D01*
X30855Y31561D01*
X30854Y31596D01*
X30852Y31629D01*
X30848Y31660D01*
X30842Y31690D01*
X30834Y31717D01*
X30824Y31743D01*
X30813Y31767D01*
X30800Y31790D01*
X30785Y31810D01*
X30768Y31829D01*
X30879Y31940D01*
X30898Y31923D01*
D02*
G37*
G36*
X29898D02*
X29918Y31908D01*
X29941Y31895D01*
X29965Y31884D01*
X29990Y31874D01*
X30018Y31866D01*
X30048Y31860D01*
X30079Y31856D01*
X30112Y31854D01*
X30147Y31853D01*
X29855Y31561D01*
X29854Y31596D01*
X29852Y31629D01*
X29848Y31660D01*
X29842Y31690D01*
X29834Y31717D01*
X29824Y31743D01*
X29813Y31767D01*
X29800Y31790D01*
X29785Y31810D01*
X29768Y31829D01*
X29879Y31940D01*
X29898Y31923D01*
D02*
G37*
G36*
X27898D02*
X27918Y31908D01*
X27941Y31895D01*
X27965Y31884D01*
X27991Y31874D01*
X28018Y31866D01*
X28048Y31860D01*
X28079Y31856D01*
X28112Y31854D01*
X28147Y31853D01*
X27855Y31561D01*
X27854Y31596D01*
X27852Y31629D01*
X27848Y31660D01*
X27842Y31690D01*
X27834Y31717D01*
X27824Y31743D01*
X27813Y31767D01*
X27800Y31790D01*
X27785Y31810D01*
X27768Y31829D01*
X27879Y31940D01*
X27898Y31923D01*
D02*
G37*
G36*
X15734Y30893D02*
X15739Y30879D01*
X15747Y30867D01*
X15758Y30857D01*
X15772Y30848D01*
X15789Y30841D01*
X15810Y30836D01*
X15834Y30832D01*
X15861Y30830D01*
X15891Y30829D01*
Y30671D01*
X15861Y30670D01*
X15834Y30668D01*
X15810Y30664D01*
X15789Y30659D01*
X15772Y30652D01*
X15758Y30643D01*
X15747Y30633D01*
X15739Y30621D01*
X15734Y30607D01*
X15732Y30593D01*
Y30907D01*
X15734Y30893D01*
D02*
G37*
G36*
X15669Y29955D02*
X15729Y29905D01*
X15758Y29885D01*
X15787Y29868D01*
X15815Y29854D01*
X15844Y29843D01*
X15871Y29835D01*
X15899Y29830D01*
X15926Y29829D01*
Y29671D01*
X15899Y29670D01*
X15871Y29665D01*
X15844Y29657D01*
X15815Y29646D01*
X15787Y29632D01*
X15758Y29615D01*
X15729Y29595D01*
X15699Y29572D01*
X15669Y29545D01*
X15639Y29516D01*
Y29984D01*
X15669Y29955D01*
D02*
G37*
G36*
Y28955D02*
X15729Y28905D01*
X15758Y28885D01*
X15787Y28868D01*
X15815Y28854D01*
X15844Y28843D01*
X15871Y28835D01*
X15899Y28830D01*
X15926Y28829D01*
Y28671D01*
X15899Y28670D01*
X15871Y28665D01*
X15844Y28657D01*
X15815Y28646D01*
X15787Y28632D01*
X15758Y28615D01*
X15729Y28595D01*
X15699Y28572D01*
X15669Y28545D01*
X15639Y28516D01*
Y28984D01*
X15669Y28955D01*
D02*
G37*
G36*
Y27955D02*
X15729Y27905D01*
X15758Y27885D01*
X15787Y27868D01*
X15815Y27854D01*
X15844Y27843D01*
X15871Y27835D01*
X15899Y27830D01*
X15926Y27829D01*
Y27671D01*
X15899Y27670D01*
X15871Y27665D01*
X15844Y27657D01*
X15815Y27646D01*
X15787Y27632D01*
X15758Y27615D01*
X15729Y27595D01*
X15699Y27572D01*
X15669Y27545D01*
X15639Y27516D01*
Y27984D01*
X15669Y27955D01*
D02*
G37*
G36*
Y26955D02*
X15729Y26905D01*
X15758Y26885D01*
X15787Y26868D01*
X15815Y26854D01*
X15844Y26843D01*
X15871Y26835D01*
X15899Y26830D01*
X15926Y26829D01*
Y26671D01*
X15899Y26670D01*
X15871Y26665D01*
X15844Y26657D01*
X15815Y26646D01*
X15787Y26632D01*
X15758Y26615D01*
X15729Y26595D01*
X15699Y26572D01*
X15669Y26545D01*
X15639Y26516D01*
Y26984D01*
X15669Y26955D01*
D02*
G37*
G36*
X29147Y31263D02*
X29112Y31262D01*
X29079Y31260D01*
X29048Y31256D01*
X29018Y31250D01*
X28990Y31242D01*
X28965Y31232D01*
X28941Y31221D01*
X28918Y31208D01*
X28898Y31193D01*
X28879Y31176D01*
X28768Y31287D01*
X28785Y31306D01*
X28800Y31326D01*
X28813Y31348D01*
X28824Y31372D01*
X28834Y31398D01*
X28842Y31426D01*
X28848Y31456D01*
X28852Y31487D01*
X28854Y31520D01*
X28855Y31555D01*
X29147Y31263D01*
D02*
G37*
G36*
X15669Y23955D02*
X15729Y23905D01*
X15758Y23885D01*
X15787Y23868D01*
X15815Y23854D01*
X15844Y23843D01*
X15871Y23835D01*
X15899Y23830D01*
X15926Y23829D01*
Y23671D01*
X15899Y23670D01*
X15871Y23665D01*
X15844Y23657D01*
X15815Y23646D01*
X15787Y23632D01*
X15758Y23615D01*
X15729Y23595D01*
X15699Y23572D01*
X15669Y23545D01*
X15639Y23516D01*
Y23984D01*
X15669Y23955D01*
D02*
G37*
G36*
X26147Y30263D02*
X26112Y30262D01*
X26079Y30260D01*
X26048Y30256D01*
X26018Y30250D01*
X25991Y30242D01*
X25965Y30232D01*
X25941Y30221D01*
X25918Y30208D01*
X25898Y30193D01*
X25879Y30176D01*
X25768Y30287D01*
X25785Y30306D01*
X25800Y30326D01*
X25813Y30348D01*
X25824Y30372D01*
X25834Y30398D01*
X25842Y30426D01*
X25848Y30456D01*
X25852Y30487D01*
X25854Y30520D01*
X25855Y30555D01*
X26147Y30263D01*
D02*
G37*
G36*
X15669Y24955D02*
X15729Y24905D01*
X15758Y24885D01*
X15787Y24868D01*
X15815Y24854D01*
X15844Y24843D01*
X15871Y24835D01*
X15899Y24830D01*
X15926Y24829D01*
Y24671D01*
X15899Y24670D01*
X15871Y24665D01*
X15844Y24657D01*
X15815Y24646D01*
X15787Y24632D01*
X15758Y24615D01*
X15729Y24595D01*
X15699Y24572D01*
X15669Y24545D01*
X15639Y24516D01*
Y24984D01*
X15669Y24955D01*
D02*
G37*
G36*
X33356Y18094D02*
X33343Y18081D01*
X33313Y18046D01*
X33307Y18036D01*
X33302Y18027D01*
X33299Y18019D01*
X33297Y18012D01*
X33297Y18006D01*
X33299Y18001D01*
X33151Y18149D01*
X33156Y18147D01*
X33162Y18147D01*
X33169Y18149D01*
X33177Y18152D01*
X33186Y18157D01*
X33196Y18163D01*
X33207Y18171D01*
X33231Y18193D01*
X33244Y18206D01*
X33356Y18094D01*
D02*
G37*
G36*
X34118Y17993D02*
X34116Y18007D01*
X34111Y18021D01*
X34103Y18033D01*
X34092Y18043D01*
X34078Y18052D01*
X34061Y18059D01*
X34040Y18064D01*
X34016Y18068D01*
X33989Y18070D01*
X33959Y18071D01*
Y18229D01*
X33989Y18230D01*
X34016Y18232D01*
X34040Y18236D01*
X34061Y18241D01*
X34078Y18248D01*
X34092Y18257D01*
X34103Y18267D01*
X34111Y18279D01*
X34116Y18293D01*
X34118Y18307D01*
Y17993D01*
D02*
G37*
G36*
X15669Y22955D02*
X15729Y22905D01*
X15758Y22885D01*
X15787Y22868D01*
X15815Y22854D01*
X15844Y22843D01*
X15871Y22835D01*
X15899Y22830D01*
X15926Y22829D01*
Y22671D01*
X15899Y22670D01*
X15871Y22665D01*
X15844Y22657D01*
X15815Y22646D01*
X15787Y22632D01*
X15758Y22615D01*
X15729Y22595D01*
X15699Y22572D01*
X15669Y22545D01*
X15639Y22516D01*
Y22984D01*
X15669Y22955D01*
D02*
G37*
G36*
X29898Y13923D02*
X29918Y13908D01*
X29941Y13895D01*
X29965Y13884D01*
X29990Y13874D01*
X30018Y13866D01*
X30048Y13860D01*
X30079Y13856D01*
X30112Y13854D01*
X30147Y13853D01*
X29855Y13561D01*
X29854Y13596D01*
X29852Y13629D01*
X29848Y13660D01*
X29842Y13690D01*
X29834Y13717D01*
X29824Y13743D01*
X29813Y13767D01*
X29800Y13790D01*
X29785Y13810D01*
X29768Y13829D01*
X29879Y13940D01*
X29898Y13923D01*
D02*
G37*
G36*
X33147Y14263D02*
X33112Y14262D01*
X33079Y14260D01*
X33048Y14256D01*
X33018Y14250D01*
X32991Y14242D01*
X32965Y14232D01*
X32941Y14221D01*
X32918Y14208D01*
X32898Y14193D01*
X32879Y14176D01*
X32768Y14287D01*
X32785Y14306D01*
X32800Y14326D01*
X32813Y14348D01*
X32824Y14372D01*
X32834Y14398D01*
X32842Y14426D01*
X32848Y14456D01*
X32852Y14487D01*
X32854Y14520D01*
X32855Y14555D01*
X33147Y14263D01*
D02*
G37*
G36*
X32147D02*
X32112Y14262D01*
X32079Y14260D01*
X32048Y14256D01*
X32018Y14250D01*
X31990Y14242D01*
X31965Y14232D01*
X31941Y14221D01*
X31918Y14208D01*
X31898Y14193D01*
X31879Y14176D01*
X31768Y14287D01*
X31785Y14306D01*
X31800Y14326D01*
X31813Y14348D01*
X31824Y14372D01*
X31834Y14398D01*
X31842Y14426D01*
X31848Y14456D01*
X31852Y14487D01*
X31854Y14520D01*
X31855Y14555D01*
X32147Y14263D01*
D02*
G37*
G36*
X32377Y12187D02*
X32361Y12170D01*
X32348Y12152D01*
X32336Y12133D01*
X32325Y12113D01*
X32316Y12092D01*
X32309Y12070D01*
X32304Y12047D01*
X32300Y12023D01*
X32298Y11997D01*
X32297Y11971D01*
X32050Y12218D01*
X32076Y12219D01*
X32102Y12221D01*
X32126Y12225D01*
X32149Y12231D01*
X32171Y12238D01*
X32192Y12246D01*
X32212Y12257D01*
X32231Y12269D01*
X32249Y12283D01*
X32265Y12298D01*
X32377Y12187D01*
D02*
G37*
G36*
X31182Y9577D02*
X31185Y9555D01*
X31190Y9533D01*
X31196Y9512D01*
X31205Y9491D01*
X31216Y9470D01*
X31228Y9450D01*
X31243Y9430D01*
X31259Y9410D01*
X31277Y9391D01*
X30927D01*
X30946Y9410D01*
X30962Y9430D01*
X30976Y9450D01*
X30989Y9470D01*
X31000Y9491D01*
X31008Y9512D01*
X31015Y9533D01*
X31020Y9555D01*
X31023Y9577D01*
X31024Y9600D01*
X31181D01*
X31182Y9577D01*
D02*
G37*
G36*
X34639Y9143D02*
X34614Y9168D01*
X34589Y9189D01*
X34564Y9209D01*
X34539Y9225D01*
X34514Y9239D01*
X34489Y9251D01*
X34464Y9260D01*
X34438Y9266D01*
X34413Y9270D01*
X34388Y9271D01*
Y9429D01*
X34413Y9430D01*
X34438Y9434D01*
X34464Y9440D01*
X34489Y9449D01*
X34514Y9461D01*
X34539Y9475D01*
X34564Y9491D01*
X34589Y9511D01*
X34614Y9532D01*
X34639Y9557D01*
Y9143D01*
D02*
G37*
G36*
X32669Y9555D02*
X32729Y9505D01*
X32758Y9485D01*
X32787Y9468D01*
X32815Y9454D01*
X32844Y9443D01*
X32871Y9435D01*
X32899Y9430D01*
X32926Y9429D01*
Y9271D01*
X32899Y9270D01*
X32871Y9265D01*
X32844Y9257D01*
X32815Y9246D01*
X32787Y9232D01*
X32758Y9215D01*
X32729Y9195D01*
X32699Y9172D01*
X32669Y9145D01*
X32639Y9116D01*
Y9584D01*
X32669Y9555D01*
D02*
G37*
G36*
X34639Y8143D02*
X34614Y8168D01*
X34589Y8189D01*
X34564Y8209D01*
X34539Y8225D01*
X34514Y8239D01*
X34489Y8251D01*
X34464Y8260D01*
X34438Y8266D01*
X34413Y8270D01*
X34388Y8271D01*
Y8429D01*
X34413Y8430D01*
X34438Y8434D01*
X34464Y8440D01*
X34489Y8449D01*
X34514Y8461D01*
X34539Y8475D01*
X34564Y8491D01*
X34589Y8511D01*
X34614Y8532D01*
X34639Y8557D01*
Y8143D01*
D02*
G37*
G36*
X32669Y8555D02*
X32729Y8505D01*
X32758Y8485D01*
X32787Y8468D01*
X32815Y8454D01*
X32844Y8443D01*
X32871Y8435D01*
X32899Y8430D01*
X32926Y8429D01*
Y8271D01*
X32899Y8270D01*
X32871Y8265D01*
X32844Y8257D01*
X32815Y8246D01*
X32787Y8232D01*
X32758Y8215D01*
X32729Y8195D01*
X32699Y8172D01*
X32669Y8145D01*
X32639Y8116D01*
Y8584D01*
X32669Y8555D01*
D02*
G37*
G36*
X34639Y7143D02*
X34614Y7168D01*
X34589Y7189D01*
X34564Y7209D01*
X34539Y7225D01*
X34514Y7239D01*
X34489Y7251D01*
X34464Y7260D01*
X34438Y7266D01*
X34413Y7270D01*
X34388Y7271D01*
Y7429D01*
X34413Y7430D01*
X34438Y7434D01*
X34464Y7440D01*
X34489Y7449D01*
X34514Y7461D01*
X34539Y7475D01*
X34564Y7491D01*
X34589Y7511D01*
X34614Y7532D01*
X34639Y7557D01*
Y7143D01*
D02*
G37*
G36*
X32669Y7555D02*
X32729Y7505D01*
X32758Y7485D01*
X32787Y7468D01*
X32815Y7454D01*
X32844Y7443D01*
X32871Y7435D01*
X32899Y7430D01*
X32926Y7429D01*
Y7271D01*
X32899Y7270D01*
X32871Y7265D01*
X32844Y7257D01*
X32815Y7246D01*
X32787Y7232D01*
X32758Y7215D01*
X32729Y7195D01*
X32699Y7172D01*
X32669Y7145D01*
X32639Y7116D01*
Y7584D01*
X32669Y7555D01*
D02*
G37*
G36*
X34557Y6193D02*
X34556Y6207D01*
X34551Y6221D01*
X34543Y6233D01*
X34532Y6243D01*
X34517Y6252D01*
X34500Y6259D01*
X34479Y6264D01*
X34456Y6268D01*
X34429Y6270D01*
X34398Y6271D01*
Y6429D01*
X34429Y6430D01*
X34456Y6432D01*
X34479Y6436D01*
X34500Y6441D01*
X34517Y6448D01*
X34532Y6457D01*
X34543Y6467D01*
X34551Y6479D01*
X34556Y6493D01*
X34557Y6507D01*
Y6193D01*
D02*
G37*
G36*
X32669Y6555D02*
X32729Y6505D01*
X32758Y6485D01*
X32787Y6468D01*
X32815Y6454D01*
X32844Y6443D01*
X32871Y6435D01*
X32899Y6430D01*
X32926Y6429D01*
Y6271D01*
X32899Y6270D01*
X32871Y6265D01*
X32844Y6257D01*
X32815Y6246D01*
X32787Y6232D01*
X32758Y6215D01*
X32729Y6195D01*
X32699Y6172D01*
X32669Y6145D01*
X32639Y6116D01*
Y6584D01*
X32669Y6555D01*
D02*
G37*
G36*
X32161Y5116D02*
X32145Y5130D01*
X32127Y5143D01*
X32106Y5155D01*
X32084Y5165D01*
X32059Y5173D01*
X32032Y5180D01*
X32003Y5186D01*
X31972Y5189D01*
X31939Y5192D01*
X31904Y5193D01*
Y5507D01*
X31939Y5508D01*
X32003Y5514D01*
X32032Y5520D01*
X32059Y5527D01*
X32084Y5535D01*
X32106Y5545D01*
X32127Y5557D01*
X32145Y5570D01*
X32161Y5584D01*
Y5116D01*
D02*
G37*
G36*
X27655Y5570D02*
X27673Y5557D01*
X27694Y5545D01*
X27716Y5535D01*
X27741Y5527D01*
X27768Y5520D01*
X27797Y5514D01*
X27828Y5511D01*
X27861Y5508D01*
X27896Y5507D01*
Y5193D01*
X27861Y5192D01*
X27797Y5186D01*
X27768Y5180D01*
X27741Y5173D01*
X27716Y5165D01*
X27694Y5155D01*
X27673Y5143D01*
X27655Y5130D01*
X27639Y5116D01*
Y5584D01*
X27655Y5570D01*
D02*
G37*
G36*
X15620Y17495D02*
X15607Y17477D01*
X15595Y17456D01*
X15585Y17434D01*
X15577Y17409D01*
X15570Y17382D01*
X15564Y17353D01*
X15561Y17322D01*
X15558Y17289D01*
X15557Y17254D01*
X15243D01*
X15242Y17289D01*
X15236Y17353D01*
X15230Y17382D01*
X15223Y17409D01*
X15215Y17434D01*
X15205Y17456D01*
X15193Y17477D01*
X15180Y17495D01*
X15166Y17511D01*
X15634D01*
X15620Y17495D01*
D02*
G37*
G36*
X16986Y5688D02*
X17036Y5647D01*
X17060Y5630D01*
X17084Y5616D01*
X17107Y5605D01*
X17130Y5596D01*
X17153Y5589D01*
X17175Y5586D01*
X17197Y5585D01*
X16865Y5253D01*
X16864Y5275D01*
X16861Y5297D01*
X16854Y5320D01*
X16845Y5343D01*
X16834Y5366D01*
X16820Y5390D01*
X16803Y5414D01*
X16784Y5439D01*
X16762Y5464D01*
X16738Y5489D01*
X16961Y5712D01*
X16986Y5688D01*
D02*
G37*
G36*
X21611Y3016D02*
X21581Y3045D01*
X21521Y3095D01*
X21492Y3115D01*
X21463Y3132D01*
X21435Y3146D01*
X21406Y3157D01*
X21379Y3165D01*
X21351Y3170D01*
X21329Y3171D01*
X21311Y3170D01*
X21284Y3168D01*
X21260Y3164D01*
X21239Y3159D01*
X21222Y3152D01*
X21208Y3143D01*
X21197Y3133D01*
X21189Y3121D01*
X21184Y3107D01*
X21182Y3093D01*
Y3407D01*
X21184Y3393D01*
X21189Y3379D01*
X21197Y3367D01*
X21208Y3357D01*
X21222Y3348D01*
X21239Y3341D01*
X21260Y3336D01*
X21284Y3332D01*
X21311Y3330D01*
X21329Y3329D01*
X21351Y3330D01*
X21379Y3335D01*
X21406Y3343D01*
X21435Y3354D01*
X21463Y3368D01*
X21492Y3385D01*
X21521Y3405D01*
X21551Y3428D01*
X21581Y3455D01*
X21611Y3484D01*
Y3016D01*
D02*
G37*
D35*
X23695Y28103D02*
G03*
X23695Y27880I111J-111D01*
G01*
X23874Y27478D02*
G03*
X23874Y27700I-111J111D01*
G01*
X23652Y27478D02*
G03*
X23874Y27478I111J111D01*
G01*
X22943Y28187D02*
G03*
X22720Y28187I-111J-111D01*
G01*
D02*
G03*
X22720Y27964I111J-111D01*
G01*
X23595Y26866D02*
G03*
X23595Y27089I-111J111D01*
G01*
X23373Y26866D02*
G03*
X23595Y26866I111J111D01*
G01*
X22497Y27741D02*
G03*
X22275Y27741I-111J-111D01*
G01*
D02*
G03*
X22275Y27518I111J-111D01*
G01*
X23150Y26420D02*
G03*
X23150Y26643I-111J111D01*
G01*
X22927Y26420D02*
G03*
X23150Y26420I111J111D01*
G01*
X22052Y27296D02*
G03*
X21829Y27296I-111J-111D01*
G01*
X21829Y27296D02*
G03*
X21829Y27073I111J-111D01*
G01*
X22136Y26544D02*
G03*
X22136Y26766I-111J111D01*
G01*
X23549Y31974D02*
G03*
X23549Y31751I111J-111D01*
G01*
X23549Y31528D02*
G03*
X23549Y31750I-111J111D01*
G01*
X23326Y31528D02*
G03*
X23549Y31528I111J111D01*
G01*
X23042Y31812D02*
G03*
X22819Y31812I-111J-111D01*
G01*
D02*
G03*
X22819Y31589I111J-111D01*
G01*
X23171Y31015D02*
G03*
X23171Y31238I-111J111D01*
G01*
X22948Y31015D02*
G03*
X23171Y31015I111J111D01*
G01*
X22597Y31367D02*
G03*
X22374Y31367I-111J-111D01*
G01*
D02*
G03*
X22374Y31144I111J-111D01*
G01*
X22725Y30570D02*
G03*
X22725Y30792I-111J111D01*
G01*
X22503Y30570D02*
G03*
X22725Y30570I111J111D01*
G01*
X22151Y30921D02*
G03*
X21929Y30921I-111J-111D01*
G01*
X21929Y30921D02*
G03*
X21929Y30698I111J-111D01*
G01*
X21990Y30415D02*
G03*
X21990Y30637I-111J111D01*
G01*
X21961Y29441D02*
G03*
X21961Y29218I111J-111D01*
G01*
X22000Y28956D02*
G03*
X22000Y29178I-111J111D01*
G01*
X21778Y28956D02*
G03*
X22000Y28956I111J111D01*
G01*
X21483Y29250D02*
G03*
X21260Y29250I-111J-111D01*
G01*
X21260Y29250D02*
G03*
X21260Y29028I111J-111D01*
G01*
X21705Y28360D02*
G03*
X21705Y28583I-111J111D01*
G01*
X21482Y28360D02*
G03*
X21705Y28360I111J111D01*
G01*
X21038Y28805D02*
G03*
X20815Y28805I-111J-111D01*
G01*
D02*
G03*
X20815Y28582I111J-111D01*
G01*
X21259Y27915D02*
G03*
X21259Y28138I-111J111D01*
G01*
X21037Y27915D02*
G03*
X21259Y27915I111J111D01*
G01*
X20592Y28360D02*
G03*
X20369Y28360I-111J-111D01*
G01*
D02*
G03*
X20369Y28137I111J-111D01*
G01*
X20814Y27470D02*
G03*
X20814Y27692I-111J111D01*
G01*
X20591Y27470D02*
G03*
X20814Y27470I111J111D01*
G01*
X20147Y27914D02*
G03*
X19924Y27914I-111J-111D01*
G01*
X19924Y27914D02*
G03*
X19924Y27691I111J-111D01*
G01*
X19956Y27437D02*
G03*
X19956Y27659I-111J111D01*
G01*
X20972Y30894D02*
G03*
X20972Y30671I111J-111D01*
G01*
X21090Y30331D02*
G03*
X21090Y30553I-111J111D01*
G01*
X20867Y30331D02*
G03*
X21090Y30331I111J111D01*
G01*
X20489Y30709D02*
G03*
X20266Y30709I-111J-111D01*
G01*
D02*
G03*
X20266Y30486I111J-111D01*
G01*
X20680Y29850D02*
G03*
X20680Y30072I-111J111D01*
G01*
X20457Y29850D02*
G03*
X20680Y29850I111J111D01*
G01*
X20044Y30263D02*
G03*
X19821Y30263I-111J-111D01*
G01*
X19821Y30263D02*
G03*
X19821Y30041I111J-111D01*
G01*
X19859Y29780D02*
G03*
X19859Y30003I-111J111D01*
G01*
X21022Y32217D02*
G03*
X21272Y32217I125J125D01*
G01*
X21022Y32217D02*
G03*
X20771Y32217I-125J-125D01*
G01*
X20771Y32217D02*
G03*
X20771Y31967I125J-125D01*
G01*
X21082Y31405D02*
G03*
X21082Y31656I-125J125D01*
G01*
X20831Y31405D02*
G03*
X21082Y31405I125J125D01*
G01*
X20441Y31795D02*
G03*
X20191Y31795I-125J-125D01*
G01*
X20191Y31795D02*
G03*
X20191Y31545I125J-125D01*
G01*
X20270Y31215D02*
G03*
X20270Y31465I-125J125D01*
G01*
X25330Y26511D02*
G03*
X25330Y26288I111J-111D01*
G01*
X25330Y26066D02*
G03*
X25330Y26288I-111J111D01*
G01*
X25107Y26066D02*
G03*
X25330Y26066I111J111D01*
G01*
X24641Y26532D02*
G03*
X24419Y26532I-111J-111D01*
G01*
X24419Y26532D02*
G03*
X24419Y26309I111J-111D01*
G01*
X24662Y25843D02*
G03*
X24662Y26066I-111J111D01*
G01*
X31102Y11630D02*
X31624Y12152D01*
Y14032D02*
X32150Y14558D01*
X31624Y12152D02*
Y14032D01*
X31102Y9213D02*
Y11630D01*
X32047Y11968D02*
X32624Y12545D01*
Y14032D01*
X33150Y14558D01*
X29624Y14084D02*
Y15258D01*
X22132Y22750D02*
X29624Y15258D01*
X15400Y22750D02*
X22132D01*
X29624Y14084D02*
X30150Y13558D01*
X24049Y28457D02*
X26150Y30558D01*
X23695Y28103D02*
X24049Y28457D01*
X23695Y27880D02*
X23874Y27700D01*
X22943Y28187D02*
X23652Y27478D01*
X22943Y28187D02*
X22943Y28187D01*
X22720Y27964D02*
X22720Y27964D01*
X23595Y27089D01*
X23595Y27089D02*
X23595Y27089D01*
X23595Y26866D02*
X23595Y26866D01*
X23373Y26866D02*
X23373Y26866D01*
X22497Y27741D02*
X23373Y26866D01*
X22497Y27741D02*
X22497Y27741D01*
X22275Y27518D02*
X22275Y27518D01*
X23150Y26643D01*
X23150Y26643D02*
X23150Y26643D01*
X22927Y26420D02*
X22927Y26420D01*
X22052Y27296D02*
X22927Y26420D01*
X22052Y27296D02*
X22052Y27296D01*
X21829Y27296D02*
X21829Y27296D01*
X21829Y27073D02*
X21829Y27073D01*
X22136Y26766D01*
X22080Y26488D02*
X22136Y26544D01*
X20342Y24750D02*
X22080Y26488D01*
X23549Y31974D02*
X23858Y32284D01*
X23549Y31751D02*
X23549Y31751D01*
X23549Y31750D01*
X23042Y31812D02*
X23326Y31528D01*
X23042Y31812D02*
X23042Y31812D01*
X22819Y31589D02*
X22819Y31589D01*
X23171Y31238D01*
X23171Y31238D02*
X23171Y31238D01*
X23171Y31015D02*
X23171Y31015D01*
X22948Y31015D02*
X22948Y31015D01*
X22597Y31367D02*
X22948Y31015D01*
X22597Y31367D02*
X22597Y31367D01*
X22374Y31144D02*
X22374Y31144D01*
X22725Y30792D01*
X22725Y30792D02*
X22725Y30792D01*
X22503Y30570D02*
X22503Y30570D01*
X22151Y30921D02*
X22503Y30570D01*
X22151Y30921D02*
X22151Y30921D01*
X21929Y30921D02*
X21929Y30921D01*
X21928Y30698D02*
X21929Y30698D01*
X21990Y30637D01*
X21934Y30359D02*
X21990Y30415D01*
X23858Y32284D02*
X24331Y32756D01*
X19325Y27750D02*
X21934Y30359D01*
X22526Y30007D02*
X24567Y32047D01*
X21961Y29441D02*
X22526Y30007D01*
X21961Y29218D02*
X21961Y29218D01*
X22000Y29178D01*
X21483Y29250D02*
X21778Y28956D01*
X21483Y29250D02*
X21483Y29250D01*
X21260Y29250D02*
X21260Y29250D01*
X21260Y29028D02*
X21260Y29028D01*
X21705Y28583D01*
X21705Y28583D02*
X21705Y28583D01*
X21482Y28360D02*
X21482Y28360D01*
X21038Y28805D02*
X21482Y28360D01*
X21038Y28805D02*
X21038Y28805D01*
X20815Y28582D02*
X20815Y28582D01*
X21259Y28138D01*
X21259Y28138D02*
X21259Y28138D01*
X21259Y27915D02*
X21259Y27915D01*
X21037Y27915D02*
X21037Y27915D01*
X20592Y28360D02*
X21037Y27915D01*
X20592Y28360D02*
X20592Y28360D01*
X20369Y28137D02*
X20369Y28137D01*
X20814Y27692D01*
X20814Y27692D02*
X20814Y27692D01*
X20591Y27470D02*
X20591Y27470D01*
X20147Y27914D02*
X20591Y27470D01*
X20147Y27914D02*
X20147Y27914D01*
X19924Y27914D02*
X19924Y27914D01*
X19924Y27691D02*
X19924Y27691D01*
X19956Y27659D01*
X19940Y27420D02*
X19956Y27437D01*
X19901Y27381D02*
X19940Y27420D01*
X19270Y26750D02*
X19901Y27381D01*
X24567Y32047D02*
X27661D01*
X21657Y31578D02*
X23228Y33150D01*
X20972Y30894D02*
X21657Y31578D01*
X20972Y30671D02*
X20972Y30671D01*
X21090Y30553D01*
Y30331D02*
X21090Y30331D01*
X20489Y30709D02*
X20867Y30331D01*
X20489Y30709D02*
X20489Y30709D01*
X20266Y30486D02*
X20266Y30486D01*
X20680Y30072D01*
X20680Y30072D02*
X20680Y30072D01*
X20457Y29850D02*
X20457Y29850D01*
X20044Y30263D02*
X20457Y29850D01*
X20044Y30263D02*
X20044Y30263D01*
X19821Y30263D02*
X19821Y30263D01*
X19821Y30041D02*
X19821Y30041D01*
X19859Y30003D01*
X19803Y29724D02*
X19859Y29780D01*
X18829Y28750D02*
X19803Y29724D01*
X23228Y33150D02*
X29558D01*
X21272Y32217D02*
X21699Y32643D01*
X21022Y32217D02*
X21022Y32217D01*
X21022Y32217D02*
X21022Y32217D01*
X20771Y32217D02*
X20771Y32217D01*
X20771Y31967D02*
X21082Y31656D01*
X21082Y31405D02*
X21082Y31405D01*
X20441Y31795D02*
X20831Y31405D01*
X20441Y31795D02*
X20441Y31795D01*
X20191D02*
X20191Y31795D01*
X20191Y31545D02*
X20191Y31545D01*
X20270Y31465D01*
X20214Y31159D02*
X20270Y31215D01*
X21699Y32643D02*
X22598Y33543D01*
X18805Y29750D02*
X20214Y31159D01*
X15400Y24750D02*
X20342D01*
X15400Y26750D02*
X19270D01*
X27661Y32047D02*
X28150Y31558D01*
X15400Y27750D02*
X19325D01*
X24331Y32756D02*
X28952D01*
X30150Y31558D01*
X29558Y33150D02*
X31150Y31558D01*
X30165Y33543D02*
X32150Y31558D01*
X22598Y33543D02*
X30165D01*
X18781Y30750D02*
X21969Y33937D01*
X31771D02*
X34150Y31558D01*
X21969Y33937D02*
X31771D01*
X15400Y29750D02*
X18805D01*
X15400Y30750D02*
X18781D01*
X15400Y28750D02*
X18829D01*
X28661Y31069D02*
X29150Y31558D01*
X28661Y29843D02*
Y31069D01*
X26272Y27453D02*
X28661Y29843D01*
X25330Y26511D02*
X26272Y27453D01*
X25330Y26288D02*
X25330Y26288D01*
X25330Y26288D01*
X24641Y26532D02*
X25107Y26066D01*
X24419Y26532D02*
X24419Y26532D01*
X24419Y26309D02*
X24662Y26066D01*
X24606Y25787D02*
X24662Y25843D01*
X22569Y23750D02*
X24606Y25787D01*
X15400Y23750D02*
X22569D01*
X32400Y7350D02*
X34850D01*
X32400Y6350D02*
X34850D01*
X33300Y18150D02*
X34450D01*
X33000Y17850D02*
X33300Y18150D01*
X20850Y3250D02*
X21850D01*
X32400Y8350D02*
X34850D01*
X32400Y9350D02*
X34850D01*
D36*
X19950Y5850D02*
X20709Y6609D01*
Y8091D01*
X19950Y8850D02*
X20709Y8091D01*
X15423Y18750D02*
X19950Y14223D01*
Y8850D02*
Y14223D01*
X24389Y37389D02*
X29261D01*
X23950Y36950D02*
X24389Y37389D01*
X29261D02*
X30750Y35900D01*
X33000Y29408D02*
X34150Y30558D01*
X33000Y23583D02*
Y29408D01*
X35709Y29567D02*
X36575Y30433D01*
X35141Y29567D02*
X35709D01*
X34150Y30558D02*
X35141Y29567D01*
X36575Y30433D02*
Y36890D01*
X33000Y20850D02*
Y23583D01*
X36181Y20402D01*
X36142Y37323D02*
X36575Y36890D01*
X32084Y37323D02*
X36142D01*
X31081Y36306D02*
Y36320D01*
X32084Y37323D01*
X30750Y35975D02*
X31081Y36306D01*
X30750Y35900D02*
Y35975D01*
X35512Y4646D02*
X36181Y5315D01*
Y20402D01*
X21450Y4350D02*
X24843D01*
X19213Y5113D02*
X19950Y5850D01*
X19213Y4528D02*
Y5113D01*
X15400Y18750D02*
X15423D01*
X34409Y4646D02*
X35512D01*
X33000Y18827D02*
Y20850D01*
X32000Y17850D02*
X32023D01*
X33000Y18827D01*
X24069Y5124D02*
X24843Y4350D01*
X27400D01*
X32538Y1562D02*
X32750Y1350D01*
X32400Y4350D02*
X32538Y4212D01*
Y1562D02*
Y4212D01*
X15669Y37402D02*
X23498D01*
X14699Y36432D02*
X15669Y37402D01*
X23498D02*
X23950Y36950D01*
X14519Y36251D02*
Y36258D01*
X14692Y36432D01*
X14150Y35875D02*
X14288Y36012D01*
Y36020D01*
X14519Y36251D01*
X14150Y35800D02*
Y35875D01*
X14692Y36432D02*
X14699D01*
X19950Y5850D02*
X21450Y4350D01*
X32000Y20850D02*
X33000D01*
X31000D02*
X32000D01*
X30000D02*
X31000D01*
X30750Y1350D02*
X32750D01*
X27400Y4350D02*
X32400D01*
D37*
X15400Y7050D02*
Y17750D01*
Y7050D02*
X17200Y5250D01*
X28450Y35000D02*
X30850D01*
X26950Y36500D02*
X28450Y35000D01*
X33533Y35984D02*
X33549Y36000D01*
X31834Y35984D02*
X33533D01*
X30850Y35000D02*
X31834Y35984D01*
X33549Y36000D02*
X35250D01*
X27400Y5350D02*
X32400D01*
D38*
X34450Y19150D02*
D03*
X29750Y35900D02*
D03*
X30750D02*
D03*
X26950Y36500D02*
D03*
X17200Y5250D02*
D03*
X27400Y5350D02*
D03*
Y7350D02*
D03*
Y8350D02*
D03*
Y4350D02*
D03*
Y6350D02*
D03*
Y9350D02*
D03*
X32400D02*
D03*
Y8350D02*
D03*
Y6350D02*
D03*
Y5350D02*
D03*
Y7350D02*
D03*
X19950Y5850D02*
D03*
Y6850D02*
D03*
Y7850D02*
D03*
Y8850D02*
D03*
X22950D02*
D03*
Y7850D02*
D03*
Y6850D02*
D03*
X15400Y29750D02*
D03*
Y28750D02*
D03*
Y27750D02*
D03*
Y26750D02*
D03*
Y25750D02*
D03*
Y24750D02*
D03*
Y23750D02*
D03*
Y22750D02*
D03*
Y21750D02*
D03*
Y20750D02*
D03*
Y19750D02*
D03*
Y18750D02*
D03*
Y17750D02*
D03*
X14150Y35800D02*
D03*
X33000Y17850D02*
D03*
X32000D02*
D03*
X31000D02*
D03*
X30000D02*
D03*
Y20850D02*
D03*
X31000D02*
D03*
X32000D02*
D03*
X21850Y3250D02*
D03*
D39*
X34450Y18150D02*
D03*
X15400Y30750D02*
D03*
X33000Y20850D02*
D03*
D40*
X30750Y1350D02*
D03*
X35370Y34144D02*
D03*
X35150Y25400D02*
D03*
D41*
X32750Y1350D02*
D03*
D42*
X31750Y35900D02*
D03*
X25950Y36500D02*
D03*
X18200Y5250D02*
D03*
X32400Y4350D02*
D03*
X22950Y5850D02*
D03*
X15150Y35800D02*
D03*
X20850Y3250D02*
D03*
D43*
X23950Y34950D02*
D03*
Y36950D02*
D03*
X21950Y35950D02*
D03*
D44*
X35370Y36144D02*
D03*
X35150Y27400D02*
D03*
D45*
X26150Y30558D02*
D03*
Y31558D02*
D03*
X27150Y30558D02*
D03*
Y31558D02*
D03*
X28150Y30558D02*
D03*
Y31558D02*
D03*
X29150Y30558D02*
D03*
Y31558D02*
D03*
X30150Y30558D02*
D03*
Y31558D02*
D03*
X31150Y30558D02*
D03*
Y31558D02*
D03*
X32150Y30558D02*
D03*
Y31558D02*
D03*
X33150Y30558D02*
D03*
Y31558D02*
D03*
X34150Y30558D02*
D03*
Y31558D02*
D03*
X35150Y30558D02*
D03*
X34850Y7350D02*
D03*
Y8350D02*
D03*
Y9350D02*
D03*
X26150Y13558D02*
D03*
Y14558D02*
D03*
X27150Y13558D02*
D03*
Y14558D02*
D03*
X28150Y13558D02*
D03*
Y14558D02*
D03*
X29150Y13558D02*
D03*
Y14558D02*
D03*
X30150Y13558D02*
D03*
Y14558D02*
D03*
X31150Y13558D02*
D03*
Y14558D02*
D03*
X32150Y13558D02*
D03*
Y14558D02*
D03*
X33150Y13558D02*
D03*
Y14558D02*
D03*
X34150Y13558D02*
D03*
Y14558D02*
D03*
X35150Y13558D02*
D03*
X20591Y36417D02*
D03*
D46*
X35150Y31558D02*
D03*
Y14558D02*
D03*
D47*
X34850Y6350D02*
D03*
X20591Y35417D02*
D03*
D48*
X-0Y37008D02*
D03*
Y0D02*
D03*
X37008D02*
D03*
X31575Y23307D02*
D03*
D49*
X32047Y11968D02*
D03*
X31102Y9213D02*
D03*
X19213Y4528D02*
D03*
X24069Y5124D02*
D03*
X34409Y4646D02*
D03*
M02*
